<svg width="1256" height="515" viewBox="0 0 1256 515" fill="none" xmlns="http://www.w3.org/2000/svg">
<g clip-path="url(#clip0_2_2)">
<path d="M335.879 255.789L335.875 255.786C323.823 248.733 311.286 238.073 308.806 222.703L308.796 222.637L308.79 222.571C307.657 210.535 315.286 200.418 322.169 192.577L322.188 192.556L322.207 192.535C336.421 177.227 354.511 166.563 372.208 156.603L372.222 156.595L372.236 156.587C432.493 123.907 498.48 104.445 563.711 85.4465L563.724 85.4426L563.738 85.4388C642.91 63.5937 723.761 46.1279 805.94 40.1807C817.236 39.0326 828.334 41.5299 839.003 43.9305C841.749 44.5483 844.466 45.1597 847.15 45.7009L846.964 49.6505C796.746 54.9352 694.542 68.1469 596.222 100.606L595.638 98.8372L596.222 100.606C587.86 103.365 539.425 119.768 486.783 157.54C471.12 168.779 458.526 177.822 450.051 185.998C441.533 194.215 437.688 201.08 438.488 207.941C439.4 215.766 446.276 222.864 457.757 229.208C469.123 235.488 484.428 240.707 501.044 245.022C534.252 253.648 572.2 258.544 593.169 261.249C614.654 264.019 661.224 269.022 735.038 265.303C743.332 264.884 785.262 262.366 835.751 252.783C886.292 243.19 945.157 226.562 987.483 198.048C1005.64 185.816 1016.13 172.572 1019 157.133L1020.97 157.499L1019 157.133C1022.36 139.074 1012.53 121.305 999.828 108.385C975.542 83.9449 943.335 69.4595 911.031 57.861C831.065 30.5459 745.516 28.3961 661.486 27.912C537.824 27.5887 414.126 36.7002 291.955 55.8887C257.166 62.0972 222.54 68.9845 188.493 78.1618L187.169 74.3994C221.121 59.4976 257.092 50.3308 292.724 41.2502C293.947 40.9386 295.17 40.6271 296.391 40.3155L296.41 40.3106L296.429 40.3062C430.419 8.90207 568.747 0.626587 705.872 3.25247L705.881 3.25266L705.891 3.25293C794.823 5.79361 886.009 9.98666 970.886 40.6551L970.896 40.6587L970.906 40.6623C975.013 42.1949 979.151 43.7151 983.305 45.2413C1020.33 58.8434 1058.64 72.9197 1088.43 100.466C1103.79 114.639 1118.59 135.306 1113.48 158.375C1107.93 183.445 1087.54 200.958 1063.62 215.655C985.495 263.664 900.261 283.664 825.667 295.085C773.099 303.135 731.27 306.086 707.671 307.349L707.645 307.351L707.481 307.364C707.336 307.376 707.121 307.393 706.837 307.414C706.267 307.458 705.42 307.519 704.303 307.594C702.069 307.743 698.755 307.945 694.425 308.154C685.764 308.573 673.037 309.022 656.75 309.148C624.177 309.4 577.361 308.357 520.355 303.183C518.418 303.007 516.495 302.837 514.573 302.667C494.295 300.873 474.073 299.084 437.956 290.671C403.183 282.571 367.385 274.123 335.879 255.789Z" fill="white" stroke="#202751" stroke-width="4"/>
<path d="M916.999 16.5087L917.682 12.6139C967.42 13.7063 1016.69 20.7873 1065.71 27.9276L1065.76 27.9342L1065.8 27.943C1067.68 28.3049 1069.56 28.6665 1071.44 29.0284C1119.55 38.2944 1168.97 47.81 1212.99 71.1952L1213 71.2046L1213.02 71.2144C1230.28 80.8313 1249.46 94.8646 1253.38 116.631L1253.39 116.701L1253.4 116.771C1255.47 135.987 1242.64 152.684 1229.91 164.378L1229.89 164.399L1229.86 164.419C1199.62 190.526 1162.5 206.291 1126.43 221.325L1120.75 223.696L1123.96 218.437C1142.06 188.792 1147.7 149.398 1129.02 119.125C1104.04 78.7376 1058.29 58.1395 1014.57 42.9331L1014.56 42.9287L1014.54 42.9241C998.768 37.1997 982.473 33.309 966.039 29.4888C965.148 29.2816 964.257 29.0747 963.365 28.8676C947.844 25.2649 932.218 21.6378 916.999 16.5087Z" fill="white" stroke="#202751" stroke-width="4"/>
<path d="M517.686 64.1831L517.71 64.1781L517.735 64.1737L518.04 64.1193C542.751 59.7068 568.155 55.1707 593.725 57.9799L593.875 61.9336C515.648 76.6245 439.862 102.668 366.17 132.736C332.631 148.827 299.955 168.8 276.349 197.821L276.344 197.828C265.134 211.484 264.023 233.074 276.513 245.966C295.59 265.569 322.843 273.7 349.188 280.449L348.869 284.379C313.559 287.531 277.942 289.195 242.498 286.844L242.427 286.839L242.358 286.829C241.932 286.771 241.505 286.712 241.076 286.653C231.652 285.36 221.427 283.957 211.903 280.95C201.914 277.798 192.536 272.837 185.5 264.244L185.315 264.018L185.202 263.749C178.936 248.754 183.945 231.83 192.817 219.558C208.933 197.216 228.922 177.798 251.033 161.528C237.993 160.446 224.552 159.698 210.727 159.35C131.578 157.36 61.3688 169.033 2.92061 185.01L1.44771 181.319C69.3564 144.886 147.254 135.954 222.228 127.357C225.423 126.99 228.614 126.625 231.798 126.257L231.859 126.25L231.92 126.247C242.954 125.655 254.045 124.685 265.171 123.712C284.865 121.99 304.67 120.259 324.469 120.595L324.472 120.595C331.911 120.731 339.072 119.115 346.206 116.794C350.502 115.395 354.645 113.796 358.829 112.18C361.703 111.071 364.596 109.954 367.571 108.889C416.597 91.0439 466.42 74.6628 517.686 64.1831Z" fill="#406EB9" stroke="#202751" stroke-width="4"/>
<path d="M475.372 168.972L476.034 168.557L476.802 168.701C605.83 192.897 711.659 224.353 785.239 249.765C822.03 262.47 850.76 273.666 870.299 281.687C877.83 284.779 883.996 287.4 888.731 289.453C809.847 218.558 744.462 172.779 698.337 144.544C672.983 129.024 644.954 114.547 620.646 102.972L616.946 101.211L620.611 99.3778C626.023 96.6717 632.263 93.9237 639.294 91.4334L639.294 91.4333C645.813 89.1254 651.932 87.4207 657.474 86.1493L658.264 85.9681L658.957 86.3879C779.369 159.308 852.814 220.128 896.183 262.768C917.868 284.088 932.034 300.862 940.791 312.332C945.17 318.066 948.197 322.474 950.135 325.46C951.104 326.953 951.802 328.091 952.26 328.861C952.489 329.246 952.658 329.54 952.771 329.74C952.828 329.84 952.871 329.916 952.9 329.969L952.935 330.031L952.944 330.049L952.947 330.055C952.948 330.056 952.949 330.058 951.191 331.011L952.949 330.058L955.449 334.673L950.512 332.892C844.601 294.699 720.765 259.465 623.383 233.774L623.893 231.84L623.383 233.774C566.164 218.677 508.821 204.239 453.866 191.568L450.627 190.821L452.803 188.309C455.789 184.863 459.505 181.046 464.049 177.222L465.337 178.752L464.049 177.222C468.033 173.87 471.886 171.156 475.372 168.972Z" fill="#406EB9" stroke="#202751" stroke-width="4"/>
<path d="M90.359 361.923C90.359 360.745 90.6178 359.799 91.1393 359.077C91.7258 358.752 92.7993 358.489 94.3612 358.295H104.42H122.386H140.744H150.606C151.973 358.295 153.111 358.685 154.023 359.471C154.348 359.995 154.609 360.943 154.804 362.316V370.951V387.433V403.915V412.353C154.804 413.663 154.609 414.512 154.219 414.905L151.583 415.296H149.824H148.164H146.212H144.552C143.575 415.296 142.794 415.1 142.209 414.708C141.882 414.381 141.622 413.531 141.427 412.157V409.508V405.877V402.64V400.089C141.427 398.716 141.002 397.703 140.158 397.048C139.637 396.788 139.214 396.591 138.889 396.46C138.562 396.329 138.205 396.199 137.815 396.067H137.423H137.228H136.155H135.178H132.737H131.761V409.901V436.391V464.157V476.813H132.346H134.006H134.397C134.917 476.813 135.373 476.945 135.763 477.205C136.155 477.403 136.35 477.959 136.35 478.873V481.621V487.017V490.844V494.671V504.971V510.564C136.35 511.807 136.155 512.82 135.763 513.605C135.568 513.933 135.112 514.193 134.397 514.391H130.198H122.582H114.77H110.572C110.115 514.391 109.725 514.064 109.399 513.408C109.399 513.475 109.269 512.525 109.009 510.564V504.971V494.671V484.269V478.579C109.009 478.057 109.139 477.664 109.399 477.403C109.464 477.337 109.79 477.205 110.375 477.009H110.572H110.767H111.352H111.939H113.404H113.989V396.067C113.727 396.067 113.209 396.132 112.427 396.263H108.228C106.339 396.263 105.135 396.591 104.615 397.244C104.225 397.833 104.03 398.781 104.03 400.089V402.837V406.663V410.881V413.531C104.03 413.989 103.736 414.381 103.15 414.708C102.76 414.905 102.173 415.1 101.393 415.296H100.611H100.025H99.3414H98.7562H96.9979H94.5576C93.1245 415.296 92.0828 415.233 91.4325 415.1C90.911 414.969 90.5541 414.381 90.359 413.335V404.897V387.628V370.951V362.12V361.923Z" fill="#406EB9"/>
<path d="M188.981 395.871V476.617L188.786 476.813H188.395H189.958C191.715 476.813 192.79 476.945 193.18 477.205C193.634 477.337 193.961 478.221 194.156 479.855V485.643V495.259V504.971V510.564C194.156 512.069 193.83 513.083 193.18 513.605C192.658 513.933 191.52 514.193 189.763 514.391H185.758H179.412H172.772H168.768C167.402 514.391 166.262 514.193 165.351 513.801C165.024 513.475 164.765 512.396 164.57 510.564V504.971V495.259V485.448V479.855C164.57 478.94 164.96 478.187 165.742 477.599C166.327 477.337 167.14 477.075 168.182 476.813H168.378H168.768H169.745V395.871V396.067H170.135H170.624H168.768C167.205 396.067 166.067 395.708 165.351 394.988C165.024 394.531 164.765 393.484 164.57 391.848V386.353V376.935V367.908V362.316C164.57 360.812 164.814 359.813 165.302 359.324C165.791 358.833 166.945 358.489 168.768 358.295H172.772H179.412H185.758H189.958C191.585 358.295 192.658 358.621 193.18 359.275C193.634 359.603 193.961 360.616 194.156 362.316V367.908V376.935V386.353V391.848C194.156 393.157 193.961 394.203 193.57 394.988C193.44 395.512 192.658 395.871 191.228 396.067H188.981V395.871Z" fill="#406EB9"/>
<path d="M259.579 472.007V473.772C259.579 484.957 258.667 494.408 256.845 502.127C255.217 510.107 248.936 514.193 237.999 514.391C234.743 514.391 232.302 513.933 230.677 513.017C229.309 512.297 227.974 511.285 226.672 509.975C226.345 509.583 225.923 508.995 225.403 508.209C225.272 507.621 225.012 507.067 224.622 506.541L224.036 507.719C223.71 508.765 223.385 509.583 223.06 510.172L222.865 510.368V510.564C222.733 510.892 222.554 511.219 222.327 511.545C222.099 511.873 221.855 512.297 221.595 512.82C221.463 513.213 221.268 513.541 221.008 513.801H219.056H215.248H212.026H209.877C208.641 513.801 207.631 513.605 206.85 513.213C206.394 512.953 206.069 511.741 205.874 509.583V501.341V486.428V471.221V463.176C205.874 461.801 206.004 460.985 206.264 460.723C206.589 460.397 207.436 460.133 208.804 459.939H211.244H214.466H216.615H218.861C220.162 459.939 221.008 460.331 221.4 461.116C221.79 461.704 221.985 463.372 221.985 466.12C221.985 469.783 222.865 472.399 224.622 473.968C226.444 475.604 228.462 476.42 230.677 476.42H231.065H231.652C233.735 476.225 235.656 475.277 237.414 473.575C239.106 472.137 240.051 469.881 240.244 466.805C240.244 461.901 239.301 458.139 237.414 455.523C235.916 452.843 233.995 450.553 231.652 448.655C231 448.197 230.3 447.74 229.553 447.281C228.803 446.824 228.104 446.365 227.453 445.907C225.37 444.469 224.295 443.717 224.231 443.651C219.283 439.596 215.346 435.704 212.416 431.976C209.811 428.247 207.956 424.781 206.85 421.576C206.46 420.073 205.906 416.999 205.19 412.353C205.19 407.907 205.124 404.472 204.995 402.052V399.893V397.44V397.048V396.46V393.221V389.788C204.995 382.2 206.199 374.972 208.607 368.105C210.821 361.761 216.419 358.489 225.403 358.295C228.982 358.295 231.847 358.685 233.995 359.471C235.949 360.191 237.414 361.009 238.39 361.923C239.039 362.513 239.594 363.363 240.051 364.475C240.051 365.259 240.114 365.652 240.244 365.652C240.179 365.652 240.244 365.325 240.441 364.671C240.441 363.885 240.619 363.119 240.978 362.365C241.335 361.615 241.807 360.845 242.394 360.06C243.043 359.275 243.921 358.883 245.029 358.883H247.861H251.181H253.037H254.795C256.682 358.883 257.885 359.144 258.407 359.667C258.732 359.995 258.993 361.009 259.188 362.708V370.753V385.569V400.481V408.527C259.188 409.901 258.993 410.881 258.602 411.469C258.472 411.863 257.333 412.157 255.185 412.353H250.4H246.983H246.593H246.396H246.006H245.616C244.834 412.353 244.183 411.863 243.663 410.881C243.401 410.293 243.109 408.103 242.784 404.308C242.784 401.561 241.938 399.485 240.244 398.077C238.552 396.672 236.599 395.871 234.386 395.675H233.995H233.8C231.392 395.675 229.212 396.46 227.258 398.028C225.564 399.403 224.622 401.692 224.427 404.897C224.427 409.213 225.63 412.976 228.04 416.18C230.447 418.993 233.181 421.708 236.242 424.323L236.632 424.813L237.022 425.011C238.063 426.057 238.879 426.843 239.464 427.364C240.244 427.953 241.091 428.705 242.003 429.621C242.261 429.884 242.458 430.145 242.589 430.407C242.914 430.407 243.206 430.537 243.468 430.797C244.249 431.583 244.964 432.336 245.616 433.056C246.266 433.515 247.015 434.233 247.861 435.213C250.66 437.961 253.393 442.049 256.063 447.477C258.407 452.645 259.579 460.887 259.579 472.201V472.007Z" fill="#406EB9"/>
<path d="M299.625 396.067C299.1 396.067 298.576 396.395 298.052 397.048C298.052 397.115 297.922 397.833 297.661 399.207V411.469V436.587V461.508V473.772C297.661 474.819 297.857 475.636 298.25 476.225C298.641 476.617 299.1 476.813 299.625 476.813H300.116H300.51H302.276H304.142C306.956 476.813 309.413 476.063 311.507 474.557C313.602 473.315 314.748 470.24 314.943 465.335V455.129V435.017V417.161V405.683C314.943 401.561 313.993 398.945 312.096 397.833C310.46 396.721 308.461 396.067 306.106 395.871H305.713H305.517C304.992 395.871 304.436 395.936 303.848 396.067H302.276C301.752 396.067 301.294 396.132 300.901 396.263H299.625V396.067ZM271.296 361.237C271.296 360.517 271.556 359.799 272.078 359.077C272.533 358.752 273.543 358.489 275.104 358.295H282.038H295.22H308.011H315.237C322.397 358.295 327.279 360.353 329.884 364.475C332.291 368.595 333.496 374.481 333.496 382.135V401.855V436.195V472.791V490.844C333.496 492.217 333.431 493.361 333.302 494.277C333.302 495.912 333.206 497.123 333.012 497.907C332.623 502.16 331.1 505.987 328.446 509.387C326.178 512.525 321.679 514.193 314.943 514.391H306.724H295.665H281.67H274.231C273.383 514.391 272.665 514.193 272.079 513.801C271.687 513.408 271.491 512.659 271.491 511.545V506.149V495.259V484.663V479.071C271.491 477.893 271.882 477.205 272.664 477.009C273.184 476.879 273.655 476.797 274.08 476.764C274.502 476.732 274.973 476.684 275.495 476.617C276.668 476.617 277.578 476.487 278.23 476.225C279.075 476.028 279.499 475.211 279.499 473.772V461.704V436.391V411.077V398.813C279.499 397.507 279.075 396.656 278.23 396.263C277.448 395.871 276.536 395.675 275.495 395.675H275.3H275.104H274.616C273.574 395.675 272.793 395.544 272.273 395.283C271.816 395.02 271.491 394.268 271.296 393.025V387.237V377.327V367.124V361.433V361.237Z" fill="#406EB9"/>
<path d="M385.64 434.821L379.488 400.875L373.429 434.821H385.64ZM348.548 476.42L361.184 395.871H355.603V358.097C357.235 358.097 359.715 358.163 363.046 358.295H379.466H385.038H390.802H399.405H403.021V396.067H397.651L410.052 476.42H415.227V514.391H384.079V476.028H392.866L388.472 454.739H370.686L366.866 476.813H375.095V514.391H343.945V476.42H348.548Z" fill="#406EB9"/>
<path d="M428.995 362.316C428.995 361.009 429.256 359.995 429.779 359.275C430.235 358.817 431.313 358.489 433.011 358.295H437.418H444.863H451.816H456.421C457.923 358.295 458.934 358.621 459.457 359.275C459.914 359.733 460.24 360.812 460.438 362.513V367.908V377.131V386.549V391.848C460.438 393.091 460.11 394.137 459.461 394.988C459.005 395.512 457.93 395.871 456.239 396.067H453.699H453.504V476.617C453.894 476.617 454.61 476.684 455.653 476.813H460.241H464.05H466.687C467.597 476.813 468.313 476.553 468.835 476.028C469.16 475.701 469.42 474.949 469.617 473.772V469.16V460.527V452.088V447.281C469.617 445.973 469.826 445.108 470.251 444.683C470.673 444.256 471.472 444.044 472.642 444.044H475.084H478.892H482.212H484.849C486.085 444.044 486.899 444.24 487.289 444.632C487.68 444.829 487.876 445.712 487.876 447.281V457.976V478.873V499.673V510.368C487.876 512.004 487.55 513.083 486.898 513.605C486.57 513.933 485.559 514.193 483.866 514.391H475.063H458.435H441.613H433.005C431.7 514.391 430.691 514.129 429.974 513.605C429.515 513.345 429.191 512.331 428.995 510.564V504.971V495.259V485.448V479.855C428.995 478.547 429.255 477.731 429.776 477.403C430.168 477.009 430.883 476.813 431.925 476.813H433.975H434.951V396.067V396.263H434.756H432.803C431.436 396.263 430.426 395.936 429.776 395.283C429.45 394.563 429.191 393.484 428.995 392.044V386.844V377.131V367.908V362.513V362.316Z" fill="#406EB9"/>
<path d="M497.64 362.12C497.64 360.943 497.9 359.995 498.422 359.275C498.876 358.817 500.015 358.489 501.839 358.295H510.627H527.227H543.826H552.615C554.112 358.295 555.12 358.556 555.642 359.077C556.097 359.407 556.423 360.125 556.618 361.237V370.557V388.805V406.859V416.376C556.618 417.815 556.292 418.863 555.642 419.516C555.315 420.04 554.307 420.399 552.615 420.595H550.076H547.636H544.803H542.461C540.961 420.595 539.888 420.237 539.237 419.516C538.911 419.059 538.651 418.012 538.457 416.376V412.943V407.741V402.64V399.207C538.457 397.899 538.261 397.048 537.871 396.656C537.675 396.263 536.797 396.067 535.234 396.067H530.84H525.86H524.883H524.005C522.702 396.067 521.856 396.199 521.466 396.46C521.075 396.656 520.88 397.115 520.88 397.833V398.421V399.207V404.112V412.745V420.595V425.599C520.88 427.168 521.01 428.085 521.271 428.347C521.335 428.477 521.921 428.64 523.028 428.836H526.25H531.622H535.234H538.457C539.758 428.836 540.766 429.032 541.484 429.425C541.938 429.753 542.264 430.472 542.461 431.583V434.821V438.452V439.237V440.02C542.461 441.395 542.134 442.409 541.484 443.063C541.223 443.52 540.214 443.848 538.457 444.044H535.234H531.23H527.227H524.005C522.572 444.044 521.661 444.176 521.271 444.436C521.205 444.503 521.075 445.452 520.88 447.281V452.285V460.133V467.983V472.791C520.88 474.296 521.01 475.309 521.271 475.832C521.4 476.291 521.986 476.617 523.028 476.813H525.86H529.863H533.477H536.211C537.187 476.813 537.871 476.617 538.261 476.225C538.391 475.964 538.457 475.407 538.457 474.557V474.164V473.575V473.184V472.595V469.356V463.764V458.76V455.327C538.457 453.889 538.716 453.007 539.237 452.679C539.301 452.613 540.051 452.481 541.484 452.285H544.023H548.026H551.053H553.69C555.056 452.285 555.902 452.548 556.228 453.071L556.618 455.327V464.549V483.092V501.145V510.564C556.618 512.069 556.292 513.083 555.642 513.605C555.315 513.933 554.307 514.193 552.615 514.391H543.826H527.227H510.432H501.839C500.277 514.391 499.137 514.129 498.422 513.605C498.095 513.148 497.835 512.133 497.64 510.564V504.776V494.277V485.055V478.873C497.64 477.696 497.9 476.945 498.422 476.617C498.68 476.356 499.3 476.095 500.277 475.832C500.862 475.832 501.449 475.636 502.034 475.243C502.359 474.916 502.62 474.1 502.815 472.791V459.741V435.409V411.077V398.028C502.815 396.788 502.554 396.003 502.034 395.675C501.904 395.611 501.317 395.38 500.277 394.988C499.625 394.988 499.007 394.792 498.422 394.399C498.095 394.073 497.835 393.221 497.64 391.848V385.961V377.327V367.908V362.316V362.12Z" fill="#406EB9"/>
<path d="M631.221 441.885C630.829 441.885 630.308 442.213 629.658 442.867C629.267 443.259 628.974 443.979 628.779 445.024V450.323V459.349V468.768V473.772C628.779 474.557 629.006 475.309 629.462 476.028C629.721 476.291 630.113 476.553 630.634 476.813H631.024H631.221H631.416H632.392H636.396C640.496 476.813 643.294 475.343 644.793 472.399C646.095 469.717 646.843 464.485 647.04 456.7C647.04 451.795 646.16 448.328 644.402 446.3C642.905 444.339 641.048 443.063 638.836 442.473C638.315 442.473 637.763 442.409 637.176 442.277C636.655 442.277 636.135 442.213 635.614 442.081H634.833H634.052H632.783H631.221V441.885ZM631.221 395.871C630.439 395.871 629.854 396.263 629.462 397.048C629.006 397.573 628.779 398.389 628.779 399.501V399.696V399.893V404.112V410.881V418.141V422.165C628.779 423.212 628.941 424.095 629.267 424.813C629.592 425.272 630.244 425.599 631.221 425.795H632.392H634.052H635.223H636.591C637.306 425.795 637.99 425.665 638.641 425.403C639.682 424.88 640.463 424.323 640.985 423.735C642.352 422.688 643.685 420.956 644.988 418.535C646.224 416.245 646.843 413.237 646.843 409.508C646.843 405.716 646.16 402.903 644.793 401.071C643.621 399.044 642.221 397.636 640.593 396.851C639.813 396.591 639.161 396.395 638.641 396.263C638.12 396.263 637.568 396.199 636.981 396.067H634.248H632.587H631.806H631.221V395.871ZM602.609 361.728C602.609 360.616 602.869 359.799 603.391 359.275C603.782 358.883 604.79 358.556 606.418 358.295H613.84H627.217H640.399H647.82C653.289 358.295 657.487 360.419 660.417 364.671C663.149 368.728 664.616 374.024 664.81 380.565V389.396V400.679V416.573V424.617V424.813C664.81 426.384 664.289 427.725 663.249 428.836C662.401 429.425 661.261 430.145 659.831 430.995C658.918 431.453 657.779 431.911 656.412 432.368C655.437 432.565 654.914 432.729 654.85 432.859C655.111 432.859 655.631 432.991 656.412 433.251C657.649 433.251 658.854 433.579 660.026 434.233C661.002 434.691 662.141 435.541 663.443 436.784C664.289 437.7 664.81 439.107 665.006 441.003V450.911V466.609V484.073V493.1C665.006 500.033 663.737 505.332 661.197 508.995C658.854 512.592 654.329 514.391 647.625 514.391H639.813H627.607H614.425H607.004C605.638 514.391 604.498 514.193 603.586 513.801C603.26 513.475 603.001 512.396 602.806 510.564V504.776V494.865V484.663V479.071C602.806 477.828 603.196 477.009 603.978 476.617C604.626 476.487 605.132 476.407 605.49 476.372C605.847 476.34 606.286 476.291 606.808 476.225H607.004C608.11 476.225 608.988 476.095 609.641 475.832C610.421 475.636 610.812 474.949 610.812 473.772V461.704V436.587V411.469V399.501C610.812 397.8 610.485 396.788 609.836 396.46C609.25 396.067 608.435 395.871 607.395 395.871H606.808H606.418H605.831H605.246C604.269 395.871 603.586 395.74 603.196 395.477C602.806 395.02 602.609 394.203 602.609 393.025V392.829V387.237V377.327V367.516V361.923V361.728Z" fill="#406EB9"/>
<path d="M719.59 465.335V396.067H715.195C714.673 396.067 714.219 396.003 713.829 395.871C713.439 395.675 713.242 395.053 713.242 394.007V388.611V378.112V368.105V362.513C713.242 361.271 713.439 360.256 713.829 359.471C714.154 359.015 714.61 358.685 715.195 358.489H719.199H727.01H734.822H738.827C739.345 358.489 739.802 358.883 740.193 359.667C740.193 359.733 740.323 360.683 740.584 362.513V368.105V378.112V388.611V394.007C740.584 394.727 740.387 395.283 739.997 395.675C739.802 395.74 739.621 395.789 739.46 395.821C739.296 395.855 739.02 395.936 738.63 396.067H738.24H737.849H737.654H736.189H735.798V477.009C735.798 489.7 733.195 499.151 727.988 505.364C722.778 511.383 717.051 514.391 710.802 514.391H710.215H709.63C703.575 514.193 697.913 510.857 692.639 504.383C687.429 497.844 684.827 488.391 684.827 476.028V462.391V436.195V408.724V396.067H684.046H682.386H681.41H680.629C680.107 396.067 679.652 395.953 679.262 395.724C678.872 395.495 678.677 394.856 678.677 393.809V391.259V385.569V381.939V377.916V367.908V362.316C678.677 361.073 678.872 360.06 679.262 359.275C679.587 358.817 680.043 358.489 680.629 358.295H685.024H693.421H702.013H706.407C706.862 358.295 707.35 358.685 707.872 359.471C707.872 359.536 708.002 360.485 708.262 362.316V367.908V378.112V388.611V394.007C708.262 394.727 708.067 395.283 707.677 395.675C707.092 395.675 706.602 395.74 706.213 395.871H705.822H705.431H705.235H703.673H702.99V465.335C702.99 469.259 703.868 472.201 705.627 474.164C707.123 475.931 709.044 476.813 711.387 476.813H711.68H712.072C713.697 476.813 715.422 475.8 717.246 473.772C718.809 471.809 719.59 469.063 719.59 465.531V465.335Z" fill="#406EB9"/>
<path d="M806.592 472.007V473.772C806.592 484.957 805.679 494.408 803.857 502.127C802.23 510.107 795.948 514.193 785.011 514.391C781.756 514.391 779.314 513.933 777.689 513.017C776.322 512.297 774.987 511.285 773.684 509.975C773.359 509.583 772.936 508.995 772.415 508.209C772.285 507.621 772.025 507.067 771.634 506.541L771.049 507.719C770.722 508.765 770.397 509.583 770.072 510.172L769.877 510.368V510.564C769.746 510.892 769.568 511.219 769.339 511.545C769.111 511.873 768.866 512.297 768.607 512.82C768.476 513.213 768.281 513.541 768.022 513.801H766.068H762.26H759.038H756.89C755.651 513.801 754.644 513.605 753.863 513.213C753.406 512.953 753.082 511.741 752.886 509.583V501.341V486.428V471.221V463.176C752.886 461.801 753.016 460.985 753.276 460.723C753.601 460.397 754.448 460.133 755.815 459.939H758.256H761.48H763.627H765.872C767.175 459.939 768.022 460.331 768.413 461.116C768.803 461.704 768.998 463.372 768.998 466.12C768.998 469.783 769.877 472.399 771.634 473.968C773.456 475.604 775.474 476.42 777.689 476.42H778.079H778.664C780.746 476.225 782.669 475.277 784.426 473.575C786.118 472.137 787.061 469.881 787.258 466.805C787.258 461.901 786.313 458.139 784.426 455.523C782.928 452.843 781.009 450.553 778.664 448.655C778.014 448.197 777.313 447.74 776.565 447.281C775.817 446.824 775.116 446.365 774.466 445.907C772.382 444.469 771.307 443.717 771.244 443.651C766.297 439.596 762.358 435.704 759.428 431.976C756.825 428.247 754.969 424.781 753.863 421.576C753.473 420.073 752.919 416.999 752.203 412.353C752.203 407.907 752.138 404.472 752.008 402.052V399.893V397.44V397.048V396.46V393.221V389.788C752.008 382.2 753.211 374.972 755.621 368.105C757.833 361.761 763.433 358.489 772.415 358.295C775.994 358.295 778.861 358.685 781.009 359.471C782.961 360.191 784.426 361.009 785.403 361.923C786.053 362.513 786.606 363.363 787.061 364.475C787.061 365.259 787.126 365.652 787.258 365.652C787.193 365.652 787.258 365.325 787.453 364.671C787.453 363.885 787.632 363.119 787.989 362.365C788.347 361.615 788.82 360.845 789.406 360.06C790.055 359.275 790.935 358.883 792.042 358.883H794.873H798.194H800.049H801.807C803.694 358.883 804.899 359.144 805.419 359.667C805.744 359.995 806.006 361.009 806.201 362.708V370.753V385.569V400.481V408.527C806.201 409.901 806.006 410.881 805.615 411.469C805.484 411.863 804.346 412.157 802.198 412.353H797.413H793.995H793.605H793.408H793.02H792.628C791.848 412.353 791.196 411.863 790.675 410.881C790.415 410.293 790.121 408.103 789.796 404.308C789.796 401.561 788.95 399.485 787.258 398.077C785.563 396.672 783.611 395.871 781.399 395.675H781.009H780.813C778.404 395.675 776.224 396.46 774.272 398.028C772.577 399.403 771.634 401.692 771.439 404.897C771.439 409.213 772.642 412.976 775.051 416.18C777.459 418.993 780.193 421.708 783.254 424.323L783.644 424.813L784.036 425.011C785.076 426.057 785.89 426.843 786.476 427.364C787.258 427.953 788.102 428.705 789.015 429.621C789.275 429.884 789.47 430.145 789.601 430.407C789.925 430.407 790.218 430.537 790.48 430.797C791.261 431.583 791.977 432.336 792.628 433.056C793.278 433.515 794.027 434.233 794.873 435.213C797.672 437.961 800.407 442.049 803.077 447.477C805.419 452.645 806.592 460.887 806.592 472.201V472.007Z" fill="#406EB9"/>
<path d="M853.951 362.316C853.951 361.009 854.211 359.995 854.734 359.275C855.191 358.817 856.268 358.489 857.965 358.295H862.374H869.818H876.772H881.376C882.877 358.295 883.89 358.621 884.414 359.275C884.869 359.733 885.195 360.812 885.392 362.513V367.908V377.131V386.549V391.848C885.392 393.091 885.065 394.137 884.416 394.988C883.96 395.512 882.885 395.871 881.193 396.067H878.655H878.46V476.617C878.85 476.617 879.565 476.684 880.607 476.813H885.197H889.005H891.642C892.552 476.813 893.268 476.553 893.79 476.028C894.114 475.701 894.376 474.949 894.571 473.772V469.16V460.527V452.088V447.281C894.571 445.973 894.782 445.108 895.205 444.683C895.628 444.256 896.426 444.044 897.597 444.044H900.039H903.848H907.168H909.803C911.04 444.044 911.853 444.24 912.245 444.632C912.635 444.829 912.831 445.712 912.831 447.281V457.976V478.873V499.673V510.368C912.831 512.004 912.505 513.083 911.852 513.605C911.526 513.933 910.514 514.193 908.821 514.391H900.017H883.391H866.567H857.96C856.656 514.391 855.646 514.129 854.928 513.605C854.47 513.345 854.145 512.331 853.951 510.564V504.971V495.259V485.448V479.855C853.951 478.547 854.21 477.731 854.73 477.403C855.122 477.009 855.837 476.813 856.88 476.813H858.929H859.907V396.067V396.263H859.71H857.758C856.39 396.263 855.382 395.936 854.73 395.283C854.404 394.563 854.145 393.484 853.951 392.044V386.844V377.131V367.908V362.513V362.316Z" fill="#406EB9"/>
<path d="M947.203 395.871V476.617L947.007 476.813H946.618H948.179C949.938 476.813 951.01 476.945 951.402 477.205C951.857 477.337 952.183 478.221 952.377 479.855V485.643V495.259V504.971V510.564C952.377 512.069 952.051 513.083 951.402 513.605C950.879 513.933 949.742 514.193 947.985 514.391H943.98H937.633H930.994H926.99C925.622 514.391 924.484 514.193 923.572 513.801C923.246 513.475 922.987 512.396 922.791 510.564V504.971V495.259V485.448V479.855C922.791 478.94 923.182 478.187 923.962 477.599C924.549 477.337 925.362 477.075 926.404 476.813H926.6H926.99H927.967V395.871V396.067H928.357H928.846H926.99C925.429 396.067 924.287 395.708 923.572 394.988C923.246 394.531 922.987 393.484 922.791 391.848V386.353V376.935V367.908V362.316C922.791 360.812 923.036 359.813 923.523 359.324C924.011 358.833 925.167 358.489 926.99 358.295H930.994H937.633H943.98H948.179C949.805 358.295 950.879 358.621 951.402 359.275C951.857 359.603 952.183 360.616 952.377 362.316V367.908V376.935V386.353V391.848C952.377 393.157 952.183 394.203 951.792 394.988C951.661 395.512 950.879 395.871 949.448 396.067H947.203V395.871Z" fill="#406EB9"/>
<path d="M1011.26 392.829V362.316C1011.26 360.943 1011.39 359.995 1011.65 359.471C1012.04 358.685 1013.05 358.295 1014.68 358.295H1018.68H1024.83H1030.88H1034.89C1036.32 358.295 1037.36 358.621 1038.01 359.275C1038.53 359.536 1038.89 360.551 1039.09 362.316V367.908V377.523V387.628V393.025C1039.09 394.073 1038.89 394.956 1038.5 395.675C1038.44 395.675 1037.56 395.805 1035.86 396.067H1033.23H1032.45V510.564C1032.45 512.2 1032.19 513.279 1031.67 513.801C1031.27 514.193 1030.33 514.391 1028.84 514.391H1026.29H1022.88H1019.07H1016.43H1016.04C1014.87 514.391 1014.02 514.327 1013.5 514.193C1013.05 514.193 1012.63 513.605 1012.24 512.428L985.09 396.067V476.617C985.219 476.617 985.414 476.684 985.675 476.813H988.019C989.254 476.813 990.134 477.075 990.656 477.599C991.046 477.991 991.241 478.809 991.241 480.051V485.643V495.455V505.168V510.76C991.241 512.2 991.046 513.213 990.656 513.801C990.46 514.193 989.582 514.391 988.019 514.391H983.624H977.083H970.246H966.048C965.136 514.391 964.486 514.26 964.094 513.999C964.031 513.933 963.901 513.475 963.706 512.625V511.349V509.78V504.187V494.473V484.663V479.071V477.991V477.403V477.009L964.094 476.813H964.876H965.854H968.294H968.684V396.067V396.263H969.075H969.271H967.708C966.341 396.263 965.331 395.936 964.681 395.283C964.224 394.628 963.901 393.484 963.706 391.848V386.157V376.739V367.124V361.433C963.706 360.06 963.964 359.211 964.486 358.883C965.072 358.489 966.048 358.295 967.415 358.295H972.493H981.867H982.257H982.844C987.009 358.295 990.069 358.359 992.021 358.489H996.221L1016.04 452.481V395.871C1015.78 395.871 1015.46 395.936 1015.07 396.067C1014.81 396.067 1014.48 396.003 1014.09 395.871C1013.37 395.871 1012.69 395.576 1012.04 394.988C1011.71 394.661 1011.45 394.007 1011.26 393.025V392.829Z" fill="#406EB9"/>
<path d="M1049.05 362.12C1049.05 360.943 1049.31 359.995 1049.83 359.275C1050.28 358.817 1051.42 358.489 1053.25 358.295H1062.03H1078.63H1095.23H1104.02C1105.52 358.295 1106.53 358.556 1107.05 359.077C1107.5 359.407 1107.83 360.125 1108.02 361.237V370.557V388.805V406.859V416.376C1108.02 417.815 1107.7 418.863 1107.05 419.516C1106.72 420.04 1105.71 420.399 1104.02 420.595H1101.48H1099.04H1096.21H1093.87C1092.37 420.595 1091.29 420.237 1090.64 419.516C1090.32 419.059 1090.06 418.012 1089.86 416.376V412.943V407.741V402.64V399.207C1089.86 397.899 1089.67 397.048 1089.28 396.656C1089.08 396.263 1088.2 396.067 1086.64 396.067H1082.25H1077.27H1076.29H1075.41C1074.11 396.067 1073.26 396.199 1072.87 396.46C1072.48 396.656 1072.29 397.115 1072.29 397.833V398.421V399.207V404.112V412.745V420.595V425.599C1072.29 427.168 1072.42 428.085 1072.68 428.347C1072.74 428.477 1073.33 428.64 1074.44 428.836H1077.66H1083.03H1086.64H1089.86C1091.16 428.836 1092.17 429.032 1092.89 429.425C1093.34 429.753 1093.67 430.472 1093.87 431.583V434.821V438.452V439.237V440.02C1093.87 441.395 1093.54 442.409 1092.89 443.063C1092.63 443.52 1091.62 443.848 1089.86 444.044H1086.64H1082.64H1078.63H1075.41C1073.98 444.044 1073.07 444.176 1072.68 444.436C1072.61 444.503 1072.48 445.452 1072.29 447.281V452.285V460.133V467.983V472.791C1072.29 474.296 1072.42 475.309 1072.68 475.832C1072.81 476.291 1073.39 476.617 1074.44 476.813H1077.27H1081.27H1084.88H1087.62C1088.59 476.813 1089.28 476.617 1089.67 476.225C1089.8 475.964 1089.86 475.407 1089.86 474.557V474.164V473.575V473.184V472.595V469.356V463.764V458.76V455.327C1089.86 453.889 1090.12 453.007 1090.64 452.679C1090.71 452.613 1091.46 452.481 1092.89 452.285H1095.43H1099.43H1102.46H1105.1C1106.46 452.285 1107.31 452.548 1107.63 453.071L1108.02 455.327V464.549V483.092V501.145V510.564C1108.02 512.069 1107.7 513.083 1107.05 513.605C1106.72 513.933 1105.71 514.193 1104.02 514.391H1095.23H1078.63H1061.84H1053.25C1051.68 514.391 1050.54 514.129 1049.83 513.605C1049.5 513.148 1049.24 512.133 1049.05 510.564V504.776V494.277V485.055V478.873C1049.05 477.696 1049.31 476.945 1049.83 476.617C1050.09 476.356 1050.71 476.095 1051.68 475.832C1052.27 475.832 1052.85 475.636 1053.44 475.243C1053.77 474.916 1054.03 474.1 1054.22 472.791V459.741V435.409V411.077V398.028C1054.22 396.788 1053.96 396.003 1053.44 395.675C1053.31 395.611 1052.72 395.38 1051.68 394.988C1051.03 394.988 1050.41 394.792 1049.83 394.399C1049.5 394.073 1049.24 393.221 1049.05 391.848V385.961V377.327V367.908V362.316V362.12Z" fill="#406EB9"/>
<path d="M1174.23 472.007V473.772C1174.23 484.957 1173.32 494.408 1171.5 502.127C1169.87 510.107 1163.59 514.193 1152.65 514.391C1149.39 514.391 1146.95 513.933 1145.33 513.017C1143.96 512.297 1142.63 511.285 1141.32 509.975C1141 509.583 1140.57 508.995 1140.05 508.209C1139.92 507.621 1139.66 507.067 1139.27 506.541L1138.69 507.719C1138.36 508.765 1138.04 509.583 1137.71 510.172L1137.52 510.368V510.564C1137.38 510.892 1137.21 511.219 1136.98 511.545C1136.75 511.873 1136.5 512.297 1136.25 512.82C1136.11 513.213 1135.92 513.541 1135.66 513.801H1133.71H1129.9H1126.68H1124.53C1123.29 513.801 1122.28 513.605 1121.5 513.213C1121.04 512.953 1120.72 511.741 1120.52 509.583V501.341V486.428V471.221V463.176C1120.52 461.801 1120.65 460.985 1120.91 460.723C1121.24 460.397 1122.09 460.133 1123.45 459.939H1125.89H1129.12H1131.27H1133.51C1134.81 459.939 1135.66 460.331 1136.05 461.116C1136.44 461.704 1136.64 463.372 1136.64 466.12C1136.64 469.783 1137.52 472.399 1139.27 473.968C1141.09 475.604 1143.11 476.42 1145.33 476.42H1145.72H1146.3C1148.38 476.225 1150.31 475.277 1152.06 473.575C1153.76 472.137 1154.7 469.881 1154.9 466.805C1154.9 461.901 1153.95 458.139 1152.06 455.523C1150.57 452.843 1148.65 450.553 1146.3 448.655C1145.65 448.197 1144.95 447.74 1144.2 447.281C1143.45 446.824 1142.75 446.365 1142.1 445.907C1140.02 444.469 1138.95 443.717 1138.88 443.651C1133.94 439.596 1130 435.704 1127.07 431.976C1124.46 428.247 1122.61 424.781 1121.5 421.576C1121.11 420.073 1120.56 416.999 1119.84 412.353C1119.84 407.907 1119.78 404.472 1119.65 402.052V399.893V397.44V397.048V396.46V393.221V389.788C1119.65 382.2 1120.85 374.972 1123.26 368.105C1125.47 361.761 1131.07 358.489 1140.05 358.295C1143.63 358.295 1146.5 358.685 1148.65 359.471C1150.6 360.191 1152.06 361.009 1153.04 361.923C1153.69 362.513 1154.24 363.363 1154.7 364.475C1154.7 365.259 1154.76 365.652 1154.9 365.652C1154.83 365.652 1154.9 365.325 1155.09 364.671C1155.09 363.885 1155.27 363.119 1155.63 362.365C1155.99 361.615 1156.46 360.845 1157.04 360.06C1157.69 359.275 1158.57 358.883 1159.68 358.883H1162.51H1165.83H1167.69H1169.44C1171.33 358.883 1172.54 359.144 1173.06 359.667C1173.38 359.995 1173.64 361.009 1173.84 362.708V370.753V385.569V400.481V408.527C1173.84 409.901 1173.64 410.881 1173.25 411.469C1173.12 411.863 1171.98 412.157 1169.84 412.353H1165.05H1161.63H1161.24H1161.05H1160.66H1160.27C1159.49 412.353 1158.83 411.863 1158.31 410.881C1158.05 410.293 1157.76 408.103 1157.43 404.308C1157.43 401.561 1156.59 399.485 1154.9 398.077C1153.2 396.672 1151.25 395.871 1149.04 395.675H1148.65H1148.45C1146.04 395.675 1143.86 396.46 1141.91 398.028C1140.22 399.403 1139.27 401.692 1139.08 404.897C1139.08 409.213 1140.28 412.976 1142.69 416.18C1145.1 418.993 1147.83 421.708 1150.89 424.323L1151.28 424.813L1151.67 425.011C1152.71 426.057 1153.53 426.843 1154.11 427.364C1154.9 427.953 1155.74 428.705 1156.65 429.621C1156.91 429.884 1157.11 430.145 1157.24 430.407C1157.56 430.407 1157.86 430.537 1158.12 430.797C1158.9 431.583 1159.62 432.336 1160.27 433.056C1160.92 433.515 1161.67 434.233 1162.51 435.213C1165.31 437.961 1168.05 442.049 1170.72 447.477C1173.06 452.645 1174.23 460.887 1174.23 472.201V472.007Z" fill="#406EB9"/>
<path d="M80.1942 351.711C80.1942 350.533 80.4543 349.587 80.9758 348.865C81.561 348.54 82.6359 348.276 84.1978 348.081H94.2551H112.221H130.579H140.442C141.809 348.081 142.946 348.473 143.859 349.259C144.185 349.781 144.446 350.729 144.641 352.104V360.737V377.22V393.703V402.141C144.641 403.449 144.446 404.299 144.054 404.692L141.418 405.084H139.661H138.001H136.047H134.387C133.411 405.084 132.63 404.887 132.044 404.495C131.717 404.168 131.459 403.319 131.264 401.944V399.295V395.664V392.428V389.877C131.264 388.503 130.839 387.491 129.994 386.835C129.472 386.575 129.049 386.379 128.725 386.247C128.397 386.116 128.04 385.987 127.65 385.853H127.26H127.065H125.99H125.013H122.573H121.596V399.688V426.177V453.944V466.601H122.182H123.842H124.233C124.753 466.601 125.21 466.732 125.6 466.993C125.99 467.189 126.185 467.745 126.185 468.66V471.408V476.804V480.631V484.457V494.759V500.351C126.185 501.595 125.99 502.607 125.6 503.392C125.405 503.72 124.948 503.981 124.233 504.177H120.033H112.418H104.606H100.407C99.9505 504.177 99.5604 503.851 99.2353 503.196C99.2353 503.263 99.1039 502.313 98.8438 500.351V494.759V484.457V474.056V468.367C98.8438 467.844 98.9752 467.451 99.2353 467.189C99.2989 467.124 99.6254 466.993 100.212 466.796H100.407H100.602H101.189H101.774H103.239H103.824V385.853C103.564 385.853 103.044 385.92 102.262 386.049H98.0635C96.1752 386.049 94.9703 386.379 94.4501 387.032C94.06 387.62 93.8649 388.568 93.8649 389.877V392.624V396.449V400.668V403.319C93.8649 403.776 93.5716 404.168 92.9851 404.495C92.595 404.692 92.0098 404.887 91.2282 405.084H90.4466H89.8614H89.178H88.5914H86.8345H84.3928C82.961 405.084 81.918 405.02 81.2678 404.887C80.7463 404.757 80.3893 404.168 80.1942 403.121V394.684V377.416V360.737V351.907V351.711Z" fill="white"/>
<path d="M80.1942 351.711C80.1942 350.533 80.4543 349.587 80.9758 348.865C81.561 348.54 82.6359 348.276 84.1978 348.081H94.2551H112.221H130.579H140.442C141.809 348.081 142.946 348.473 143.859 349.259C144.185 349.781 144.446 350.729 144.641 352.104V360.737V377.22V393.703V402.141C144.641 403.449 144.446 404.299 144.054 404.692L141.418 405.084H139.661H138.001H136.047H134.387C133.411 405.084 132.63 404.887 132.044 404.495C131.717 404.168 131.459 403.319 131.264 401.944V399.295V395.664V392.428V389.877C131.264 388.503 130.839 387.491 129.994 386.835C129.472 386.575 129.049 386.379 128.725 386.247C128.397 386.116 128.04 385.987 127.65 385.853H127.26H127.065H125.99H125.013H122.573H121.596V399.688V426.177V453.944V466.601H122.182H123.842H124.233C124.753 466.601 125.21 466.732 125.6 466.993C125.99 467.189 126.185 467.745 126.185 468.66V471.408V476.804V480.631V484.457V494.759V500.351C126.185 501.595 125.99 502.607 125.6 503.392C125.405 503.72 124.948 503.981 124.233 504.177H120.033H112.418H104.606H100.407C99.9505 504.177 99.5604 503.851 99.2353 503.196C99.2353 503.263 99.1039 502.313 98.8438 500.351V494.759V484.457V474.056V468.367C98.8438 467.844 98.9752 467.451 99.2353 467.189C99.2989 467.124 99.6254 466.993 100.212 466.796H100.407H100.602H101.189H101.774H103.239H103.824V385.853C103.564 385.853 103.044 385.92 102.262 386.049H98.0635C96.1752 386.049 94.9703 386.379 94.4501 387.032C94.06 387.62 93.8649 388.568 93.8649 389.877V392.624V396.449V400.668V403.319C93.8649 403.776 93.5716 404.168 92.9851 404.495C92.595 404.692 92.0098 404.887 91.2282 405.084H90.4466H89.8614H89.178H88.5914H86.8345H84.3928C82.961 405.084 81.918 405.02 81.2678 404.887C80.7463 404.757 80.3893 404.168 80.1942 403.121V394.684V377.416V360.737V351.907V351.711Z" stroke="#202751" stroke-width="4" stroke-miterlimit="10"/>
<path d="M178.818 385.659V466.404L178.621 466.601H178.231H179.793C181.551 466.601 182.625 466.732 183.016 466.993C183.47 467.124 183.797 468.008 183.992 469.643V475.431V485.047V494.759V500.351C183.992 501.856 183.665 502.871 183.016 503.392C182.494 503.72 181.356 503.981 179.598 504.177H175.594H169.247H162.607H158.604C157.237 504.177 156.097 503.981 155.187 503.589C154.86 503.263 154.601 502.183 154.405 500.351V494.759V485.047V475.235V469.643C154.405 468.727 154.797 467.975 155.577 467.385C156.163 467.124 156.977 466.863 158.018 466.601H158.214H158.604H159.58V385.659V385.853H159.97H160.46H158.604C157.042 385.853 155.902 385.495 155.187 384.775C154.86 384.319 154.601 383.271 154.405 381.635V376.141V366.721V357.696V352.104C154.405 350.6 154.649 349.601 155.138 349.111C155.626 348.62 156.782 348.276 158.604 348.081H162.607H169.247H175.594H179.793C181.42 348.081 182.494 348.408 183.016 349.061C183.47 349.389 183.797 350.403 183.992 352.104V357.696V366.721V376.141V381.635C183.992 382.944 183.797 383.991 183.407 384.775C183.275 385.299 182.494 385.659 181.063 385.853H178.818V385.659Z" fill="white"/>
<path d="M178.818 385.659V466.404L178.621 466.601H178.231H179.793C181.551 466.601 182.625 466.732 183.016 466.993C183.47 467.124 183.797 468.008 183.992 469.643V475.431V485.047V494.759V500.351C183.992 501.856 183.665 502.871 183.016 503.392C182.494 503.72 181.356 503.981 179.598 504.177H175.594H169.247H162.607H158.604C157.237 504.177 156.097 503.981 155.187 503.589C154.86 503.263 154.601 502.183 154.405 500.351V494.759V485.047V475.235V469.643C154.405 468.727 154.797 467.975 155.577 467.385C156.163 467.124 156.977 466.863 158.018 466.601H158.214H158.604H159.58V385.659V385.853H159.97H160.46H158.604C157.042 385.853 155.902 385.495 155.187 384.775C154.86 384.319 154.601 383.271 154.405 381.635V376.141V366.721V357.696V352.104C154.405 350.6 154.649 349.601 155.138 349.111C155.626 348.62 156.782 348.276 158.604 348.081H162.607H169.247H175.594H179.793C181.42 348.081 182.494 348.408 183.016 349.061C183.47 349.389 183.797 350.403 183.992 352.104V357.696V366.721V376.141V381.635C183.992 382.944 183.797 383.991 183.407 384.775C183.275 385.299 182.494 385.659 181.063 385.853H178.818V385.659Z" stroke="#202751" stroke-width="4" stroke-miterlimit="10"/>
<path d="M249.415 461.793V463.559C249.415 474.744 248.502 484.196 246.68 491.913C245.053 499.893 238.771 503.981 227.836 504.177C224.579 504.177 222.139 503.72 220.512 502.804C219.145 502.085 217.809 501.072 216.508 499.763C216.182 499.371 215.759 498.781 215.238 497.996C215.107 497.408 214.848 496.853 214.457 496.328L213.872 497.505C213.545 498.552 213.22 499.371 212.895 499.959L212.7 500.156V500.351C212.569 500.679 212.391 501.005 212.162 501.332C211.934 501.66 211.69 502.085 211.43 502.607C211.3 503 211.105 503.328 210.845 503.589H208.891H205.084H201.861H199.713C198.476 503.589 197.467 503.392 196.686 503C196.231 502.74 195.905 501.529 195.71 499.371V491.128V476.215V461.008V452.963C195.71 451.589 195.839 450.772 196.099 450.509C196.426 450.184 197.272 449.921 198.639 449.725H201.079H204.303H206.451H208.696C209.998 449.725 210.845 450.117 211.235 450.903C211.626 451.492 211.821 453.16 211.821 455.907C211.821 459.569 212.7 462.185 214.457 463.756C216.28 465.391 218.298 466.208 220.512 466.208H220.902H221.489C223.571 466.012 225.491 465.064 227.249 463.363C228.941 461.925 229.886 459.668 230.081 456.593C230.081 451.688 229.136 447.927 227.249 445.311C225.751 442.629 223.831 440.34 221.489 438.441C220.837 437.985 220.136 437.527 219.389 437.068C218.64 436.611 217.939 436.153 217.29 435.695C215.205 434.257 214.13 433.504 214.067 433.437C209.12 429.383 205.181 425.492 202.252 421.764C199.648 418.035 197.792 414.568 196.686 411.364C196.296 409.86 195.741 406.785 195.026 402.141C195.026 397.693 194.961 394.26 194.831 391.839V389.68V387.227V386.835V386.247V383.008V379.575C194.831 371.988 196.034 364.76 198.444 357.892C200.656 351.548 206.255 348.276 215.238 348.081C218.819 348.081 221.684 348.473 223.831 349.259C225.785 349.979 227.249 350.796 228.226 351.711C228.876 352.3 229.429 353.151 229.886 354.263C229.886 355.047 229.949 355.439 230.081 355.439C230.016 355.439 230.081 355.112 230.276 354.457C230.276 353.672 230.455 352.905 230.813 352.153C231.17 351.401 231.644 350.632 232.229 349.847C232.879 349.061 233.758 348.669 234.866 348.669H237.698H241.018H242.873H244.63C246.518 348.669 247.721 348.932 248.243 349.453C248.569 349.781 248.829 350.796 249.024 352.495V360.541V375.356V390.269V398.315C249.024 399.688 248.829 400.668 248.438 401.257C248.307 401.651 247.169 401.944 245.021 402.141H240.236H236.819H236.428H236.233H235.843H235.451C234.67 402.141 234.019 401.651 233.499 400.668C233.238 400.08 232.944 397.889 232.619 394.096C232.619 391.348 231.773 389.272 230.081 387.865C228.388 386.459 226.434 385.659 224.222 385.461H223.831H223.636C221.227 385.461 219.047 386.247 217.094 387.816C215.4 389.189 214.457 391.48 214.262 394.684C214.262 399 215.467 402.764 217.875 405.967C220.282 408.78 223.017 411.495 226.077 414.109L226.467 414.601L226.859 414.797C227.899 415.844 228.714 416.629 229.301 417.152C230.081 417.74 230.926 418.493 231.839 419.408C232.098 419.671 232.293 419.933 232.424 420.193C232.749 420.193 233.043 420.325 233.303 420.585C234.084 421.371 234.8 422.123 235.451 422.843C236.101 423.301 236.85 424.02 237.698 425C240.496 427.748 243.23 431.836 245.9 437.265C248.243 442.433 249.415 450.673 249.415 461.989V461.793Z" fill="white"/>
<path d="M249.415 461.793V463.559C249.415 474.744 248.502 484.196 246.68 491.913C245.053 499.893 238.771 503.981 227.836 504.177C224.579 504.177 222.139 503.72 220.512 502.804C219.145 502.085 217.809 501.072 216.508 499.763C216.182 499.371 215.759 498.781 215.238 497.996C215.107 497.408 214.848 496.853 214.457 496.328L213.872 497.505C213.545 498.552 213.22 499.371 212.895 499.959L212.7 500.156V500.351C212.569 500.679 212.391 501.005 212.162 501.332C211.934 501.66 211.69 502.085 211.43 502.607C211.3 503 211.105 503.328 210.845 503.589H208.891H205.084H201.861H199.713C198.476 503.589 197.467 503.392 196.686 503C196.231 502.74 195.905 501.529 195.71 499.371V491.128V476.215V461.008V452.963C195.71 451.589 195.839 450.772 196.099 450.509C196.426 450.184 197.272 449.921 198.639 449.725H201.079H204.303H206.451H208.696C209.998 449.725 210.845 450.117 211.235 450.903C211.626 451.492 211.821 453.16 211.821 455.907C211.821 459.569 212.7 462.185 214.457 463.756C216.28 465.391 218.298 466.208 220.512 466.208H220.902H221.489C223.571 466.012 225.491 465.064 227.249 463.363C228.941 461.925 229.886 459.668 230.081 456.593C230.081 451.688 229.136 447.927 227.249 445.311C225.751 442.629 223.831 440.34 221.489 438.441C220.837 437.985 220.136 437.527 219.389 437.068C218.64 436.611 217.939 436.153 217.29 435.695C215.205 434.257 214.13 433.504 214.067 433.437C209.12 429.383 205.181 425.492 202.252 421.764C199.648 418.035 197.792 414.568 196.686 411.364C196.296 409.86 195.741 406.785 195.026 402.141C195.026 397.693 194.961 394.26 194.831 391.839V389.68V387.227V386.835V386.247V383.008V379.575C194.831 371.988 196.034 364.76 198.444 357.892C200.656 351.548 206.255 348.276 215.238 348.081C218.819 348.081 221.684 348.473 223.831 349.259C225.785 349.979 227.249 350.796 228.226 351.711C228.876 352.3 229.429 353.151 229.886 354.263C229.886 355.047 229.949 355.439 230.081 355.439C230.016 355.439 230.081 355.112 230.276 354.457C230.276 353.672 230.455 352.905 230.813 352.153C231.17 351.401 231.644 350.632 232.229 349.847C232.879 349.061 233.758 348.669 234.866 348.669H237.698H241.018H242.873H244.63C246.518 348.669 247.721 348.932 248.243 349.453C248.569 349.781 248.829 350.796 249.024 352.495V360.541V375.356V390.269V398.315C249.024 399.688 248.829 400.668 248.438 401.257C248.307 401.651 247.169 401.944 245.021 402.141H240.236H236.819H236.428H236.233H235.843H235.451C234.67 402.141 234.019 401.651 233.499 400.668C233.238 400.08 232.944 397.889 232.619 394.096C232.619 391.348 231.773 389.272 230.081 387.865C228.388 386.459 226.434 385.659 224.222 385.461H223.831H223.636C221.227 385.461 219.047 386.247 217.094 387.816C215.4 389.189 214.457 391.48 214.262 394.684C214.262 399 215.467 402.764 217.875 405.967C220.282 408.78 223.017 411.495 226.077 414.109L226.467 414.601L226.859 414.797C227.899 415.844 228.714 416.629 229.301 417.152C230.081 417.74 230.926 418.493 231.839 419.408C232.098 419.671 232.293 419.933 232.424 420.193C232.749 420.193 233.043 420.325 233.303 420.585C234.084 421.371 234.8 422.123 235.451 422.843C236.101 423.301 236.85 424.02 237.698 425C240.496 427.748 243.23 431.836 245.9 437.265C248.243 442.433 249.415 450.673 249.415 461.989V461.793Z" stroke="#202751" stroke-width="4" stroke-miterlimit="10"/>
<path d="M289.46 385.853C288.936 385.853 288.412 386.181 287.889 386.835C287.889 386.901 287.757 387.62 287.496 388.993V401.257V426.375V451.295V463.559C287.496 464.605 287.692 465.424 288.085 466.012C288.478 466.404 288.936 466.601 289.46 466.601H289.952H290.345H292.113H293.978C296.793 466.601 299.248 465.849 301.343 464.344C303.437 463.103 304.584 460.027 304.78 455.121V444.917V424.805V406.948V395.469C304.78 391.348 303.83 388.732 301.931 387.62C300.295 386.508 298.298 385.853 295.942 385.659H295.549H295.353C294.828 385.659 294.272 385.723 293.684 385.853H292.113C291.587 385.853 291.129 385.92 290.738 386.049H289.46V385.853ZM261.133 351.024C261.133 350.305 261.391 349.587 261.914 348.865C262.368 348.54 263.378 348.276 264.94 348.081H271.873H285.056H297.848H305.073C312.234 348.081 317.116 350.141 319.721 354.263C322.128 358.381 323.333 364.269 323.333 371.923V391.643V425.983V462.577V480.631C323.333 482.004 323.268 483.149 323.139 484.064C323.139 485.7 323.042 486.909 322.848 487.695C322.458 491.947 320.936 495.773 318.281 499.173C316.014 502.313 311.515 503.981 304.78 504.177H296.559H285.501H271.506H264.068C263.22 504.177 262.501 503.981 261.915 503.589C261.523 503.196 261.328 502.445 261.328 501.332V495.937V485.047V474.449V468.857C261.328 467.68 261.718 466.993 262.499 466.796C263.02 466.665 263.491 466.585 263.915 466.551C264.337 466.519 264.81 466.471 265.331 466.404C266.503 466.404 267.413 466.273 268.065 466.012C268.91 465.816 269.335 464.997 269.335 463.559V451.492V426.177V400.865V388.601C269.335 387.293 268.91 386.443 268.065 386.049C267.285 385.659 266.372 385.461 265.331 385.461H265.136H264.94H264.453C263.411 385.461 262.629 385.331 262.109 385.069C261.653 384.808 261.328 384.055 261.133 382.813V377.024V367.113V356.911V351.22V351.024Z" fill="white"/>
<path d="M289.46 385.853C288.936 385.853 288.412 386.181 287.889 386.835C287.889 386.901 287.757 387.62 287.496 388.993V401.257V426.375V451.295V463.559C287.496 464.605 287.692 465.424 288.085 466.012C288.478 466.404 288.936 466.601 289.46 466.601H289.952H290.345H292.113H293.978C296.793 466.601 299.248 465.849 301.343 464.344C303.437 463.103 304.584 460.027 304.78 455.121V444.917V424.805V406.948V395.469C304.78 391.348 303.83 388.732 301.931 387.62C300.295 386.508 298.298 385.853 295.942 385.659H295.549H295.353C294.828 385.659 294.272 385.723 293.684 385.853H292.113C291.587 385.853 291.129 385.92 290.738 386.049H289.46V385.853ZM261.133 351.024C261.133 350.305 261.391 349.587 261.914 348.865C262.368 348.54 263.378 348.276 264.94 348.081H271.873H285.056H297.848H305.073C312.234 348.081 317.116 350.141 319.721 354.263C322.128 358.381 323.333 364.269 323.333 371.923V391.643V425.983V462.577V480.631C323.333 482.004 323.268 483.149 323.139 484.064C323.139 485.7 323.042 486.909 322.848 487.695C322.458 491.947 320.936 495.773 318.281 499.173C316.014 502.313 311.515 503.981 304.78 504.177H296.559H285.501H271.506H264.068C263.22 504.177 262.501 503.981 261.915 503.589C261.523 503.196 261.328 502.445 261.328 501.332V495.937V485.047V474.449V468.857C261.328 467.68 261.718 466.993 262.499 466.796C263.02 466.665 263.491 466.585 263.915 466.551C264.337 466.519 264.81 466.471 265.331 466.404C266.503 466.404 267.413 466.273 268.065 466.012C268.91 465.816 269.335 464.997 269.335 463.559V451.492V426.177V400.865V388.601C269.335 387.293 268.91 386.443 268.065 386.049C267.285 385.659 266.372 385.461 265.331 385.461H265.136H264.94H264.453C263.411 385.461 262.629 385.331 262.109 385.069C261.653 384.808 261.328 384.055 261.133 382.813V377.024V367.113V356.911V351.22V351.024Z" stroke="#202751" stroke-width="4" stroke-miterlimit="10"/>
<path d="M375.476 424.608L369.325 390.661L363.266 424.608H375.476ZM338.385 466.208L351.02 385.659H345.438V347.884C347.07 347.884 349.551 347.949 352.881 348.081H369.301H374.873H380.639H389.241H392.857V385.853H387.486L399.887 466.208H405.062V504.177H373.914V465.816H382.702L378.307 444.525H360.522L356.701 466.601H364.93V504.177H333.781V466.208H338.385Z" fill="white"/>
<path d="M375.476 424.608L369.325 390.661L363.266 424.608H375.476ZM338.385 466.208L351.02 385.659H345.438V347.884C347.07 347.884 349.551 347.949 352.881 348.081H369.301H374.873H380.639H389.241H392.857V385.853H387.486L399.887 466.208H405.062V504.177H373.914V465.816H382.702L378.307 444.525H360.522L356.701 466.601H364.93V504.177H333.781V466.208H338.385Z" stroke="#202751" stroke-width="4" stroke-miterlimit="10"/>
<path d="M418.831 352.104C418.831 350.796 419.091 349.781 419.615 349.061C420.072 348.604 421.148 348.276 422.847 348.081H427.254H434.698H441.653H446.257C447.758 348.081 448.77 348.408 449.294 349.061C449.749 349.52 450.077 350.6 450.273 352.3V357.696V366.919V376.336V381.635C450.273 382.879 449.947 383.925 449.296 384.775C448.84 385.299 447.766 385.659 446.074 385.853H443.534H443.339V466.404C443.731 466.404 444.446 466.471 445.488 466.601H450.078H453.886H456.522C457.433 466.601 458.149 466.34 458.67 465.816C458.995 465.489 459.257 464.736 459.452 463.559V458.947V450.315V441.876V437.068C459.452 435.761 459.663 434.895 460.086 434.469C460.508 434.044 461.307 433.831 462.479 433.831H464.92H468.727H472.048H474.684C475.92 433.831 476.735 434.027 477.126 434.42C477.516 434.616 477.711 435.499 477.711 437.068V447.764V468.66V489.46V500.156C477.711 501.791 477.385 502.871 476.733 503.392C476.407 503.72 475.396 503.981 473.702 504.177H464.899H448.271H431.448H422.84C421.536 504.177 420.526 503.917 419.809 503.392C419.351 503.132 419.026 502.117 418.831 500.351V494.759V485.047V475.235V469.643C418.831 468.333 419.09 467.517 419.613 467.189C420.003 466.796 420.718 466.601 421.76 466.601H423.811H424.787V385.853V386.049H424.592H422.638C421.273 386.049 420.262 385.723 419.613 385.069C419.285 384.349 419.026 383.271 418.831 381.831V376.631V366.919V357.696V352.3V352.104Z" fill="white"/>
<path d="M418.831 352.104C418.831 350.796 419.091 349.781 419.615 349.061C420.072 348.604 421.148 348.276 422.847 348.081H427.254H434.698H441.653H446.257C447.758 348.081 448.77 348.408 449.294 349.061C449.749 349.52 450.077 350.6 450.273 352.3V357.696V366.919V376.336V381.635C450.273 382.879 449.947 383.925 449.296 384.775C448.84 385.299 447.766 385.659 446.074 385.853H443.534H443.339V466.404C443.731 466.404 444.446 466.471 445.488 466.601H450.078H453.886H456.522C457.433 466.601 458.149 466.34 458.67 465.816C458.995 465.489 459.257 464.736 459.452 463.559V458.947V450.315V441.876V437.068C459.452 435.761 459.663 434.895 460.086 434.469C460.508 434.044 461.307 433.831 462.479 433.831H464.92H468.727H472.048H474.684C475.92 433.831 476.735 434.027 477.126 434.42C477.516 434.616 477.711 435.499 477.711 437.068V447.764V468.66V489.46V500.156C477.711 501.791 477.385 502.871 476.733 503.392C476.407 503.72 475.396 503.981 473.702 504.177H464.899H448.271H431.448H422.84C421.536 504.177 420.526 503.917 419.809 503.392C419.351 503.132 419.026 502.117 418.831 500.351V494.759V485.047V475.235V469.643C418.831 468.333 419.09 467.517 419.613 467.189C420.003 466.796 420.718 466.601 421.76 466.601H423.811H424.787V385.853V386.049H424.592H422.638C421.273 386.049 420.262 385.723 419.613 385.069C419.285 384.349 419.026 383.271 418.831 381.831V376.631V366.919V357.696V352.3V352.104Z" stroke="#202751" stroke-width="4" stroke-miterlimit="10"/>
<path d="M487.477 351.907C487.477 350.729 487.735 349.781 488.258 349.061C488.712 348.604 489.852 348.276 491.675 348.081H500.463H517.063H533.663H542.45C543.947 348.081 544.957 348.343 545.478 348.865C545.932 349.193 546.26 349.912 546.453 351.024V360.344V378.593V396.647V406.163C546.453 407.603 546.127 408.651 545.478 409.303C545.152 409.827 544.143 410.185 542.45 410.381H539.911H537.471H534.639H532.296C530.798 410.381 529.724 410.024 529.073 409.303C528.747 408.845 528.487 407.799 528.292 406.163V402.729V397.529V392.428V388.993C528.292 387.685 528.097 386.835 527.707 386.443C527.511 386.049 526.632 385.853 525.07 385.853H520.675H515.695H514.718H513.84C512.537 385.853 511.693 385.987 511.301 386.247C510.911 386.443 510.716 386.901 510.716 387.62V388.209V388.993V393.899V402.533V410.381V415.385C510.716 416.955 510.846 417.873 511.106 418.133C511.17 418.265 511.757 418.428 512.865 418.623H516.087H521.457H525.07H528.292C529.593 418.623 530.603 418.82 531.319 419.213C531.774 419.541 532.101 420.26 532.296 421.371V424.608V428.239V429.024V429.808C532.296 431.181 531.969 432.197 531.319 432.849C531.058 433.308 530.049 433.635 528.292 433.831H525.07H521.067H517.063H513.84C512.408 433.831 511.496 433.963 511.106 434.223C511.04 434.289 510.911 435.239 510.716 437.068V442.072V449.921V457.771V462.577C510.716 464.084 510.846 465.097 511.106 465.619C511.236 466.077 511.822 466.404 512.865 466.601H515.695H519.699H523.312H526.047C527.022 466.601 527.707 466.404 528.097 466.012C528.227 465.752 528.292 465.195 528.292 464.344V463.951V463.363V462.971V462.381V459.144V453.551V448.548V445.113C528.292 443.676 528.551 442.793 529.073 442.465C529.138 442.4 529.887 442.269 531.319 442.072H533.858H537.861H540.888H543.525C544.892 442.072 545.737 442.335 546.063 442.857L546.453 445.113V454.336V472.88V490.933V500.351C546.453 501.856 546.127 502.871 545.478 503.392C545.152 503.72 544.143 503.981 542.45 504.177H533.663H517.063H500.267H491.675C490.112 504.177 488.973 503.917 488.258 503.392C487.93 502.936 487.672 501.921 487.477 500.351V494.563V484.064V474.841V468.66C487.477 467.484 487.735 466.732 488.258 466.404C488.517 466.144 489.137 465.881 490.112 465.619C490.698 465.619 491.284 465.424 491.87 465.031C492.195 464.704 492.457 463.887 492.652 462.577V449.529V425.197V400.865V387.816C492.652 386.575 492.39 385.789 491.87 385.461C491.739 385.397 491.154 385.167 490.112 384.775C489.46 384.775 488.843 384.579 488.258 384.185C487.93 383.86 487.672 383.008 487.477 381.635V375.748V367.113V357.696V352.104V351.907Z" fill="white"/>
<path d="M487.477 351.907C487.477 350.729 487.735 349.781 488.258 349.061C488.712 348.604 489.852 348.276 491.675 348.081H500.463H517.063H533.663H542.45C543.947 348.081 544.957 348.343 545.478 348.865C545.932 349.193 546.26 349.912 546.453 351.024V360.344V378.593V396.647V406.163C546.453 407.603 546.127 408.651 545.478 409.303C545.152 409.827 544.143 410.185 542.45 410.381H539.911H537.471H534.639H532.296C530.798 410.381 529.724 410.024 529.073 409.303C528.747 408.845 528.487 407.799 528.292 406.163V402.729V397.529V392.428V388.993C528.292 387.685 528.097 386.835 527.707 386.443C527.511 386.049 526.632 385.853 525.07 385.853H520.675H515.695H514.718H513.84C512.537 385.853 511.693 385.987 511.301 386.247C510.911 386.443 510.716 386.901 510.716 387.62V388.209V388.993V393.899V402.533V410.381V415.385C510.716 416.955 510.846 417.873 511.106 418.133C511.17 418.265 511.757 418.428 512.865 418.623H516.087H521.457H525.07H528.292C529.593 418.623 530.603 418.82 531.319 419.213C531.774 419.541 532.101 420.26 532.296 421.371V424.608V428.239V429.024V429.808C532.296 431.181 531.969 432.197 531.319 432.849C531.058 433.308 530.049 433.635 528.292 433.831H525.07H521.067H517.063H513.84C512.408 433.831 511.496 433.963 511.106 434.223C511.04 434.289 510.911 435.239 510.716 437.068V442.072V449.921V457.771V462.577C510.716 464.084 510.846 465.097 511.106 465.619C511.236 466.077 511.822 466.404 512.865 466.601H515.695H519.699H523.312H526.047C527.022 466.601 527.707 466.404 528.097 466.012C528.227 465.752 528.292 465.195 528.292 464.344V463.951V463.363V462.971V462.381V459.144V453.551V448.548V445.113C528.292 443.676 528.551 442.793 529.073 442.465C529.138 442.4 529.887 442.269 531.319 442.072H533.858H537.861H540.888H543.525C544.892 442.072 545.737 442.335 546.063 442.857L546.453 445.113V454.336V472.88V490.933V500.351C546.453 501.856 546.127 502.871 545.478 503.392C545.152 503.72 544.143 503.981 542.45 504.177H533.663H517.063H500.267H491.675C490.112 504.177 488.973 503.917 488.258 503.392C487.93 502.936 487.672 501.921 487.477 500.351V494.563V484.064V474.841V468.66C487.477 467.484 487.735 466.732 488.258 466.404C488.517 466.144 489.137 465.881 490.112 465.619C490.698 465.619 491.284 465.424 491.87 465.031C492.195 464.704 492.457 463.887 492.652 462.577V449.529V425.197V400.865V387.816C492.652 386.575 492.39 385.789 491.87 385.461C491.739 385.397 491.154 385.167 490.112 384.775C489.46 384.775 488.843 384.579 488.258 384.185C487.93 383.86 487.672 383.008 487.477 381.635V375.748V367.113V357.696V352.104V351.907Z" stroke="#202751" stroke-width="4" stroke-miterlimit="10"/>
<path d="M621.056 431.672C620.666 431.672 620.144 432 619.493 432.655C619.104 433.047 618.811 433.767 618.614 434.812V440.109V449.136V458.555V463.559C618.614 464.344 618.842 465.097 619.299 465.816C619.558 466.077 619.948 466.34 620.469 466.601H620.861H621.056H621.251H622.228H626.231C630.331 466.601 633.13 465.129 634.63 462.185C635.93 459.504 636.68 454.272 636.875 446.488C636.875 441.581 635.995 438.115 634.238 436.088C632.74 434.125 630.884 432.849 628.671 432.261C628.151 432.261 627.598 432.197 627.011 432.064C626.49 432.064 625.97 432 625.449 431.869H624.669H623.888H622.618H621.056V431.672ZM621.056 385.659C620.274 385.659 619.689 386.049 619.299 386.835C618.842 387.36 618.614 388.176 618.614 389.288V389.484V389.68V393.899V400.668V407.929V411.952C618.614 412.999 618.776 413.881 619.104 414.601C619.428 415.059 620.079 415.385 621.056 415.583H622.228H623.888H625.059H626.426C627.143 415.583 627.826 415.452 628.476 415.189C629.517 414.667 630.298 414.109 630.821 413.521C632.188 412.476 633.522 410.743 634.823 408.323C636.06 406.033 636.68 403.024 636.68 399.295C636.68 395.503 635.995 392.689 634.63 390.857C633.457 388.831 632.057 387.424 630.43 386.639C629.649 386.379 628.998 386.181 628.476 386.049C627.955 386.049 627.403 385.987 626.818 385.853H624.083H622.423H621.642H621.056V385.659ZM592.446 351.515C592.446 350.403 592.705 349.587 593.227 349.061C593.618 348.669 594.626 348.343 596.254 348.081H603.675H617.052H630.235H637.655C643.124 348.081 647.322 350.207 650.252 354.457C652.986 358.515 654.451 363.812 654.646 370.352V379.183V390.465V406.36V414.404V414.601C654.646 416.171 654.124 417.512 653.084 418.623C652.236 419.213 651.098 419.933 649.667 420.781C648.753 421.24 647.616 421.699 646.249 422.156C645.272 422.352 644.751 422.516 644.687 422.647C644.946 422.647 645.467 422.777 646.249 423.039C647.484 423.039 648.689 423.367 649.861 424.02C650.839 424.479 651.976 425.328 653.278 426.571C654.125 427.488 654.646 428.893 654.841 430.789V440.699V456.396V473.861V482.887C654.841 489.821 653.572 495.119 651.033 498.781C648.689 502.38 644.164 504.177 637.461 504.177H629.649H617.444H604.26H596.84C595.473 504.177 594.333 503.981 593.423 503.589C593.095 503.263 592.836 502.183 592.641 500.351V494.563V484.653V474.449V468.857C592.641 467.615 593.032 466.796 593.813 466.404C594.463 466.273 594.968 466.193 595.327 466.16C595.684 466.127 596.123 466.077 596.644 466.012H596.84C597.946 466.012 598.825 465.881 599.476 465.619C600.256 465.424 600.648 464.736 600.648 463.559V451.492V426.375V401.257V389.288C600.648 387.588 600.322 386.575 599.671 386.247C599.086 385.853 598.271 385.659 597.231 385.659H596.644H596.254H595.668H595.081C594.106 385.659 593.423 385.528 593.032 385.265C592.641 384.808 592.446 383.991 592.446 382.813V382.616V377.024V367.113V357.303V351.711V351.515Z" fill="white"/>
<path d="M621.056 431.672C620.666 431.672 620.144 432 619.493 432.655C619.104 433.047 618.811 433.767 618.614 434.812V440.109V449.136V458.555V463.559C618.614 464.344 618.842 465.097 619.299 465.816C619.558 466.077 619.948 466.34 620.469 466.601H620.861H621.056H621.251H622.228H626.231C630.331 466.601 633.13 465.129 634.63 462.185C635.93 459.504 636.68 454.272 636.875 446.488C636.875 441.581 635.995 438.115 634.238 436.088C632.74 434.125 630.884 432.849 628.671 432.261C628.151 432.261 627.598 432.197 627.011 432.064C626.49 432.064 625.97 432 625.449 431.869H624.669H623.888H622.618H621.056V431.672ZM621.056 385.659C620.274 385.659 619.689 386.049 619.299 386.835C618.842 387.36 618.614 388.176 618.614 389.288V389.484V389.68V393.899V400.668V407.929V411.952C618.614 412.999 618.776 413.881 619.104 414.601C619.428 415.059 620.079 415.385 621.056 415.583H622.228H623.888H625.059H626.426C627.143 415.583 627.826 415.452 628.476 415.189C629.517 414.667 630.298 414.109 630.821 413.521C632.188 412.476 633.522 410.743 634.823 408.323C636.06 406.033 636.68 403.024 636.68 399.295C636.68 395.503 635.995 392.689 634.63 390.857C633.457 388.831 632.057 387.424 630.43 386.639C629.649 386.379 628.998 386.181 628.476 386.049C627.955 386.049 627.403 385.987 626.818 385.853H624.083H622.423H621.642H621.056V385.659ZM592.446 351.515C592.446 350.403 592.705 349.587 593.227 349.061C593.618 348.669 594.626 348.343 596.254 348.081H603.675H617.052H630.235H637.655C643.124 348.081 647.322 350.207 650.252 354.457C652.986 358.515 654.451 363.812 654.646 370.352V379.183V390.465V406.36V414.404V414.601C654.646 416.171 654.124 417.512 653.084 418.623C652.236 419.213 651.098 419.933 649.667 420.781C648.753 421.24 647.616 421.699 646.249 422.156C645.272 422.352 644.751 422.516 644.687 422.647C644.946 422.647 645.467 422.777 646.249 423.039C647.484 423.039 648.689 423.367 649.861 424.02C650.839 424.479 651.976 425.328 653.278 426.571C654.125 427.488 654.646 428.893 654.841 430.789V440.699V456.396V473.861V482.887C654.841 489.821 653.572 495.119 651.033 498.781C648.689 502.38 644.164 504.177 637.461 504.177H629.649H617.444H604.26H596.84C595.473 504.177 594.333 503.981 593.423 503.589C593.095 503.263 592.836 502.183 592.641 500.351V494.563V484.653V474.449V468.857C592.641 467.615 593.032 466.796 593.813 466.404C594.463 466.273 594.968 466.193 595.327 466.16C595.684 466.127 596.123 466.077 596.644 466.012H596.84C597.946 466.012 598.825 465.881 599.476 465.619C600.256 465.424 600.648 464.736 600.648 463.559V451.492V426.375V401.257V389.288C600.648 387.588 600.322 386.575 599.671 386.247C599.086 385.853 598.271 385.659 597.231 385.659H596.644H596.254H595.668H595.081C594.106 385.659 593.423 385.528 593.032 385.265C592.641 384.808 592.446 383.991 592.446 382.813V382.616V377.024V367.113V357.303V351.711V351.515Z" stroke="#202751" stroke-width="4" stroke-miterlimit="10"/>
<path d="M709.426 455.121V385.853H705.031C704.509 385.853 704.054 385.789 703.664 385.659C703.274 385.461 703.079 384.84 703.079 383.793V378.397V367.899V357.892V352.3C703.079 351.057 703.274 350.044 703.664 349.259C703.989 348.801 704.446 348.473 705.031 348.276H709.034H716.846H724.657H728.662C729.182 348.276 729.637 348.669 730.029 349.453C730.029 349.52 730.159 350.469 730.419 352.3V357.892V367.899V378.397V383.793C730.419 384.513 730.224 385.069 729.834 385.461C729.637 385.528 729.458 385.576 729.296 385.608C729.133 385.643 728.857 385.723 728.467 385.853H728.077H727.685H727.489H726.025H725.635V466.796C725.635 479.488 723.03 488.937 717.823 495.152C712.613 501.169 706.887 504.177 700.637 504.177H700.052H699.465C693.412 503.981 687.748 500.645 682.474 494.169C677.266 487.631 674.664 478.177 674.664 465.816V452.177V425.983V398.511V385.853H673.882H672.222H671.245H670.465C669.942 385.853 669.487 385.74 669.097 385.511C668.707 385.281 668.512 384.644 668.512 383.597V381.047V375.356V371.725V367.704V357.696V352.104C668.512 350.861 668.707 349.847 669.097 349.061C669.422 348.604 669.879 348.276 670.465 348.081H674.859H683.256H691.85H696.242C696.697 348.081 697.186 348.473 697.708 349.259C697.708 349.324 697.838 350.272 698.098 352.104V357.696V367.899V378.397V383.793C698.098 384.513 697.902 385.069 697.512 385.461C696.927 385.461 696.438 385.528 696.048 385.659H695.657H695.267H695.072H693.51H692.825V455.121C692.825 459.047 693.704 461.989 695.463 463.951C696.959 465.717 698.88 466.601 701.222 466.601H701.516H701.907C703.534 466.601 705.258 465.588 707.081 463.559C708.644 461.597 709.426 458.849 709.426 455.319V455.121Z" fill="white"/>
<path d="M709.426 455.121V385.853H705.031C704.509 385.853 704.054 385.789 703.664 385.659C703.274 385.461 703.079 384.84 703.079 383.793V378.397V367.899V357.892V352.3C703.079 351.057 703.274 350.044 703.664 349.259C703.989 348.801 704.446 348.473 705.031 348.276H709.034H716.846H724.657H728.662C729.182 348.276 729.637 348.669 730.029 349.453C730.029 349.52 730.159 350.469 730.419 352.3V357.892V367.899V378.397V383.793C730.419 384.513 730.224 385.069 729.834 385.461C729.637 385.528 729.458 385.576 729.296 385.608C729.133 385.643 728.857 385.723 728.467 385.853H728.077H727.685H727.489H726.025H725.635V466.796C725.635 479.488 723.03 488.937 717.823 495.152C712.613 501.169 706.887 504.177 700.637 504.177H700.052H699.465C693.412 503.981 687.748 500.645 682.474 494.169C677.266 487.631 674.664 478.177 674.664 465.816V452.177V425.983V398.511V385.853H673.882H672.222H671.245H670.465C669.942 385.853 669.487 385.74 669.097 385.511C668.707 385.281 668.512 384.644 668.512 383.597V381.047V375.356V371.725V367.704V357.696V352.104C668.512 350.861 668.707 349.847 669.097 349.061C669.422 348.604 669.879 348.276 670.465 348.081H674.859H683.256H691.85H696.242C696.697 348.081 697.186 348.473 697.708 349.259C697.708 349.324 697.838 350.272 698.098 352.104V357.696V367.899V378.397V383.793C698.098 384.513 697.902 385.069 697.512 385.461C696.927 385.461 696.438 385.528 696.048 385.659H695.657H695.267H695.072H693.51H692.825V455.121C692.825 459.047 693.704 461.989 695.463 463.951C696.959 465.717 698.88 466.601 701.222 466.601H701.516H701.907C703.534 466.601 705.258 465.588 707.081 463.559C708.644 461.597 709.426 458.849 709.426 455.319V455.121Z" stroke="#202751" stroke-width="4" stroke-miterlimit="10"/>
<path d="M796.427 461.793V463.559C796.427 474.744 795.514 484.196 793.694 491.913C792.066 499.893 785.784 503.981 774.848 504.177C771.593 504.177 769.151 503.72 767.524 502.804C766.157 502.085 764.822 501.072 763.521 499.763C763.194 499.371 762.771 498.781 762.252 497.996C762.121 497.408 761.862 496.853 761.47 496.328L760.884 497.505C760.557 498.552 760.232 499.371 759.907 499.959L759.712 500.156V500.351C759.582 500.679 759.403 501.005 759.175 501.332C758.946 501.66 758.702 502.085 758.442 502.607C758.312 503 758.116 503.328 757.857 503.589H755.904H752.095H748.875H746.725C745.488 503.589 744.479 503.392 743.698 503C743.241 502.74 742.918 501.529 742.723 499.371V491.128V476.215V461.008V452.963C742.723 451.589 742.851 450.772 743.113 450.509C743.438 450.184 744.284 449.921 745.651 449.725H748.093H751.315H753.463H755.709C757.01 449.725 757.857 450.117 758.248 450.903C758.639 451.492 758.834 453.16 758.834 455.907C758.834 459.569 759.712 462.185 761.47 463.756C763.292 465.391 765.309 466.208 767.524 466.208H767.914H768.501C770.583 466.012 772.504 465.064 774.261 463.363C775.955 461.925 776.898 459.668 777.093 456.593C777.093 451.688 776.148 447.927 774.261 445.311C772.763 442.629 770.844 440.34 768.501 438.441C767.849 437.985 767.149 437.527 766.401 437.068C765.652 436.611 764.952 436.153 764.301 435.695C762.217 434.257 761.144 433.504 761.08 433.437C756.132 429.383 752.193 425.492 749.263 421.764C746.661 418.035 744.805 414.568 743.698 411.364C743.308 409.86 742.754 406.785 742.038 402.141C742.038 397.693 741.973 394.26 741.844 391.839V389.68V387.227V386.835V386.247V383.008V379.575C741.844 371.988 743.048 364.76 745.456 357.892C747.668 351.548 753.268 348.276 762.252 348.081C765.831 348.081 768.696 348.473 770.844 349.259C772.798 349.979 774.261 350.796 775.239 351.711C775.888 352.3 776.441 353.151 776.898 354.263C776.898 355.047 776.962 355.439 777.093 355.439C777.028 355.439 777.093 355.112 777.289 354.457C777.289 353.672 777.467 352.905 777.826 352.153C778.183 351.401 778.656 350.632 779.241 349.847C779.892 349.061 780.771 348.669 781.878 348.669H784.709H788.029H789.885H791.642C793.531 348.669 794.734 348.932 795.256 349.453C795.581 349.781 795.841 350.796 796.037 352.495V360.541V375.356V390.269V398.315C796.037 399.688 795.841 400.668 795.451 401.257C795.319 401.651 794.181 401.944 792.034 402.141H787.249H783.83H783.44H783.245H782.855H782.463C781.683 402.141 781.032 401.651 780.51 400.668C780.25 400.08 779.957 397.889 779.632 394.096C779.632 391.348 778.786 389.272 777.093 387.865C775.4 386.459 773.446 385.659 771.234 385.461H770.844H770.649C768.239 385.461 766.06 386.247 764.107 387.816C762.414 389.189 761.47 391.48 761.274 394.684C761.274 399 762.478 402.764 764.887 405.967C767.295 408.78 770.029 411.495 773.091 414.109L773.48 414.601L773.871 414.797C774.913 415.844 775.726 416.629 776.311 417.152C777.093 417.74 777.938 418.493 778.85 419.408C779.111 419.671 779.305 419.933 779.438 420.193C779.762 420.193 780.055 420.325 780.316 420.585C781.098 421.371 781.813 422.123 782.463 422.843C783.114 423.301 783.863 424.02 784.709 425C787.509 427.748 790.242 431.836 792.912 437.265C795.256 442.433 796.427 450.673 796.427 461.989V461.793Z" fill="white"/>
<path d="M796.427 461.793V463.559C796.427 474.744 795.514 484.196 793.694 491.913C792.066 499.893 785.784 503.981 774.848 504.177C771.593 504.177 769.151 503.72 767.524 502.804C766.157 502.085 764.822 501.072 763.521 499.763C763.194 499.371 762.771 498.781 762.252 497.996C762.121 497.408 761.862 496.853 761.47 496.328L760.884 497.505C760.557 498.552 760.232 499.371 759.907 499.959L759.712 500.156V500.351C759.582 500.679 759.403 501.005 759.175 501.332C758.946 501.66 758.702 502.085 758.442 502.607C758.312 503 758.116 503.328 757.857 503.589H755.904H752.095H748.875H746.725C745.488 503.589 744.479 503.392 743.698 503C743.241 502.74 742.918 501.529 742.723 499.371V491.128V476.215V461.008V452.963C742.723 451.589 742.851 450.772 743.113 450.509C743.438 450.184 744.284 449.921 745.651 449.725H748.093H751.315H753.463H755.709C757.01 449.725 757.857 450.117 758.248 450.903C758.639 451.492 758.834 453.16 758.834 455.907C758.834 459.569 759.712 462.185 761.47 463.756C763.292 465.391 765.309 466.208 767.524 466.208H767.914H768.501C770.583 466.012 772.504 465.064 774.261 463.363C775.955 461.925 776.898 459.668 777.093 456.593C777.093 451.688 776.148 447.927 774.261 445.311C772.763 442.629 770.844 440.34 768.501 438.441C767.849 437.985 767.149 437.527 766.401 437.068C765.652 436.611 764.952 436.153 764.301 435.695C762.217 434.257 761.144 433.504 761.08 433.437C756.132 429.383 752.193 425.492 749.263 421.764C746.661 418.035 744.805 414.568 743.698 411.364C743.308 409.86 742.754 406.785 742.038 402.141C742.038 397.693 741.973 394.26 741.844 391.839V389.68V387.227V386.835V386.247V383.008V379.575C741.844 371.988 743.048 364.76 745.456 357.892C747.668 351.548 753.268 348.276 762.252 348.081C765.831 348.081 768.696 348.473 770.844 349.259C772.798 349.979 774.261 350.796 775.239 351.711C775.888 352.3 776.441 353.151 776.898 354.263C776.898 355.047 776.962 355.439 777.093 355.439C777.028 355.439 777.093 355.112 777.289 354.457C777.289 353.672 777.467 352.905 777.826 352.153C778.183 351.401 778.656 350.632 779.241 349.847C779.892 349.061 780.771 348.669 781.878 348.669H784.709H788.029H789.885H791.642C793.531 348.669 794.734 348.932 795.256 349.453C795.581 349.781 795.841 350.796 796.037 352.495V360.541V375.356V390.269V398.315C796.037 399.688 795.841 400.668 795.451 401.257C795.319 401.651 794.181 401.944 792.034 402.141H787.249H783.83H783.44H783.245H782.855H782.463C781.683 402.141 781.032 401.651 780.51 400.668C780.25 400.08 779.957 397.889 779.632 394.096C779.632 391.348 778.786 389.272 777.093 387.865C775.4 386.459 773.446 385.659 771.234 385.461H770.844H770.649C768.239 385.461 766.06 386.247 764.107 387.816C762.414 389.189 761.47 391.48 761.274 394.684C761.274 399 762.478 402.764 764.887 405.967C767.295 408.78 770.029 411.495 773.091 414.109L773.48 414.601L773.871 414.797C774.913 415.844 775.726 416.629 776.311 417.152C777.093 417.74 777.938 418.493 778.85 419.408C779.111 419.671 779.305 419.933 779.438 420.193C779.762 420.193 780.055 420.325 780.316 420.585C781.098 421.371 781.813 422.123 782.463 422.843C783.114 423.301 783.863 424.02 784.709 425C787.509 427.748 790.242 431.836 792.912 437.265C795.256 442.433 796.427 450.673 796.427 461.989V461.793Z" stroke="#202751" stroke-width="4" stroke-miterlimit="10"/>
<path d="M843.786 352.104C843.786 350.796 844.046 349.781 844.571 349.061C845.026 348.604 846.103 348.276 847.801 348.081H852.21H859.653H866.607H871.213C872.714 348.081 873.725 348.408 874.249 349.061C874.705 349.52 875.032 350.6 875.227 352.3V357.696V366.919V376.336V381.635C875.227 382.879 874.9 383.925 874.252 384.775C873.795 385.299 872.721 385.659 871.028 385.853H868.49H868.296V466.404C868.686 466.404 869.401 466.471 870.443 466.601H875.033H878.84H881.477C882.389 466.601 883.104 466.34 883.625 465.816C883.951 465.489 884.212 464.736 884.406 463.559V458.947V450.315V441.876V437.068C884.406 435.761 884.617 434.895 885.041 434.469C885.463 434.044 886.262 433.831 887.434 433.831H889.874H893.683H897.003H899.64C900.875 433.831 901.69 434.027 902.081 434.42C902.471 434.616 902.666 435.499 902.666 437.068V447.764V468.66V489.46V500.156C902.666 501.791 902.34 502.871 901.688 503.392C901.362 503.72 900.351 503.981 898.658 504.177H889.853H873.226H856.403H847.795C846.491 504.177 845.481 503.917 844.763 503.392C844.307 503.132 843.98 502.117 843.786 500.351V494.759V485.047V475.235V469.643C843.786 468.333 844.045 467.517 844.567 467.189C844.958 466.796 845.673 466.601 846.715 466.601H848.765H849.742V385.853V386.049H849.547H847.594C846.227 386.049 845.217 385.723 844.567 385.069C844.24 384.349 843.98 383.271 843.786 381.831V376.631V366.919V357.696V352.3V352.104Z" fill="white"/>
<path d="M843.786 352.104C843.786 350.796 844.046 349.781 844.571 349.061C845.026 348.604 846.103 348.276 847.801 348.081H852.21H859.653H866.607H871.213C872.714 348.081 873.725 348.408 874.249 349.061C874.705 349.52 875.032 350.6 875.227 352.3V357.696V366.919V376.336V381.635C875.227 382.879 874.9 383.925 874.252 384.775C873.795 385.299 872.721 385.659 871.028 385.853H868.49H868.296V466.404C868.686 466.404 869.401 466.471 870.443 466.601H875.033H878.84H881.477C882.389 466.601 883.104 466.34 883.625 465.816C883.951 465.489 884.212 464.736 884.406 463.559V458.947V450.315V441.876V437.068C884.406 435.761 884.617 434.895 885.041 434.469C885.463 434.044 886.262 433.831 887.434 433.831H889.874H893.683H897.003H899.64C900.875 433.831 901.69 434.027 902.081 434.42C902.471 434.616 902.666 435.499 902.666 437.068V447.764V468.66V489.46V500.156C902.666 501.791 902.34 502.871 901.688 503.392C901.362 503.72 900.351 503.981 898.658 504.177H889.853H873.226H856.403H847.795C846.491 504.177 845.481 503.917 844.763 503.392C844.307 503.132 843.98 502.117 843.786 500.351V494.759V485.047V475.235V469.643C843.786 468.333 844.045 467.517 844.567 467.189C844.958 466.796 845.673 466.601 846.715 466.601H848.765H849.742V385.853V386.049H849.547H847.594C846.227 386.049 845.217 385.723 844.567 385.069C844.24 384.349 843.98 383.271 843.786 381.831V376.631V366.919V357.696V352.3V352.104Z" stroke="#202751" stroke-width="4" stroke-miterlimit="10"/>
<path d="M937.038 385.659V466.404L936.843 466.601H936.453H938.015C939.773 466.601 940.845 466.732 941.237 466.993C941.692 467.124 942.019 468.008 942.214 469.643V475.431V485.047V494.759V500.351C942.214 501.856 941.887 502.871 941.237 503.392C940.715 503.72 939.577 503.981 937.82 504.177H933.816H927.468H920.83H916.826C915.459 504.177 914.319 503.981 913.409 503.589C913.082 503.263 912.822 502.183 912.627 500.351V494.759V485.047V475.235V469.643C912.627 468.727 913.018 467.975 913.799 467.385C914.384 467.124 915.197 466.863 916.24 466.601H916.435H916.826H917.802V385.659V385.853H918.192H918.681H916.826C915.264 385.853 914.124 385.495 913.409 384.775C913.082 384.319 912.822 383.271 912.627 381.635V376.141V366.721V357.696V352.104C912.627 350.6 912.871 349.601 913.359 349.111C913.848 348.62 915.002 348.276 916.826 348.081H920.83H927.468H933.816H938.015C939.641 348.081 940.715 348.408 941.237 349.061C941.692 349.389 942.019 350.403 942.214 352.104V357.696V366.721V376.141V381.635C942.214 382.944 942.019 383.991 941.627 384.775C941.497 385.299 940.715 385.659 939.285 385.853H937.038V385.659Z" fill="white"/>
<path d="M937.038 385.659V466.404L936.843 466.601H936.453H938.015C939.773 466.601 940.845 466.732 941.237 466.993C941.692 467.124 942.019 468.008 942.214 469.643V475.431V485.047V494.759V500.351C942.214 501.856 941.887 502.871 941.237 503.392C940.715 503.72 939.577 503.981 937.82 504.177H933.816H927.468H920.83H916.826C915.459 504.177 914.319 503.981 913.409 503.589C913.082 503.263 912.822 502.183 912.627 500.351V494.759V485.047V475.235V469.643C912.627 468.727 913.018 467.975 913.799 467.385C914.384 467.124 915.197 466.863 916.24 466.601H916.435H916.826H917.802V385.659V385.853H918.192H918.681H916.826C915.264 385.853 914.124 385.495 913.409 384.775C913.082 384.319 912.822 383.271 912.627 381.635V376.141V366.721V357.696V352.104C912.627 350.6 912.871 349.601 913.359 349.111C913.848 348.62 915.002 348.276 916.826 348.081H920.83H927.468H933.816H938.015C939.641 348.081 940.715 348.408 941.237 349.061C941.692 349.389 942.019 350.403 942.214 352.104V357.696V366.721V376.141V381.635C942.214 382.944 942.019 383.991 941.627 384.775C941.497 385.299 940.715 385.659 939.285 385.853H937.038V385.659Z" stroke="#202751" stroke-width="4" stroke-miterlimit="10"/>
<path d="M1001.09 382.616V352.104C1001.09 350.729 1001.22 349.781 1001.48 349.259C1001.88 348.473 1002.88 348.081 1004.51 348.081H1008.52H1014.67H1020.72H1024.72C1026.16 348.081 1027.2 348.408 1027.85 349.061C1028.37 349.324 1028.73 350.337 1028.92 352.104V357.696V367.311V377.416V382.813C1028.92 383.86 1028.73 384.743 1028.34 385.461C1028.27 385.461 1027.39 385.593 1025.7 385.853H1023.06H1022.28V500.351C1022.28 501.988 1022.02 503.065 1021.5 503.589C1021.11 503.981 1020.17 504.177 1018.67 504.177H1016.13H1012.71H1008.91H1006.27H1005.88C1004.71 504.177 1003.86 504.113 1003.34 503.981C1002.88 503.981 1002.46 503.392 1002.07 502.215L974.925 385.853V466.404C975.055 466.404 975.249 466.471 975.512 466.601H977.854C979.091 466.601 979.969 466.863 980.491 467.385C980.881 467.777 981.077 468.597 981.077 469.837V475.431V485.241V494.955V500.548C981.077 501.988 980.881 503 980.491 503.589C980.296 503.981 979.417 504.177 977.854 504.177H973.46H966.918H960.083H955.884C954.971 504.177 954.322 504.048 953.931 503.785C953.866 503.72 953.736 503.263 953.541 502.412V501.136V499.567V493.975V484.261V474.449V468.857V467.777V467.189V466.796L953.931 466.601H954.712H955.689H958.129H958.521V385.853V386.049H958.911H959.106H957.544C956.176 386.049 955.166 385.723 954.516 385.069C954.061 384.416 953.736 383.271 953.541 381.635V375.944V366.525V356.911V351.22C953.541 349.847 953.799 348.997 954.322 348.669C954.908 348.276 955.884 348.081 957.251 348.081H962.328H971.702H972.092H972.68C976.844 348.081 979.904 348.147 981.857 348.276H986.057L1005.88 442.269V385.659C1005.62 385.659 1005.29 385.723 1004.9 385.853C1004.64 385.853 1004.32 385.789 1003.93 385.659C1003.21 385.659 1002.53 385.364 1001.88 384.775C1001.55 384.448 1001.29 383.793 1001.09 382.813V382.616Z" fill="white"/>
<path d="M1001.09 382.616V352.104C1001.09 350.729 1001.22 349.781 1001.48 349.259C1001.88 348.473 1002.88 348.081 1004.51 348.081H1008.52H1014.67H1020.72H1024.72C1026.16 348.081 1027.2 348.408 1027.85 349.061C1028.37 349.324 1028.73 350.337 1028.92 352.104V357.696V367.311V377.416V382.813C1028.92 383.86 1028.73 384.743 1028.34 385.461C1028.27 385.461 1027.39 385.593 1025.7 385.853H1023.06H1022.28V500.351C1022.28 501.988 1022.02 503.065 1021.5 503.589C1021.11 503.981 1020.17 504.177 1018.67 504.177H1016.13H1012.71H1008.91H1006.27H1005.88C1004.71 504.177 1003.86 504.113 1003.34 503.981C1002.88 503.981 1002.46 503.392 1002.07 502.215L974.925 385.853V466.404C975.055 466.404 975.249 466.471 975.512 466.601H977.854C979.091 466.601 979.969 466.863 980.491 467.385C980.881 467.777 981.077 468.597 981.077 469.837V475.431V485.241V494.955V500.548C981.077 501.988 980.881 503 980.491 503.589C980.296 503.981 979.417 504.177 977.854 504.177H973.46H966.918H960.083H955.884C954.971 504.177 954.322 504.048 953.931 503.785C953.866 503.72 953.736 503.263 953.541 502.412V501.136V499.567V493.975V484.261V474.449V468.857V467.777V467.189V466.796L953.931 466.601H954.712H955.689H958.129H958.521V385.853V386.049H958.911H959.106H957.544C956.176 386.049 955.166 385.723 954.516 385.069C954.061 384.416 953.736 383.271 953.541 381.635V375.944V366.525V356.911V351.22C953.541 349.847 953.799 348.997 954.322 348.669C954.908 348.276 955.884 348.081 957.251 348.081H962.328H971.702H972.092H972.68C976.844 348.081 979.904 348.147 981.857 348.276H986.057L1005.88 442.269V385.659C1005.62 385.659 1005.29 385.723 1004.9 385.853C1004.64 385.853 1004.32 385.789 1003.93 385.659C1003.21 385.659 1002.53 385.364 1001.88 384.775C1001.55 384.448 1001.29 383.793 1001.09 382.813V382.616Z" stroke="#202751" stroke-width="4" stroke-miterlimit="10"/>
<path d="M1038.88 351.907C1038.88 350.729 1039.14 349.781 1039.66 349.061C1040.12 348.604 1041.26 348.276 1043.08 348.081H1051.87H1068.47H1085.07H1093.86C1095.35 348.081 1096.36 348.343 1096.88 348.865C1097.34 349.193 1097.66 349.912 1097.86 351.024V360.344V378.593V396.647V406.163C1097.86 407.603 1097.53 408.651 1096.88 409.303C1096.56 409.827 1095.55 410.185 1093.86 410.381H1091.32H1088.88H1086.05H1083.7C1082.2 410.381 1081.13 410.024 1080.48 409.303C1080.15 408.845 1079.89 407.799 1079.7 406.163V402.729V397.529V392.428V388.993C1079.7 387.685 1079.5 386.835 1079.11 386.443C1078.92 386.049 1078.04 385.853 1076.48 385.853H1072.08H1067.1H1066.13H1065.25C1063.94 385.853 1063.1 385.987 1062.71 386.247C1062.32 386.443 1062.12 386.901 1062.12 387.62V388.209V388.993V393.899V402.533V410.381V415.385C1062.12 416.955 1062.25 417.873 1062.51 418.133C1062.58 418.265 1063.16 418.428 1064.27 418.623H1067.49H1072.86H1076.48H1079.7C1081 418.623 1082.01 418.82 1082.73 419.213C1083.18 419.541 1083.51 420.26 1083.7 421.371V424.608V428.239V429.024V429.808C1083.7 431.181 1083.38 432.197 1082.73 432.849C1082.46 433.308 1081.46 433.635 1079.7 433.831H1076.48H1072.47H1068.47H1065.25C1063.81 433.831 1062.9 433.963 1062.51 434.223C1062.45 434.289 1062.32 435.239 1062.12 437.068V442.072V449.921V457.771V462.577C1062.12 464.084 1062.25 465.097 1062.51 465.619C1062.64 466.077 1063.23 466.404 1064.27 466.601H1067.1H1071.11H1074.72H1077.45C1078.43 466.601 1079.11 466.404 1079.5 466.012C1079.63 465.752 1079.7 465.195 1079.7 464.344V463.951V463.363V462.971V462.381V459.144V453.551V448.548V445.113C1079.7 443.676 1079.96 442.793 1080.48 442.465C1080.54 442.4 1081.29 442.269 1082.73 442.072H1085.26H1089.27H1092.29H1094.93C1096.3 442.072 1097.14 442.335 1097.47 442.857L1097.86 445.113V454.336V472.88V490.933V500.351C1097.86 501.856 1097.53 502.871 1096.88 503.392C1096.56 503.72 1095.55 503.981 1093.86 504.177H1085.07H1068.47H1051.67H1043.08C1041.52 504.177 1040.38 503.917 1039.66 503.392C1039.34 502.936 1039.08 501.921 1038.88 500.351V494.563V484.064V474.841V468.66C1038.88 467.484 1039.14 466.732 1039.66 466.404C1039.92 466.144 1040.54 465.881 1041.52 465.619C1042.1 465.619 1042.69 465.424 1043.28 465.031C1043.6 464.704 1043.86 463.887 1044.06 462.577V449.529V425.197V400.865V387.816C1044.06 386.575 1043.8 385.789 1043.28 385.461C1043.14 385.397 1042.56 385.167 1041.52 384.775C1040.87 384.775 1040.25 384.579 1039.66 384.185C1039.34 383.86 1039.08 383.008 1038.88 381.635V375.748V367.113V357.696V352.104V351.907Z" fill="white"/>
<path d="M1038.88 351.907C1038.88 350.729 1039.14 349.781 1039.66 349.061C1040.12 348.604 1041.26 348.276 1043.08 348.081H1051.87H1068.47H1085.07H1093.86C1095.35 348.081 1096.36 348.343 1096.88 348.865C1097.34 349.193 1097.66 349.912 1097.86 351.024V360.344V378.593V396.647V406.163C1097.86 407.603 1097.53 408.651 1096.88 409.303C1096.56 409.827 1095.55 410.185 1093.86 410.381H1091.32H1088.88H1086.05H1083.7C1082.2 410.381 1081.13 410.024 1080.48 409.303C1080.15 408.845 1079.89 407.799 1079.7 406.163V402.729V397.529V392.428V388.993C1079.7 387.685 1079.5 386.835 1079.11 386.443C1078.92 386.049 1078.04 385.853 1076.48 385.853H1072.08H1067.1H1066.13H1065.25C1063.94 385.853 1063.1 385.987 1062.71 386.247C1062.32 386.443 1062.12 386.901 1062.12 387.62V388.209V388.993V393.899V402.533V410.381V415.385C1062.12 416.955 1062.25 417.873 1062.51 418.133C1062.58 418.265 1063.16 418.428 1064.27 418.623H1067.49H1072.86H1076.48H1079.7C1081 418.623 1082.01 418.82 1082.73 419.213C1083.18 419.541 1083.51 420.26 1083.7 421.371V424.608V428.239V429.024V429.808C1083.7 431.181 1083.38 432.197 1082.73 432.849C1082.46 433.308 1081.46 433.635 1079.7 433.831H1076.48H1072.47H1068.47H1065.25C1063.81 433.831 1062.9 433.963 1062.51 434.223C1062.45 434.289 1062.32 435.239 1062.12 437.068V442.072V449.921V457.771V462.577C1062.12 464.084 1062.25 465.097 1062.51 465.619C1062.64 466.077 1063.23 466.404 1064.27 466.601H1067.1H1071.11H1074.72H1077.45C1078.43 466.601 1079.11 466.404 1079.5 466.012C1079.63 465.752 1079.7 465.195 1079.7 464.344V463.951V463.363V462.971V462.381V459.144V453.551V448.548V445.113C1079.7 443.676 1079.96 442.793 1080.48 442.465C1080.54 442.4 1081.29 442.269 1082.73 442.072H1085.26H1089.27H1092.29H1094.93C1096.3 442.072 1097.14 442.335 1097.47 442.857L1097.86 445.113V454.336V472.88V490.933V500.351C1097.86 501.856 1097.53 502.871 1096.88 503.392C1096.56 503.72 1095.55 503.981 1093.86 504.177H1085.07H1068.47H1051.67H1043.08C1041.52 504.177 1040.38 503.917 1039.66 503.392C1039.34 502.936 1039.08 501.921 1038.88 500.351V494.563V484.064V474.841V468.66C1038.88 467.484 1039.14 466.732 1039.66 466.404C1039.92 466.144 1040.54 465.881 1041.52 465.619C1042.1 465.619 1042.69 465.424 1043.28 465.031C1043.6 464.704 1043.86 463.887 1044.06 462.577V449.529V425.197V400.865V387.816C1044.06 386.575 1043.8 385.789 1043.28 385.461C1043.14 385.397 1042.56 385.167 1041.52 384.775C1040.87 384.775 1040.25 384.579 1039.66 384.185C1039.34 383.86 1039.08 383.008 1038.88 381.635V375.748V367.113V357.696V352.104V351.907Z" stroke="#202751" stroke-width="4" stroke-miterlimit="10"/>
<path d="M1164.07 461.793V463.559C1164.07 474.744 1163.15 484.196 1161.33 491.913C1159.7 499.893 1153.42 503.981 1142.49 504.177C1139.23 504.177 1136.79 503.72 1135.16 502.804C1133.8 502.085 1132.46 501.072 1131.16 499.763C1130.83 499.371 1130.41 498.781 1129.89 497.996C1129.76 497.408 1129.5 496.853 1129.11 496.328L1128.52 497.505C1128.2 498.552 1127.87 499.371 1127.55 499.959L1127.35 500.156V500.351C1127.22 500.679 1127.04 501.005 1126.81 501.332C1126.58 501.66 1126.34 502.085 1126.08 502.607C1125.95 503 1125.75 503.328 1125.5 503.589H1123.54H1119.73H1116.51H1114.36C1113.13 503.589 1112.12 503.392 1111.34 503C1110.88 502.74 1110.56 501.529 1110.36 499.371V491.128V476.215V461.008V452.963C1110.36 451.589 1110.49 450.772 1110.75 450.509C1111.08 450.184 1111.92 449.921 1113.29 449.725H1115.73H1118.95H1121.1H1123.35C1124.65 449.725 1125.5 450.117 1125.89 450.903C1126.28 451.492 1126.47 453.16 1126.47 455.907C1126.47 459.569 1127.35 462.185 1129.11 463.756C1130.93 465.391 1132.95 466.208 1135.16 466.208H1135.55H1136.14C1138.22 466.012 1140.14 465.064 1141.9 463.363C1143.59 461.925 1144.54 459.668 1144.73 456.593C1144.73 451.688 1143.79 447.927 1141.9 445.311C1140.4 442.629 1138.48 440.34 1136.14 438.441C1135.49 437.985 1134.79 437.527 1134.04 437.068C1133.29 436.611 1132.59 436.153 1131.94 435.695C1129.86 434.257 1128.78 433.504 1128.72 433.437C1123.77 429.383 1119.83 425.492 1116.9 421.764C1114.3 418.035 1112.44 414.568 1111.34 411.364C1110.95 409.86 1110.39 406.785 1109.68 402.141C1109.68 397.693 1109.61 394.26 1109.48 391.839V389.68V387.227V386.835V386.247V383.008V379.575C1109.48 371.988 1110.69 364.76 1113.09 357.892C1115.31 351.548 1120.91 348.276 1129.89 348.081C1133.47 348.081 1136.33 348.473 1138.48 349.259C1140.44 349.979 1141.9 350.796 1142.88 351.711C1143.53 352.3 1144.08 353.151 1144.54 354.263C1144.54 355.047 1144.6 355.439 1144.73 355.439C1144.67 355.439 1144.73 355.112 1144.93 354.457C1144.93 353.672 1145.11 352.905 1145.46 352.153C1145.82 351.401 1146.29 350.632 1146.88 349.847C1147.53 349.061 1148.41 348.669 1149.52 348.669H1152.35H1155.67H1157.52H1159.28C1161.17 348.669 1162.37 348.932 1162.89 349.453C1163.22 349.781 1163.48 350.796 1163.67 352.495V360.541V375.356V390.269V398.315C1163.67 399.688 1163.48 400.668 1163.09 401.257C1162.96 401.651 1161.82 401.944 1159.67 402.141H1154.89H1151.47H1151.08H1150.88H1150.49H1150.1C1149.32 402.141 1148.67 401.651 1148.15 400.668C1147.89 400.08 1147.6 397.889 1147.27 394.096C1147.27 391.348 1146.42 389.272 1144.73 387.865C1143.04 386.459 1141.08 385.659 1138.87 385.461H1138.48H1138.29C1135.88 385.461 1133.7 386.247 1131.75 387.816C1130.05 389.189 1129.11 391.48 1128.91 394.684C1128.91 399 1130.12 402.764 1132.53 405.967C1134.93 408.78 1137.67 411.495 1140.73 414.109L1141.12 414.601L1141.51 414.797C1142.55 415.844 1143.36 416.629 1143.95 417.152C1144.73 417.74 1145.58 418.493 1146.49 419.408C1146.75 419.671 1146.94 419.933 1147.08 420.193C1147.4 420.193 1147.69 420.325 1147.95 420.585C1148.74 421.371 1149.45 422.123 1150.1 422.843C1150.75 423.301 1151.5 424.02 1152.35 425C1155.15 427.748 1157.88 431.836 1160.55 437.265C1162.89 442.433 1164.07 450.673 1164.07 461.989V461.793Z" fill="white"/>
<path d="M1164.07 461.793V463.559C1164.07 474.744 1163.15 484.196 1161.33 491.913C1159.7 499.893 1153.42 503.981 1142.49 504.177C1139.23 504.177 1136.79 503.72 1135.16 502.804C1133.8 502.085 1132.46 501.072 1131.16 499.763C1130.83 499.371 1130.41 498.781 1129.89 497.996C1129.76 497.408 1129.5 496.853 1129.11 496.328L1128.52 497.505C1128.2 498.552 1127.87 499.371 1127.55 499.959L1127.35 500.156V500.351C1127.22 500.679 1127.04 501.005 1126.81 501.332C1126.58 501.66 1126.34 502.085 1126.08 502.607C1125.95 503 1125.75 503.328 1125.5 503.589H1123.54H1119.73H1116.51H1114.36C1113.13 503.589 1112.12 503.392 1111.34 503C1110.88 502.74 1110.56 501.529 1110.36 499.371V491.128V476.215V461.008V452.963C1110.36 451.589 1110.49 450.772 1110.75 450.509C1111.08 450.184 1111.92 449.921 1113.29 449.725H1115.73H1118.95H1121.1H1123.35C1124.65 449.725 1125.5 450.117 1125.89 450.903C1126.28 451.492 1126.47 453.16 1126.47 455.907C1126.47 459.569 1127.35 462.185 1129.11 463.756C1130.93 465.391 1132.95 466.208 1135.16 466.208H1135.55H1136.14C1138.22 466.012 1140.14 465.064 1141.9 463.363C1143.59 461.925 1144.54 459.668 1144.73 456.593C1144.73 451.688 1143.79 447.927 1141.9 445.311C1140.4 442.629 1138.48 440.34 1136.14 438.441C1135.49 437.985 1134.79 437.527 1134.04 437.068C1133.29 436.611 1132.59 436.153 1131.94 435.695C1129.86 434.257 1128.78 433.504 1128.72 433.437C1123.77 429.383 1119.83 425.492 1116.9 421.764C1114.3 418.035 1112.44 414.568 1111.34 411.364C1110.95 409.86 1110.39 406.785 1109.68 402.141C1109.68 397.693 1109.61 394.26 1109.48 391.839V389.68V387.227V386.835V386.247V383.008V379.575C1109.48 371.988 1110.69 364.76 1113.09 357.892C1115.31 351.548 1120.91 348.276 1129.89 348.081C1133.47 348.081 1136.33 348.473 1138.48 349.259C1140.44 349.979 1141.9 350.796 1142.88 351.711C1143.53 352.3 1144.08 353.151 1144.54 354.263C1144.54 355.047 1144.6 355.439 1144.73 355.439C1144.67 355.439 1144.73 355.112 1144.93 354.457C1144.93 353.672 1145.11 352.905 1145.46 352.153C1145.82 351.401 1146.29 350.632 1146.88 349.847C1147.53 349.061 1148.41 348.669 1149.52 348.669H1152.35H1155.67H1157.52H1159.28C1161.17 348.669 1162.37 348.932 1162.89 349.453C1163.22 349.781 1163.48 350.796 1163.67 352.495V360.541V375.356V390.269V398.315C1163.67 399.688 1163.48 400.668 1163.09 401.257C1162.96 401.651 1161.82 401.944 1159.67 402.141H1154.89H1151.47H1151.08H1150.88H1150.49H1150.1C1149.32 402.141 1148.67 401.651 1148.15 400.668C1147.89 400.08 1147.6 397.889 1147.27 394.096C1147.27 391.348 1146.42 389.272 1144.73 387.865C1143.04 386.459 1141.08 385.659 1138.87 385.461H1138.48H1138.29C1135.88 385.461 1133.7 386.247 1131.75 387.816C1130.05 389.189 1129.11 391.48 1128.91 394.684C1128.91 399 1130.12 402.764 1132.53 405.967C1134.93 408.78 1137.67 411.495 1140.73 414.109L1141.12 414.601L1141.51 414.797C1142.55 415.844 1143.36 416.629 1143.95 417.152C1144.73 417.74 1145.58 418.493 1146.49 419.408C1146.75 419.671 1146.94 419.933 1147.08 420.193C1147.4 420.193 1147.69 420.325 1147.95 420.585C1148.74 421.371 1149.45 422.123 1150.1 422.843C1150.75 423.301 1151.5 424.02 1152.35 425C1155.15 427.748 1157.88 431.836 1160.55 437.265C1162.89 442.433 1164.07 450.673 1164.07 461.989V461.793Z" stroke="#202751" stroke-width="4" stroke-miterlimit="10"/>
</g>
<defs>
<clipPath id="clip0_2_2">
<rect width="1256" height="515" fill="white"/>
</clipPath>
</defs>
</svg>
