<svg width="1256" height="515" viewBox="0 0 1256 515" fill="none" xmlns="http://www.w3.org/2000/svg">
<g clip-path="url(#clip0_2_55)">
<path d="M595.82 100.802L595.193 98.9027L595.82 100.802C587.458 103.561 539.023 119.964 486.381 157.736C470.717 168.975 458.123 178.019 449.648 186.195C441.13 194.412 437.285 201.276 438.085 208.136C438.997 215.962 445.872 223.06 457.353 229.403C468.72 235.684 484.025 240.903 500.641 245.218C533.849 253.844 571.797 258.74 592.765 261.444C614.252 264.215 660.821 269.218 734.636 265.499L734.737 267.496L734.636 265.499C742.93 265.081 784.86 262.563 835.349 252.979C885.89 243.386 944.754 226.758 987.079 198.244C1005.24 186.012 1015.73 172.769 1018.6 157.329C1021.96 139.269 1012.12 121.5 999.423 108.58C975.137 84.1406 942.933 69.6555 910.63 58.0573C830.663 30.7424 745.116 28.5922 661.088 28.108C537.423 27.7844 413.724 36.8959 291.553 56.0846C256.762 62.2931 222.136 69.1804 188.09 78.3578L186.766 74.5953C220.727 59.6898 256.707 50.5222 292.348 41.4406C293.562 41.1313 294.775 40.8221 295.988 40.5127L296.007 40.5079L296.026 40.5035C430.016 9.09802 568.345 0.823822 705.47 3.44839L705.479 3.44858L705.489 3.44885C794.419 5.98953 885.606 10.1826 970.483 40.8511L970.493 40.8546L970.502 40.8582C974.608 42.3899 978.743 43.9091 982.895 45.4344C1019.92 59.0376 1058.24 73.1149 1088.03 100.662C1103.38 114.835 1118.19 135.502 1113.08 158.571L1111.31 158.179L1113.08 158.571C1107.53 183.641 1087.13 201.154 1063.22 215.851C985.093 263.86 899.858 283.86 825.265 295.282L824.962 293.308L825.265 295.282C772.696 303.33 730.866 306.282 707.269 307.545L707.243 307.547L707.079 307.56C706.934 307.572 706.719 307.589 706.435 307.61C705.865 307.654 705.018 307.715 703.901 307.79C701.667 307.939 698.353 308.141 694.023 308.35C685.362 308.769 672.635 309.218 656.348 309.344C623.774 309.596 576.959 308.553 519.953 303.378C518.016 303.203 516.093 303.033 514.17 302.863C493.893 301.069 473.671 299.28 437.553 290.867C402.78 282.767 366.982 274.319 335.476 255.985L335.472 255.982C323.421 248.93 310.882 238.271 308.404 222.898L308.394 222.833L308.387 222.767C307.255 210.732 314.882 200.614 321.766 192.773L321.784 192.752L321.803 192.731C336.017 177.424 354.107 166.759 371.806 156.8L371.82 156.792L371.834 156.785C432.09 124.102 498.077 104.641 563.308 85.6425L563.322 85.6385L563.336 85.6348C642.508 63.7896 723.359 46.3238 805.536 40.3767C816.832 39.2286 827.931 41.7259 838.6 44.1265C841.345 44.7443 844.062 45.3556 846.747 45.8968L846.561 49.8464C796.342 55.1311 694.14 68.3442 595.82 100.802Z" fill="#202751" stroke="white" stroke-width="4"/>
<path d="M916.596 16.7046L917.278 12.8098C967.018 13.9023 1016.29 20.9834 1065.31 28.1236L1065.36 28.1302L1065.4 28.139C1067.28 28.501 1069.16 28.8626 1071.03 29.2245C1119.15 38.4904 1168.57 48.0061 1212.58 71.3912L1212.6 71.4006L1212.62 71.4105C1229.87 81.027 1249.06 95.0605 1252.97 116.828L1252.98 116.897L1252.99 116.966C1255.07 136.183 1242.23 152.88 1229.5 164.574L1229.48 164.595L1229.46 164.615C1199.22 190.722 1162.1 206.487 1126.03 221.521L1120.34 223.892L1123.55 218.632C1141.65 188.988 1147.3 149.596 1128.62 119.323C1103.64 78.9342 1057.88 58.3357 1014.17 43.129L1014.15 43.1246L1014.14 43.1201C998.365 37.3957 982.07 33.505 965.636 29.6848C964.745 29.4776 963.853 29.2706 962.961 29.0636C947.441 25.4609 931.815 21.8337 916.596 16.7046Z" fill="#202751" stroke="white" stroke-width="4"/>
<path d="M517.282 64.3792L517.307 64.3742L517.331 64.3698L517.641 64.3146C542.352 59.9023 567.753 55.367 593.322 58.176L593.473 62.1297C515.246 76.8206 439.46 102.864 365.766 132.932C332.227 149.023 299.552 168.996 275.946 198.017L275.94 198.024C264.73 211.68 263.621 233.272 276.11 246.163C295.187 265.766 322.441 273.896 348.786 280.645L348.467 284.575C313.156 287.727 277.54 289.391 242.095 287.041L242.024 287.036L241.954 287.027C241.527 286.968 241.098 286.909 240.667 286.85C231.245 285.556 221.022 284.152 211.5 281.147C201.511 277.994 192.133 273.034 185.098 264.442L184.913 264.216L184.8 263.946C178.532 248.951 183.542 232.028 192.412 219.755C208.529 197.413 228.519 177.994 250.631 161.724C237.591 160.643 224.149 159.894 210.325 159.546C131.175 157.556 60.9663 169.229 2.51786 185.207L1.04497 181.515C68.9481 145.085 146.839 136.153 221.806 127.555C225.008 127.188 228.205 126.821 231.395 126.453L231.456 126.446L231.517 126.443C242.551 125.851 253.642 124.881 264.768 123.908C284.461 122.186 304.267 120.455 324.066 120.791L324.068 120.791C331.508 120.926 338.669 119.311 345.803 116.99C350.1 115.591 354.243 113.992 358.427 112.377C361.301 111.267 364.194 110.151 367.169 109.086C416.194 91.2398 466.018 74.8589 517.282 64.3792Z" fill="#406EB9" stroke="white" stroke-width="4"/>
<path d="M463.647 177.418C467.629 174.066 471.483 171.353 474.968 169.168L475.63 168.753L476.399 168.897C605.427 193.093 711.256 224.55 784.836 249.962C821.626 262.668 850.357 273.863 869.896 281.885C877.427 284.977 883.592 287.597 888.328 289.651C809.444 218.754 744.06 172.975 697.935 144.74C672.58 129.22 644.55 114.743 620.242 103.168L616.542 101.406L620.208 99.5738C625.621 96.8678 631.859 94.1197 638.892 91.6294L638.892 91.6293C645.411 89.3214 651.528 87.6167 657.071 86.3465L657.861 86.1656L658.554 86.5853C778.966 159.505 852.411 220.324 895.78 262.964C917.465 284.284 931.631 301.058 940.389 312.528C944.768 318.262 947.795 322.67 949.733 325.656C950.702 327.149 951.399 328.287 951.857 329.057C952.086 329.442 952.256 329.736 952.369 329.936C952.426 330.036 952.469 330.112 952.498 330.165L952.533 330.227L952.542 330.245L952.545 330.251C952.546 330.252 952.547 330.254 950.789 331.207L952.547 330.254L955.048 334.869L950.11 333.088C844.199 294.895 720.363 259.661 622.979 233.97C565.761 218.875 508.417 204.436 453.462 191.764L450.224 191.017L452.4 188.505C455.385 185.059 459.102 181.242 463.647 177.418ZM463.647 177.418L464.924 178.935L463.647 177.418C463.647 177.418 463.647 177.418 463.647 177.418Z" fill="#406EB9" stroke="white" stroke-width="4"/>
<path d="M89.9562 362.119C89.9562 360.941 90.2154 359.996 90.7368 359.275C91.3225 358.948 92.3966 358.685 93.959 358.491H104.017H121.983H140.342H150.204C151.571 358.491 152.708 358.883 153.621 359.667C153.946 360.191 154.207 361.139 154.402 362.512V371.147V387.629V404.111V412.551C154.402 413.859 154.207 414.708 153.816 415.101L151.179 415.493H149.422H147.762H145.809H144.149C143.172 415.493 142.392 415.296 141.807 414.904C141.479 414.577 141.22 413.727 141.025 412.353V409.704V406.073V402.836V400.285C141.025 398.912 140.6 397.899 139.755 397.244C139.234 396.984 138.81 396.787 138.486 396.656C138.159 396.525 137.802 396.395 137.412 396.263H137.021H136.826H135.751H134.775H132.334H131.358V410.097V436.587V464.353V477.009H131.944H133.603H133.994C134.515 477.009 134.971 477.141 135.361 477.401C135.751 477.599 135.947 478.154 135.947 479.069V481.817V487.213V491.04V494.867V505.167V510.76C135.947 512.003 135.751 513.016 135.361 513.801C135.166 514.129 134.71 514.389 133.994 514.587H129.795H122.179H114.367H110.168C109.712 514.587 109.321 514.26 108.996 513.605C108.996 513.671 108.866 512.721 108.606 510.76V505.167V494.867V484.465V478.775C108.606 478.253 108.736 477.86 108.996 477.599C109.061 477.534 109.387 477.401 109.973 477.205H110.168H110.364H110.95H111.535H113H113.586V396.263C113.325 396.263 112.805 396.329 112.024 396.459H107.825C105.936 396.459 104.732 396.787 104.212 397.441C103.821 398.029 103.626 398.977 103.626 400.285V403.034V406.859V411.077V413.727C103.626 414.185 103.333 414.577 102.747 414.904C102.357 415.101 101.771 415.296 100.99 415.493H100.208H99.6225H98.9393H98.3536H96.5953H94.1543C92.7221 415.493 91.6797 415.429 91.0296 415.296C90.5083 415.165 90.151 414.577 89.9562 413.53V405.093V387.825V371.147V362.316V362.119Z" fill="#406EB9"/>
<path d="M188.579 396.066V476.813L188.383 477.009H187.993H189.554C191.313 477.009 192.386 477.141 192.778 477.401C193.232 477.534 193.558 478.417 193.753 480.052V485.839V495.454V505.167V510.76C193.753 512.265 193.427 513.279 192.778 513.801C192.255 514.129 191.118 514.389 189.359 514.587H185.356H179.009H172.369H168.365C166.998 514.587 165.858 514.389 164.948 513.997C164.622 513.671 164.363 512.592 164.166 510.76V505.167V495.454V485.644V480.052C164.166 479.136 164.558 478.384 165.338 477.795C165.925 477.534 166.738 477.272 167.78 477.009H167.975H168.365H169.342V396.066V396.263H169.732H170.221H168.365C166.803 396.263 165.663 395.904 164.948 395.184C164.622 394.727 164.363 393.68 164.166 392.044V386.551V377.131V368.105V362.512C164.166 361.008 164.411 360.009 164.899 359.52C165.387 359.029 166.543 358.685 168.365 358.491H172.369H179.009H185.356H189.554C191.181 358.491 192.255 358.817 192.778 359.471C193.232 359.799 193.558 360.812 193.753 362.512V368.105V377.131V386.551V392.044C193.753 393.353 193.558 394.399 193.168 395.184C193.036 395.708 192.255 396.066 190.824 396.263H188.579V396.066Z" fill="#406EB9"/>
<path d="M259.177 472.203V473.968C259.177 485.153 258.264 494.605 256.442 502.323C254.815 510.303 248.533 514.389 237.597 514.587C234.341 514.587 231.9 514.129 230.273 513.213C228.906 512.494 227.57 511.481 226.27 510.171C225.943 509.779 225.52 509.191 225 508.405C224.868 507.817 224.61 507.263 224.218 506.737L223.633 507.915C223.307 508.961 222.981 509.779 222.656 510.368L222.461 510.564V510.76C222.33 511.088 222.152 511.415 221.924 511.741C221.696 512.069 221.451 512.494 221.191 513.016C221.061 513.409 220.866 513.737 220.606 513.997H218.653H214.846H211.622H209.474C208.237 513.997 207.229 513.801 206.447 513.409C205.992 513.149 205.667 511.939 205.472 509.779V501.537V486.624V471.417V463.372C205.472 461.997 205.6 461.181 205.862 460.918C206.187 460.593 207.034 460.33 208.4 460.135H210.841H214.064H216.212H218.458C219.76 460.135 220.606 460.527 220.996 461.312C221.388 461.9 221.583 463.568 221.583 466.316C221.583 469.979 222.461 472.595 224.218 474.164C226.042 475.8 228.06 476.616 230.273 476.616H230.663H231.25C233.332 476.422 235.252 475.473 237.01 473.772C238.702 472.334 239.647 470.077 239.842 467.001C239.842 462.097 238.899 458.335 237.01 455.718C235.512 453.039 233.592 450.749 231.25 448.851C230.598 448.393 229.898 447.936 229.151 447.477C228.401 447.02 227.702 446.561 227.051 446.104C224.967 444.665 223.892 443.913 223.828 443.847C218.881 439.792 214.943 435.9 212.014 432.172C209.409 428.442 207.554 424.977 206.447 421.773C206.057 420.269 205.502 417.195 204.787 412.551C204.787 408.103 204.722 404.668 204.592 402.248V400.089V397.636V397.244V396.656V393.417V389.984C204.592 382.396 205.796 375.168 208.205 368.301C210.417 361.957 216.016 358.685 225 358.491C228.58 358.491 231.445 358.883 233.592 359.667C235.547 360.387 237.01 361.205 237.987 362.119C238.637 362.709 239.191 363.559 239.647 364.671C239.647 365.455 239.711 365.848 239.842 365.848C239.777 365.848 239.842 365.521 240.037 364.867C240.037 364.081 240.216 363.315 240.575 362.561C240.932 361.811 241.405 361.041 241.991 360.256C242.641 359.471 243.519 359.079 244.627 359.079H247.459H250.779H252.634H254.391C256.28 359.079 257.482 359.34 258.005 359.863C258.33 360.191 258.59 361.205 258.785 362.904V370.949V385.765V400.677V408.723C258.785 410.097 258.59 411.077 258.2 411.665C258.069 412.059 256.93 412.353 254.783 412.551H249.998H246.581H246.189H245.994H245.604H245.213C244.431 412.551 243.781 412.059 243.261 411.077C242.999 410.489 242.706 408.299 242.382 404.504C242.382 401.757 241.534 399.681 239.842 398.275C238.149 396.868 236.196 396.066 233.984 395.871H233.592H233.397C230.989 395.871 228.808 396.656 226.855 398.224C225.162 399.599 224.218 401.888 224.024 405.093C224.024 409.409 225.228 413.172 227.637 416.376C230.044 419.189 232.779 421.904 235.839 424.518L236.229 425.009L236.62 425.206C237.661 426.253 238.475 427.039 239.062 427.56C239.842 428.149 240.688 428.901 241.601 429.817C241.859 430.08 242.054 430.341 242.186 430.603C242.511 430.603 242.804 430.733 243.064 430.995C243.846 431.779 244.561 432.532 245.213 433.252C245.863 433.711 246.611 434.429 247.459 435.409C250.258 438.157 252.991 442.245 255.661 447.673C258.005 452.841 259.177 461.083 259.177 472.397V472.203Z" fill="#406EB9"/>
<path d="M299.221 396.263C298.697 396.263 298.173 396.591 297.65 397.244C297.65 397.311 297.519 398.029 297.259 399.403V411.665V436.783V461.704V473.968C297.259 475.015 297.454 475.832 297.846 476.422C298.239 476.813 298.697 477.009 299.221 477.009H299.714H300.106H301.874H303.74C306.554 477.009 309.009 476.259 311.104 474.753C313.198 473.511 314.345 470.436 314.541 465.53V455.327V435.215V417.357V405.879C314.541 401.757 313.591 399.141 311.692 398.029C310.056 396.917 308.059 396.263 305.704 396.066H305.311H305.114C304.589 396.066 304.033 396.132 303.445 396.263H301.874C301.348 396.263 300.891 396.329 300.499 396.459H299.221V396.263ZM270.894 361.433C270.894 360.715 271.153 359.996 271.676 359.275C272.129 358.948 273.139 358.685 274.701 358.491H281.635H294.817H307.609H314.835C321.995 358.491 326.877 360.551 329.482 364.671C331.889 368.791 333.094 374.677 333.094 382.33V402.052V436.391V472.987V491.04C333.094 492.413 333.029 493.557 332.9 494.473C332.9 496.108 332.804 497.318 332.61 498.104C332.22 502.356 330.698 506.182 328.042 509.582C325.776 512.721 321.276 514.389 314.541 514.587H306.321H295.263H281.267H273.829C272.981 514.587 272.262 514.389 271.677 513.997C271.284 513.605 271.089 512.854 271.089 511.741V506.346V495.454V484.859V479.266C271.089 478.089 271.479 477.401 272.261 477.205C272.781 477.075 273.252 476.995 273.677 476.96C274.099 476.928 274.571 476.88 275.093 476.813C276.264 476.813 277.175 476.683 277.826 476.422C278.671 476.224 279.096 475.406 279.096 473.968V461.9V436.587V411.275V399.009C279.096 397.703 278.671 396.852 277.826 396.459C277.046 396.066 276.133 395.871 275.093 395.871H274.897H274.701H274.214C273.172 395.871 272.391 395.74 271.871 395.479C271.414 395.217 271.089 394.464 270.894 393.221V387.433V377.523V367.32V361.629V361.433Z" fill="#406EB9"/>
<path d="M385.237 435.017L379.086 401.071L373.027 435.017H385.237ZM348.146 476.616L360.782 396.066H355.199V358.293C356.831 358.293 359.313 358.359 362.642 358.491H379.063H384.635H390.4H399.002H402.618V396.263H397.248L409.648 476.616H414.824V514.587H383.675V476.224H392.464L388.069 454.935H370.283L366.463 477.009H374.691V514.587H343.543V476.616H348.146Z" fill="#406EB9"/>
<path d="M428.593 362.512C428.593 361.205 428.853 360.191 429.377 359.471C429.833 359.013 430.91 358.685 432.608 358.491H437.015H444.459H451.414H456.019C457.52 358.491 458.531 358.817 459.055 359.471C459.512 359.929 459.838 361.008 460.034 362.709V368.105V377.328V386.745V392.044C460.034 393.287 459.708 394.334 459.058 395.184C458.601 395.708 457.528 396.066 455.836 396.263H453.296H453.101V476.813C453.492 476.813 454.208 476.88 455.249 477.009H459.839H463.648H466.285C467.195 477.009 467.91 476.749 468.432 476.224C468.757 475.897 469.018 475.145 469.213 473.968V469.356V460.723V452.284V447.477C469.213 446.169 469.424 445.304 469.847 444.879C470.269 444.452 471.068 444.24 472.24 444.24H474.682H478.489H481.809H484.446C485.681 444.24 486.496 444.436 486.887 444.829C487.278 445.025 487.473 445.908 487.473 447.477V458.172V479.069V499.869V510.564C487.473 512.2 487.146 513.279 486.495 513.801C486.168 514.129 485.157 514.389 483.464 514.587H474.661H458.032H441.21H432.601C431.297 514.587 430.287 514.327 429.571 513.801C429.113 513.541 428.788 512.527 428.593 510.76V505.167V495.454V485.644V480.052C428.593 478.742 428.851 477.927 429.374 477.599C429.764 477.205 430.48 477.009 431.521 477.009H433.573H434.548V396.263V396.459H434.354H432.4C431.034 396.459 430.023 396.132 429.374 395.479C429.046 394.759 428.788 393.68 428.593 392.24V387.04V377.328V368.105V362.709V362.512Z" fill="#406EB9"/>
<path d="M497.238 362.316C497.238 361.139 497.497 360.191 498.02 359.471C498.473 359.013 499.613 358.685 501.437 358.491H510.224H526.825H543.424H552.211C553.708 358.491 554.718 358.752 555.24 359.275C555.693 359.603 556.021 360.321 556.216 361.433V370.753V389.001V407.054V416.572C556.216 418.011 555.888 419.059 555.24 419.712C554.913 420.236 553.905 420.595 552.211 420.791H549.673H547.232H544.401H542.057C540.559 420.791 539.485 420.433 538.834 419.712C538.509 419.255 538.249 418.208 538.054 416.572V413.139V407.939V402.836V399.403C538.054 398.095 537.859 397.244 537.468 396.852C537.272 396.459 536.394 396.263 534.832 396.263H530.437H525.456H524.48H523.601C522.298 396.263 521.454 396.395 521.063 396.656C520.673 396.852 520.478 397.311 520.478 398.029V398.617V399.403V404.308V412.941V420.791V425.795C520.478 427.364 520.608 428.281 520.868 428.542C520.931 428.673 521.518 428.836 522.626 429.032H525.848H531.218H534.832H538.054C539.354 429.032 540.364 429.228 541.081 429.621C541.536 429.949 541.862 430.668 542.057 431.779V435.017V438.648V439.433V440.217C542.057 441.591 541.731 442.606 541.081 443.259C540.819 443.717 539.811 444.044 538.054 444.24H534.832H530.828H526.825H523.601C522.17 444.24 521.258 444.372 520.868 444.632C520.801 444.699 520.673 445.648 520.478 447.477V452.481V460.33V468.179V472.987C520.478 474.493 520.608 475.505 520.868 476.028C520.998 476.487 521.583 476.813 522.626 477.009H525.456H529.46H533.073H535.808C536.784 477.009 537.468 476.813 537.859 476.422C537.989 476.161 538.054 475.604 538.054 474.753V474.36V473.772V473.38V472.791V469.552V463.96V458.956V455.523C538.054 454.085 538.312 453.203 538.834 452.875C538.899 452.809 539.649 452.677 541.081 452.481H543.619H547.623H550.649H553.286C554.653 452.481 555.498 452.744 555.825 453.266L556.216 455.523V464.745V483.288V501.341V510.76C556.216 512.265 555.888 513.279 555.24 513.801C554.913 514.129 553.905 514.389 552.211 514.587H543.424H526.825H510.029H501.437C499.875 514.587 498.735 514.327 498.02 513.801C497.692 513.344 497.433 512.33 497.238 510.76V504.972V494.473V485.251V479.069C497.238 477.892 497.497 477.141 498.02 476.813C498.278 476.552 498.898 476.291 499.875 476.028C500.46 476.028 501.045 475.832 501.632 475.44C501.957 475.112 502.218 474.296 502.413 472.987V459.939V435.606V411.275V398.224C502.413 396.984 502.152 396.199 501.632 395.871C501.5 395.806 500.915 395.576 499.875 395.184C499.222 395.184 498.605 394.988 498.02 394.595C497.692 394.269 497.433 393.417 497.238 392.044V386.157V377.523V368.105V362.512V362.316Z" fill="#406EB9"/>
<path d="M630.817 442.081C630.427 442.081 629.906 442.409 629.255 443.063C628.865 443.454 628.572 444.175 628.376 445.22V450.518V459.545V468.964V473.968C628.376 474.753 628.604 475.505 629.06 476.224C629.319 476.487 629.709 476.749 630.231 477.009H630.622H630.817H631.012H631.989H635.993C640.093 477.009 642.892 475.539 644.391 472.595C645.692 469.913 646.441 464.681 646.636 456.896C646.636 451.991 645.757 448.524 644 446.497C642.501 444.535 640.646 443.259 638.434 442.669C637.913 442.669 637.359 442.606 636.774 442.473C636.251 442.473 635.731 442.409 635.211 442.277H634.431H633.649H632.38H630.817V442.081ZM630.817 396.066C630.036 396.066 629.451 396.459 629.06 397.244C628.604 397.769 628.376 398.585 628.376 399.697V399.892V400.089V404.308V411.077V418.337V422.361C628.376 423.408 628.538 424.291 628.865 425.009C629.189 425.468 629.841 425.795 630.817 425.992H631.989H633.649H634.821H636.188C636.904 425.992 637.588 425.861 638.238 425.599C639.278 425.076 640.06 424.518 640.583 423.93C641.949 422.885 643.283 421.152 644.585 418.73C645.822 416.441 646.441 413.433 646.441 409.704C646.441 405.912 645.757 403.099 644.391 401.266C643.218 399.24 641.818 397.832 640.191 397.048C639.411 396.787 638.759 396.591 638.238 396.459C637.716 396.459 637.164 396.395 636.579 396.263H633.844H632.184H631.404H630.817V396.066ZM602.207 361.924C602.207 360.812 602.467 359.996 602.989 359.471C603.379 359.079 604.388 358.752 606.016 358.491H613.436H626.814H639.996H647.417C652.885 358.491 657.084 360.615 660.014 364.867C662.747 368.924 664.212 374.22 664.407 380.761V389.592V400.875V416.769V424.813V425.009C664.407 426.58 663.886 427.922 662.846 429.032C661.998 429.621 660.859 430.341 659.429 431.191C658.514 431.649 657.377 432.108 656.01 432.564C655.034 432.761 654.512 432.925 654.448 433.054C654.707 433.054 655.229 433.187 656.01 433.447C657.246 433.447 658.451 433.775 659.622 434.429C660.6 434.887 661.738 435.737 663.039 436.98C663.886 437.896 664.407 439.303 664.603 441.199V451.108V466.805V484.271V493.296C664.603 500.229 663.334 505.528 660.794 509.191C658.451 512.788 653.926 514.587 647.223 514.587H639.411H627.205H614.023H606.601C605.234 514.587 604.094 514.389 603.184 513.997C602.856 513.671 602.597 512.592 602.402 510.76V504.972V495.061V484.859V479.266C602.402 478.024 602.794 477.205 603.574 476.813C604.224 476.683 604.73 476.603 605.088 476.568C605.445 476.536 605.884 476.487 606.406 476.422H606.601C607.708 476.422 608.586 476.291 609.238 476.028C610.018 475.832 610.409 475.145 610.409 473.968V461.9V436.783V411.665V399.697C610.409 397.997 610.083 396.984 609.433 396.656C608.848 396.263 608.033 396.066 606.992 396.066H606.406H606.016H605.429H604.844C603.867 396.066 603.184 395.937 602.794 395.673C602.402 395.217 602.207 394.399 602.207 393.221V393.025V387.433V377.523V367.712V362.119V361.924Z" fill="#406EB9"/>
<path d="M719.187 465.53V396.263H714.792C714.271 396.263 713.815 396.199 713.425 396.066C713.035 395.871 712.84 395.249 712.84 394.203V388.806V378.308V368.301V362.709C712.84 361.467 713.035 360.452 713.425 359.667C713.75 359.211 714.207 358.883 714.792 358.685H718.796H726.608H734.418H738.423C738.943 358.685 739.399 359.079 739.79 359.863C739.79 359.929 739.92 360.879 740.18 362.709V368.301V378.308V388.806V394.203C740.18 394.923 739.985 395.479 739.595 395.871C739.399 395.937 739.219 395.985 739.057 396.017C738.894 396.052 738.618 396.132 738.228 396.263H737.838H737.447H737.25H735.786H735.396V477.205C735.396 489.896 732.791 499.347 727.584 505.56C722.375 511.579 716.649 514.587 710.398 514.587H709.813H709.227C703.173 514.389 697.509 511.053 692.236 504.579C687.027 498.04 684.425 488.587 684.425 476.224V462.587V436.391V408.92V396.263H683.644H681.983H681.008H680.226C679.704 396.263 679.248 396.149 678.858 395.92C678.468 395.691 678.273 395.052 678.273 394.005V391.454V385.765V382.135V378.112V368.105V362.512C678.273 361.271 678.468 360.256 678.858 359.471C679.185 359.013 679.64 358.685 680.226 358.491H684.62H693.017H701.611H706.003C706.459 358.491 706.947 358.883 707.47 359.667C707.47 359.732 707.6 360.681 707.86 362.512V368.105V378.308V388.806V394.203C707.86 394.923 707.663 395.479 707.273 395.871C706.688 395.871 706.2 395.937 705.81 396.066H705.418H705.028H704.833H703.271H702.586V465.53C702.586 469.454 703.465 472.397 705.224 474.36C706.72 476.127 708.641 477.009 710.984 477.009H711.277H711.668C713.295 477.009 715.019 475.997 716.842 473.968C718.405 472.005 719.187 469.259 719.187 465.727V465.53Z" fill="#406EB9"/>
<path d="M806.189 472.203V473.968C806.189 485.153 805.276 494.605 803.455 502.323C801.827 510.303 795.545 514.389 784.609 514.587C781.354 514.587 778.912 514.129 777.285 513.213C775.919 512.494 774.584 511.481 773.282 510.171C772.957 509.779 772.532 509.191 772.013 508.405C771.882 507.817 771.623 507.263 771.232 506.737L770.645 507.915C770.319 508.961 769.994 509.779 769.668 510.368L769.473 510.564V510.76C769.343 511.088 769.164 511.415 768.936 511.741C768.708 512.069 768.464 512.494 768.203 513.016C768.073 513.409 767.877 513.737 767.618 513.997H765.665H761.856H758.636H756.486C755.249 513.997 754.241 513.801 753.459 513.409C753.003 513.149 752.679 511.939 752.484 509.779V501.537V486.624V471.417V463.372C752.484 461.997 752.613 461.181 752.874 460.918C753.199 460.593 754.046 460.33 755.413 460.135H757.854H761.076H763.225H765.47C766.772 460.135 767.618 460.527 768.01 461.312C768.4 461.9 768.595 463.568 768.595 466.316C768.595 469.979 769.473 472.595 771.232 474.164C773.054 475.8 775.071 476.616 777.285 476.616H777.676H778.262C780.344 476.422 782.266 475.473 784.023 473.772C785.716 472.334 786.659 470.077 786.854 467.001C786.854 462.097 785.91 458.335 784.023 455.718C782.524 453.039 780.606 450.749 778.262 448.851C777.611 448.393 776.91 447.936 776.163 447.477C775.413 447.02 774.714 446.561 774.062 446.104C771.979 444.665 770.905 443.913 770.842 443.847C765.893 439.792 761.955 435.9 759.025 432.172C756.422 428.442 754.566 424.977 753.459 421.773C753.069 420.269 752.516 417.195 751.799 412.551C751.799 408.103 751.734 404.668 751.605 402.248V400.089V397.636V397.244V396.656V393.417V389.984C751.605 382.396 752.809 375.168 755.218 368.301C757.43 361.957 763.03 358.685 772.013 358.491C775.592 358.491 778.457 358.883 780.606 359.667C782.559 360.387 784.023 361.205 785.001 362.119C785.649 362.709 786.203 363.559 786.659 364.671C786.659 365.455 786.724 365.848 786.854 365.848C786.789 365.848 786.854 365.521 787.051 364.867C787.051 364.081 787.229 363.315 787.587 362.561C787.944 361.811 788.418 361.041 789.003 360.256C789.653 359.471 790.533 359.079 791.64 359.079H794.47H797.79H799.647H801.404C803.292 359.079 804.495 359.34 805.017 359.863C805.342 360.191 805.602 361.205 805.799 362.904V370.949V385.765V400.677V408.723C805.799 410.097 805.602 411.077 805.212 411.665C805.081 412.059 803.942 412.353 801.795 412.551H797.01H793.592H793.201H793.006H792.616H792.225C791.444 412.551 790.793 412.059 790.271 411.077C790.011 410.489 789.718 408.299 789.393 404.504C789.393 401.757 788.548 399.681 786.854 398.275C785.161 396.868 783.208 396.066 780.996 395.871H780.606H780.411C778.001 395.871 775.822 396.656 773.868 398.224C772.175 399.599 771.232 401.888 771.035 405.093C771.035 409.409 772.239 413.172 774.649 416.376C777.056 419.189 779.791 421.904 782.852 424.518L783.241 425.009L783.632 425.206C784.674 426.253 785.488 427.039 786.073 427.56C786.854 428.149 787.7 428.901 788.611 429.817C788.873 430.08 789.066 430.341 789.199 430.603C789.523 430.603 789.816 430.733 790.078 430.995C790.859 431.779 791.574 432.532 792.225 433.252C792.875 433.711 793.625 434.429 794.47 435.409C797.27 438.157 800.004 442.245 802.673 447.673C805.017 452.841 806.189 461.083 806.189 472.397V472.203Z" fill="#406EB9"/>
<path d="M853.548 362.512C853.548 361.205 853.808 360.191 854.332 359.471C854.789 359.013 855.865 358.685 857.562 358.491H861.972H869.415H876.368H880.974C882.475 358.491 883.486 358.817 884.01 359.471C884.467 359.929 884.793 361.008 884.988 362.709V368.105V377.328V386.745V392.044C884.988 393.287 884.662 394.334 884.013 395.184C883.557 395.708 882.483 396.066 880.79 396.263H878.251H878.057V476.813C878.448 476.813 879.163 476.88 880.204 477.009H884.795H888.602H891.239C892.15 477.009 892.865 476.749 893.387 476.224C893.712 475.897 893.973 475.145 894.167 473.968V469.356V460.723V452.284V447.477C894.167 446.169 894.378 445.304 894.803 444.879C895.225 444.452 896.024 444.24 897.195 444.24H899.636H903.444H906.764H909.401C910.636 444.24 911.451 444.436 911.843 444.829C912.233 445.025 912.428 445.908 912.428 447.477V458.172V479.069V499.869V510.564C912.428 512.2 912.101 513.279 911.45 513.801C911.123 514.129 910.112 514.389 908.419 514.587H899.614H882.987H866.165H857.557C856.252 514.587 855.242 514.327 854.525 513.801C854.068 513.541 853.742 512.527 853.548 510.76V505.167V495.454V485.644V480.052C853.548 478.742 853.807 477.927 854.328 477.599C854.72 477.205 855.435 477.009 856.477 477.009H858.527H859.503V396.263V396.459H859.308H857.355C855.988 396.459 854.978 396.132 854.328 395.479C854.002 394.759 853.742 393.68 853.548 392.24V387.04V377.328V368.105V362.709V362.512Z" fill="#406EB9"/>
<path d="M946.8 396.066V476.813L946.605 477.009H946.215H947.776C949.535 477.009 950.608 477.141 950.998 477.401C951.454 477.534 951.78 478.417 951.975 480.052V485.839V495.454V505.167V510.76C951.975 512.265 951.649 513.279 950.998 513.801C950.477 514.129 949.338 514.389 947.581 514.587H943.578H937.23H930.592H926.587C925.22 514.587 924.08 514.389 923.17 513.997C922.844 513.671 922.583 512.592 922.388 510.76V505.167V495.454V485.644V480.052C922.388 479.136 922.78 478.384 923.56 477.795C924.145 477.534 924.959 477.272 926.002 477.009H926.197H926.587H927.564V396.066V396.263H927.954H928.442H926.587C925.025 396.263 923.885 395.904 923.17 395.184C922.844 394.727 922.583 393.68 922.388 392.044V386.551V377.131V368.105V362.512C922.388 361.008 922.633 360.009 923.121 359.52C923.609 359.029 924.764 358.685 926.587 358.491H930.592H937.23H943.578H947.776C949.402 358.491 950.477 358.817 950.998 359.471C951.454 359.799 951.78 360.812 951.975 362.512V368.105V377.131V386.551V392.044C951.975 393.353 951.78 394.399 951.389 395.184C951.259 395.708 950.477 396.066 949.046 396.263H946.8V396.066Z" fill="#406EB9"/>
<path d="M1010.86 393.025V362.512C1010.86 361.139 1010.99 360.191 1011.25 359.667C1011.64 358.883 1012.65 358.491 1014.27 358.491H1018.28H1024.43H1030.48H1034.48C1035.92 358.491 1036.96 358.817 1037.61 359.471C1038.13 359.732 1038.49 360.747 1038.68 362.512V368.105V377.719V387.825V393.221C1038.68 394.269 1038.49 395.152 1038.1 395.871C1038.03 395.871 1037.15 396.001 1035.46 396.263H1032.83H1032.05V510.76C1032.05 512.396 1031.78 513.475 1031.26 513.997C1030.87 514.389 1029.93 514.587 1028.43 514.587H1025.89H1022.48H1018.67H1016.03H1015.64C1014.47 514.587 1013.62 514.523 1013.1 514.389C1012.65 514.389 1012.22 513.801 1011.83 512.624L984.687 396.263V476.813C984.817 476.813 985.011 476.88 985.273 477.009H987.615C988.852 477.009 989.731 477.272 990.252 477.795C990.642 478.187 990.839 479.005 990.839 480.247V485.839V495.651V505.364V510.956C990.839 512.396 990.642 513.409 990.252 513.997C990.057 514.389 989.179 514.587 987.615 514.587H983.222H976.68H969.844H965.646C964.733 514.587 964.084 514.456 963.692 514.194C963.627 514.129 963.497 513.671 963.302 512.821V511.546V509.976V504.384V494.669V484.859V479.266V478.187V477.599V477.205L963.692 477.009H964.474H965.451H967.891H968.282V396.263V396.459H968.673H968.868H967.306C965.938 396.459 964.929 396.132 964.278 395.479C963.822 394.825 963.497 393.68 963.302 392.044V386.353V376.935V367.32V361.629C963.302 360.256 963.561 359.407 964.084 359.079C964.669 358.685 965.646 358.491 967.013 358.491H972.09H981.464H981.854H982.441C986.606 358.491 989.666 358.555 991.619 358.685H995.819L1015.64 452.677V396.066C1015.38 396.066 1015.06 396.132 1014.66 396.263C1014.4 396.263 1014.08 396.199 1013.69 396.066C1012.97 396.066 1012.29 395.773 1011.64 395.184C1011.31 394.857 1011.05 394.203 1010.86 393.221V393.025Z" fill="#406EB9"/>
<path d="M1048.64 362.316C1048.64 361.139 1048.9 360.191 1049.42 359.471C1049.88 359.013 1051.02 358.685 1052.84 358.491H1061.63H1078.23H1094.83H1103.62C1105.12 358.491 1106.12 358.752 1106.65 359.275C1107.1 359.603 1107.43 360.321 1107.62 361.433V370.753V389.001V407.054V416.572C1107.62 418.011 1107.3 419.059 1106.65 419.712C1106.32 420.236 1105.31 420.595 1103.62 420.791H1101.08H1098.64H1095.81H1093.46C1091.96 420.791 1090.89 420.433 1090.24 419.712C1089.91 419.255 1089.66 418.208 1089.46 416.572V413.139V407.939V402.836V399.403C1089.46 398.095 1089.26 397.244 1088.87 396.852C1088.68 396.459 1087.8 396.263 1086.24 396.263H1081.84H1076.86H1075.89H1075.01C1073.71 396.263 1072.86 396.395 1072.47 396.656C1072.08 396.852 1071.88 397.311 1071.88 398.029V398.617V399.403V404.308V412.941V420.791V425.795C1071.88 427.364 1072.01 428.281 1072.27 428.542C1072.34 428.673 1072.92 428.836 1074.03 429.032H1077.25H1082.62H1086.24H1089.46C1090.76 429.032 1091.77 429.228 1092.49 429.621C1092.94 429.949 1093.27 430.668 1093.46 431.779V435.017V438.648V439.433V440.217C1093.46 441.591 1093.14 442.606 1092.49 443.259C1092.23 443.717 1091.22 444.044 1089.46 444.24H1086.24H1082.23H1078.23H1075.01C1073.58 444.24 1072.67 444.372 1072.27 444.632C1072.21 444.699 1072.08 445.648 1071.88 447.477V452.481V460.33V468.179V472.987C1071.88 474.493 1072.01 475.505 1072.27 476.028C1072.4 476.487 1072.99 476.813 1074.03 477.009H1076.86H1080.87H1084.48H1087.21C1088.19 477.009 1088.87 476.813 1089.26 476.422C1089.39 476.161 1089.46 475.604 1089.46 474.753V474.36V473.772V473.38V472.791V469.552V463.96V458.956V455.523C1089.46 454.085 1089.72 453.203 1090.24 452.875C1090.3 452.809 1091.05 452.677 1092.49 452.481H1095.03H1099.03H1102.06H1104.69C1106.06 452.481 1106.91 452.744 1107.23 453.266L1107.62 455.523V464.745V483.288V501.341V510.76C1107.62 512.265 1107.3 513.279 1106.65 513.801C1106.32 514.129 1105.31 514.389 1103.62 514.587H1094.83H1078.23H1061.43H1052.84C1051.28 514.587 1050.14 514.327 1049.42 513.801C1049.1 513.344 1048.84 512.33 1048.64 510.76V504.972V494.473V485.251V479.069C1048.64 477.892 1048.9 477.141 1049.42 476.813C1049.68 476.552 1050.3 476.291 1051.28 476.028C1051.87 476.028 1052.45 475.832 1053.04 475.44C1053.36 475.112 1053.62 474.296 1053.82 472.987V459.939V435.606V411.275V398.224C1053.82 396.984 1053.56 396.199 1053.04 395.871C1052.91 395.806 1052.32 395.576 1051.28 395.184C1050.63 395.184 1050.01 394.988 1049.42 394.595C1049.1 394.269 1048.84 393.417 1048.64 392.044V386.157V377.523V368.105V362.512V362.316Z" fill="#406EB9"/>
<path d="M1173.83 472.203V473.968C1173.83 485.153 1172.91 494.605 1171.09 502.323C1169.47 510.303 1163.18 514.389 1152.25 514.587C1148.99 514.587 1146.55 514.129 1144.92 513.213C1143.56 512.494 1142.22 511.481 1140.92 510.171C1140.59 509.779 1140.17 509.191 1139.65 508.405C1139.52 507.817 1139.26 507.263 1138.87 506.737L1138.28 507.915C1137.96 508.961 1137.63 509.779 1137.31 510.368L1137.11 510.564V510.76C1136.98 511.088 1136.8 511.415 1136.57 511.741C1136.35 512.069 1136.1 512.494 1135.84 513.016C1135.71 513.409 1135.52 513.737 1135.26 513.997H1133.3H1129.49H1126.27H1124.12C1122.89 513.997 1121.88 513.801 1121.1 513.409C1120.64 513.149 1120.32 511.939 1120.12 509.779V501.537V486.624V471.417V463.372C1120.12 461.997 1120.25 461.181 1120.51 460.918C1120.84 460.593 1121.68 460.33 1123.05 460.135H1125.49H1128.71H1130.86H1133.11C1134.41 460.135 1135.26 460.527 1135.65 461.312C1136.04 461.9 1136.23 463.568 1136.23 466.316C1136.23 469.979 1137.11 472.595 1138.87 474.164C1140.69 475.8 1142.71 476.616 1144.92 476.616H1145.31H1145.9C1147.98 476.422 1149.9 475.473 1151.66 473.772C1153.35 472.334 1154.3 470.077 1154.49 467.001C1154.49 462.097 1153.55 458.335 1151.66 455.718C1150.16 453.039 1148.24 450.749 1145.9 448.851C1145.25 448.393 1144.55 447.936 1143.8 447.477C1143.05 447.02 1142.35 446.561 1141.7 446.104C1139.62 444.665 1138.54 443.913 1138.48 443.847C1133.53 439.792 1129.59 435.9 1126.66 432.172C1124.06 428.442 1122.2 424.977 1121.1 421.773C1120.71 420.269 1120.15 417.195 1119.44 412.551C1119.44 408.103 1119.37 404.668 1119.24 402.248V400.089V397.636V397.244V396.656V393.417V389.984C1119.24 382.396 1120.45 375.168 1122.86 368.301C1125.07 361.957 1130.67 358.685 1139.65 358.491C1143.23 358.491 1146.1 358.883 1148.24 359.667C1150.2 360.387 1151.66 361.205 1152.64 362.119C1153.29 362.709 1153.84 363.559 1154.3 364.671C1154.3 365.455 1154.36 365.848 1154.49 365.848C1154.43 365.848 1154.49 365.521 1154.69 364.867C1154.69 364.081 1154.87 363.315 1155.23 362.561C1155.58 361.811 1156.06 361.041 1156.64 360.256C1157.29 359.471 1158.17 359.079 1159.28 359.079H1162.11H1165.43H1167.29H1169.04C1170.93 359.079 1172.13 359.34 1172.66 359.863C1172.98 360.191 1173.24 361.205 1173.44 362.904V370.949V385.765V400.677V408.723C1173.44 410.097 1173.24 411.077 1172.85 411.665C1172.72 412.059 1171.58 412.353 1169.43 412.551H1164.65H1161.23H1160.84H1160.64H1160.25H1159.86C1159.08 412.551 1158.43 412.059 1157.91 411.077C1157.65 410.489 1157.36 408.299 1157.03 404.504C1157.03 401.757 1156.18 399.681 1154.49 398.275C1152.8 396.868 1150.85 396.066 1148.63 395.871H1148.24H1148.05C1145.64 395.871 1143.46 396.656 1141.51 398.224C1139.81 399.599 1138.87 401.888 1138.67 405.093C1138.67 409.409 1139.88 413.172 1142.29 416.376C1144.69 419.189 1147.43 421.904 1150.49 424.518L1150.88 425.009L1151.27 425.206C1152.31 426.253 1153.13 427.039 1153.71 427.56C1154.49 428.149 1155.34 428.901 1156.25 429.817C1156.51 430.08 1156.71 430.341 1156.84 430.603C1157.16 430.603 1157.45 430.733 1157.72 430.995C1158.5 431.779 1159.21 432.532 1159.86 433.252C1160.51 433.711 1161.26 434.429 1162.11 435.409C1164.91 438.157 1167.64 442.245 1170.31 447.673C1172.66 452.841 1173.83 461.083 1173.83 472.397V472.203Z" fill="#406EB9"/>
<path d="M79.7917 351.907C79.7917 350.729 80.0509 349.783 80.5724 349.061C81.1582 348.736 82.2326 348.473 83.795 348.277H93.8522H111.819H130.177H140.039C141.406 348.277 142.544 348.669 143.456 349.455C143.781 349.977 144.043 350.925 144.238 352.3V360.933V377.417V393.899V402.337C144.238 403.646 144.043 404.495 143.652 404.888L141.016 405.28H139.257H137.597H135.645H133.985C133.008 405.28 132.227 405.084 131.641 404.692C131.315 404.364 131.055 403.515 130.86 402.141V399.491V395.861V392.624V390.073C130.86 388.699 130.436 387.687 129.591 387.03C129.069 386.771 128.646 386.575 128.322 386.442C127.995 386.312 127.638 386.183 127.247 386.049H126.857H126.662H125.587H124.611H122.17H121.193V399.884V426.373V454.141V466.797H121.779H123.44H123.83C124.35 466.797 124.806 466.928 125.197 467.189C125.587 467.385 125.783 467.941 125.783 468.858V471.604V477V480.827V484.653V494.954V500.547C125.783 501.791 125.587 502.804 125.197 503.588C125.001 503.917 124.546 504.177 123.83 504.373H119.631H112.015H104.203H100.005C99.5484 504.373 99.1575 504.047 98.832 503.392C98.832 503.459 98.7014 502.509 98.4417 500.547V494.954V484.653V474.252V468.563C98.4417 468.04 98.5718 467.647 98.832 467.385C98.8964 467.32 99.2229 467.189 99.8087 466.992H100.005H100.199H100.785H101.371H102.836H103.422V386.049C103.161 386.049 102.641 386.116 101.86 386.247H97.6605C95.7722 386.247 94.568 386.575 94.048 387.228C93.6572 387.816 93.4623 388.764 93.4623 390.073V392.82V396.646V400.864V403.515C93.4623 403.973 93.1694 404.364 92.5828 404.692C92.1929 404.888 91.6061 405.084 90.8254 405.28H90.0444H89.4586H88.7748H88.1891H86.4314H83.9905C82.5577 405.28 81.5153 405.216 80.8653 405.084C80.3438 404.953 79.9867 404.364 79.7917 403.317V394.88V377.612V360.933V352.103V351.907Z" fill="#202751"/>
<path d="M79.7917 351.907C79.7917 350.729 80.0509 349.783 80.5724 349.061C81.1582 348.736 82.2326 348.473 83.795 348.277H93.8522H111.819H130.177H140.039C141.406 348.277 142.544 348.669 143.456 349.455C143.781 349.977 144.043 350.925 144.238 352.3V360.933V377.417V393.899V402.337C144.238 403.646 144.043 404.495 143.652 404.888L141.016 405.28H139.257H137.597H135.645H133.985C133.008 405.28 132.227 405.084 131.641 404.692C131.315 404.364 131.055 403.515 130.86 402.141V399.491V395.861V392.624V390.073C130.86 388.699 130.436 387.687 129.591 387.03C129.069 386.771 128.646 386.575 128.322 386.442C127.995 386.312 127.638 386.183 127.247 386.049H126.857H126.662H125.587H124.611H122.17H121.193V399.884V426.373V454.141V466.797H121.779H123.44H123.83C124.35 466.797 124.806 466.928 125.197 467.189C125.587 467.385 125.783 467.941 125.783 468.858V471.604V477V480.827V484.653V494.954V500.547C125.783 501.791 125.587 502.804 125.197 503.588C125.001 503.917 124.546 504.177 123.83 504.373H119.631H112.015H104.203H100.005C99.5484 504.373 99.1575 504.047 98.832 503.392C98.832 503.459 98.7014 502.509 98.4417 500.547V494.954V484.653V474.252V468.563C98.4417 468.04 98.5718 467.647 98.832 467.385C98.8964 467.32 99.2229 467.189 99.8087 466.992H100.005H100.199H100.785H101.371H102.836H103.422V386.049C103.161 386.049 102.641 386.116 101.86 386.247H97.6605C95.7722 386.247 94.568 386.575 94.048 387.228C93.6572 387.816 93.4623 388.764 93.4623 390.073V392.82V396.646V400.864V403.515C93.4623 403.973 93.1694 404.364 92.5828 404.692C92.1929 404.888 91.6061 405.084 90.8254 405.28H90.0444H89.4586H88.7748H88.1891H86.4314H83.9905C82.5577 405.28 81.5153 405.216 80.8653 405.084C80.3438 404.953 79.9867 404.364 79.7917 403.317V394.88V377.612V360.933V352.103V351.907Z" stroke="white" stroke-width="4" stroke-miterlimit="10"/>
<path d="M178.414 385.854V466.6L178.219 466.797H177.828H179.391C181.148 466.797 182.223 466.928 182.613 467.189C183.067 467.32 183.393 468.204 183.59 469.839V475.627V485.242V494.954V500.547C183.59 502.052 183.263 503.066 182.613 503.588C182.091 503.917 180.953 504.177 179.195 504.373H175.191H168.845H162.205H158.202C156.835 504.373 155.695 504.177 154.783 503.785C154.457 503.459 154.198 502.379 154.003 500.547V494.954V485.242V475.43V469.839C154.003 468.923 154.393 468.171 155.175 467.583C155.76 467.32 156.573 467.059 157.615 466.797H157.811H158.202H159.177V385.854V386.049H159.568H160.057H158.202C156.638 386.049 155.498 385.692 154.783 384.972C154.457 384.515 154.198 383.468 154.003 381.83V376.337V366.919V357.892V352.3C154.003 350.796 154.247 349.797 154.735 349.308C155.222 348.816 156.378 348.473 158.202 348.277H162.205H168.845H175.191H179.391C181.017 348.277 182.091 348.604 182.613 349.257C183.067 349.585 183.393 350.599 183.59 352.3V357.892V366.919V376.337V381.83C183.59 383.141 183.393 384.187 183.003 384.972C182.872 385.495 182.091 385.854 180.66 386.049H178.414V385.854Z" fill="#202751"/>
<path d="M178.414 385.854V466.6L178.219 466.797H177.828H179.391C181.148 466.797 182.223 466.928 182.613 467.189C183.067 467.32 183.393 468.204 183.59 469.839V475.627V485.242V494.954V500.547C183.59 502.052 183.263 503.066 182.613 503.588C182.091 503.917 180.953 504.177 179.195 504.373H175.191H168.845H162.205H158.202C156.835 504.373 155.695 504.177 154.783 503.785C154.457 503.459 154.198 502.379 154.003 500.547V494.954V485.242V475.43V469.839C154.003 468.923 154.393 468.171 155.175 467.583C155.76 467.32 156.573 467.059 157.615 466.797H157.811H158.202H159.177V385.854V386.049H159.568H160.057H158.202C156.638 386.049 155.498 385.692 154.783 384.972C154.457 384.515 154.198 383.468 154.003 381.83V376.337V366.919V357.892V352.3C154.003 350.796 154.247 349.797 154.735 349.308C155.222 348.816 156.378 348.473 158.202 348.277H162.205H168.845H175.191H179.391C181.017 348.277 182.091 348.604 182.613 349.257C183.067 349.585 183.393 350.599 183.59 352.3V357.892V366.919V376.337V381.83C183.59 383.141 183.393 384.187 183.003 384.972C182.872 385.495 182.091 385.854 180.66 386.049H178.414V385.854Z" stroke="white" stroke-width="4" stroke-miterlimit="10"/>
<path d="M249.012 461.989V463.755C249.012 474.94 248.1 484.392 246.278 492.109C244.65 500.089 238.369 504.177 227.432 504.373C224.176 504.373 221.735 503.917 220.108 503C218.742 502.282 217.407 501.268 216.105 499.959C215.779 499.566 215.357 498.977 214.836 498.194C214.705 497.604 214.445 497.049 214.055 496.525L213.47 497.701C213.142 498.749 212.818 499.566 212.493 500.154L212.298 500.352V500.547C212.166 500.875 211.987 501.201 211.76 501.529C211.532 501.858 211.287 502.282 211.028 502.804C210.897 503.196 210.701 503.525 210.441 503.785H208.489H204.681H201.459H199.311C198.072 503.785 197.064 503.588 196.284 503.196C195.827 502.936 195.502 501.725 195.307 499.566V491.324V476.412V461.204V453.159C195.307 451.785 195.437 450.97 195.697 450.706C196.022 450.38 196.869 450.117 198.237 449.922H200.677H203.899H206.048H208.294C209.595 449.922 210.441 450.313 210.833 451.099C211.223 451.688 211.418 453.356 211.418 456.103C211.418 459.765 212.298 462.382 214.055 463.952C215.877 465.587 217.895 466.404 220.108 466.404H220.499H221.085C223.169 466.208 225.089 465.26 226.847 463.559C228.538 462.121 229.482 459.864 229.677 456.789C229.677 451.884 228.734 448.123 226.847 445.506C225.349 442.825 223.429 440.536 221.085 438.639C220.434 438.182 219.733 437.723 218.986 437.264C218.236 436.808 217.537 436.349 216.887 435.891C214.802 434.453 213.728 433.7 213.663 433.635C208.716 429.58 204.779 425.688 201.849 421.96C199.244 418.23 197.389 414.764 196.284 411.56C195.892 410.056 195.339 406.982 194.624 402.337C194.624 397.889 194.557 394.456 194.427 392.035V389.876V387.423V387.03V386.442V383.204V379.771C194.427 372.184 195.632 364.956 198.041 358.088C200.254 351.745 205.853 348.473 214.836 348.277C218.415 348.277 221.28 348.669 223.429 349.455C225.382 350.175 226.847 350.992 227.822 351.907C228.473 352.496 229.027 353.347 229.482 354.459C229.482 355.243 229.547 355.636 229.677 355.636C229.612 355.636 229.677 355.308 229.874 354.653C229.874 353.868 230.052 353.101 230.411 352.349C230.768 351.597 231.241 350.828 231.827 350.043C232.476 349.257 233.355 348.865 234.463 348.865H237.294H240.615H242.47H244.228C246.115 348.865 247.319 349.128 247.84 349.649C248.165 349.977 248.427 350.992 248.622 352.692V360.737V375.552V390.465V398.511C248.622 399.884 248.427 400.864 248.035 401.453C247.905 401.847 246.766 402.141 244.618 402.337H239.833H236.416H236.026H235.829H235.439H235.049C234.268 402.337 233.616 401.847 233.096 400.864C232.834 400.276 232.542 398.085 232.217 394.292C232.217 391.544 231.371 389.47 229.677 388.061C227.984 386.654 226.032 385.854 223.819 385.658H223.429H223.234C220.824 385.658 218.643 386.442 216.691 388.012C214.997 389.385 214.055 391.676 213.86 394.88C213.86 399.196 215.063 402.96 217.473 406.163C219.88 408.976 222.614 411.692 225.675 414.306L226.065 414.797L226.456 414.994C227.496 416.04 228.312 416.825 228.897 417.348C229.677 417.936 230.524 418.689 231.436 419.604C231.694 419.867 231.891 420.129 232.021 420.389C232.347 420.389 232.639 420.521 232.901 420.782C233.681 421.566 234.398 422.318 235.049 423.039C235.698 423.497 236.448 424.216 237.294 425.196C240.093 427.944 242.827 432.032 245.497 437.461C247.84 442.629 249.012 450.87 249.012 462.185V461.989Z" fill="#202751"/>
<path d="M249.012 461.989V463.755C249.012 474.94 248.1 484.392 246.278 492.109C244.65 500.089 238.369 504.177 227.432 504.373C224.176 504.373 221.735 503.917 220.108 503C218.742 502.282 217.407 501.268 216.105 499.959C215.779 499.566 215.357 498.977 214.836 498.194C214.705 497.604 214.445 497.049 214.055 496.525L213.47 497.701C213.142 498.749 212.818 499.566 212.493 500.154L212.298 500.352V500.547C212.166 500.875 211.987 501.201 211.76 501.529C211.532 501.858 211.287 502.282 211.028 502.804C210.897 503.196 210.701 503.525 210.441 503.785H208.489H204.681H201.459H199.311C198.072 503.785 197.064 503.588 196.284 503.196C195.827 502.936 195.502 501.725 195.307 499.566V491.324V476.412V461.204V453.159C195.307 451.785 195.437 450.97 195.697 450.706C196.022 450.38 196.869 450.117 198.237 449.922H200.677H203.899H206.048H208.294C209.595 449.922 210.441 450.313 210.833 451.099C211.223 451.688 211.418 453.356 211.418 456.103C211.418 459.765 212.298 462.382 214.055 463.952C215.877 465.587 217.895 466.404 220.108 466.404H220.499H221.085C223.169 466.208 225.089 465.26 226.847 463.559C228.538 462.121 229.482 459.864 229.677 456.789C229.677 451.884 228.734 448.123 226.847 445.506C225.349 442.825 223.429 440.536 221.085 438.639C220.434 438.182 219.733 437.723 218.986 437.264C218.236 436.808 217.537 436.349 216.887 435.891C214.802 434.453 213.728 433.7 213.663 433.635C208.716 429.58 204.779 425.688 201.849 421.96C199.244 418.23 197.389 414.764 196.284 411.56C195.892 410.056 195.339 406.982 194.624 402.337C194.624 397.889 194.557 394.456 194.427 392.035V389.876V387.423V387.03V386.442V383.204V379.771C194.427 372.184 195.632 364.956 198.041 358.088C200.254 351.745 205.853 348.473 214.836 348.277C218.415 348.277 221.28 348.669 223.429 349.455C225.382 350.175 226.847 350.992 227.822 351.907C228.473 352.496 229.027 353.347 229.482 354.459C229.482 355.243 229.547 355.636 229.677 355.636C229.612 355.636 229.677 355.308 229.874 354.653C229.874 353.868 230.052 353.101 230.411 352.349C230.768 351.597 231.241 350.828 231.827 350.043C232.476 349.257 233.355 348.865 234.463 348.865H237.294H240.615H242.47H244.228C246.115 348.865 247.319 349.128 247.84 349.649C248.165 349.977 248.427 350.992 248.622 352.692V360.737V375.552V390.465V398.511C248.622 399.884 248.427 400.864 248.035 401.453C247.905 401.847 246.766 402.141 244.618 402.337H239.833H236.416H236.026H235.829H235.439H235.049C234.268 402.337 233.616 401.847 233.096 400.864C232.834 400.276 232.542 398.085 232.217 394.292C232.217 391.544 231.371 389.47 229.677 388.061C227.984 386.654 226.032 385.854 223.819 385.658H223.429H223.234C220.824 385.658 218.643 386.442 216.691 388.012C214.997 389.385 214.055 391.676 213.86 394.88C213.86 399.196 215.063 402.96 217.473 406.163C219.88 408.976 222.614 411.692 225.675 414.306L226.065 414.797L226.456 414.994C227.496 416.04 228.312 416.825 228.897 417.348C229.677 417.936 230.524 418.689 231.436 419.604C231.694 419.867 231.891 420.129 232.021 420.389C232.347 420.389 232.639 420.521 232.901 420.782C233.681 421.566 234.398 422.318 235.049 423.039C235.698 423.497 236.448 424.216 237.294 425.196C240.093 427.944 242.827 432.032 245.497 437.461C247.84 442.629 249.012 450.87 249.012 462.185V461.989Z" stroke="white" stroke-width="4" stroke-miterlimit="10"/>
<path d="M289.058 386.049C288.532 386.049 288.009 386.377 287.485 387.03C287.485 387.097 287.355 387.816 287.094 389.191V401.453V426.571V451.491V463.755C287.094 464.803 287.289 465.62 287.683 466.208C288.074 466.6 288.532 466.797 289.058 466.797H289.549H289.942H291.709H293.575C296.389 466.797 298.844 466.046 300.94 464.54C303.035 463.299 304.18 460.223 304.377 455.317V445.113V425.001V407.144V395.665C304.377 391.544 303.426 388.928 301.529 387.816C299.891 386.704 297.894 386.049 295.539 385.854H295.146H294.95C294.425 385.854 293.869 385.918 293.282 386.049H291.709C291.184 386.049 290.727 386.116 290.334 386.247H289.058V386.049ZM260.729 351.22C260.729 350.501 260.989 349.783 261.511 349.061C261.965 348.736 262.976 348.473 264.538 348.277H271.471H284.654H297.444H304.67C311.83 348.277 316.712 350.337 319.317 354.459C321.724 358.579 322.929 364.465 322.929 372.119V391.839V426.179V462.773V480.827C322.929 482.2 322.864 483.346 322.736 484.26C322.736 485.896 322.639 487.106 322.445 487.891C322.056 492.142 320.533 495.971 317.879 499.37C315.611 502.509 311.112 504.177 304.377 504.373H296.157H285.098H271.104H263.664C262.816 504.373 262.099 504.177 261.512 503.785C261.121 503.392 260.924 502.641 260.924 501.529V496.134V485.242V474.646V469.053C260.924 467.876 261.316 467.189 262.097 466.992C262.617 466.863 263.089 466.782 263.512 466.748C263.935 466.715 264.406 466.667 264.928 466.6C266.101 466.6 267.011 466.471 267.663 466.208C268.508 466.012 268.931 465.195 268.931 463.755V451.688V426.373V401.061V388.797C268.931 387.489 268.508 386.64 267.663 386.247C266.881 385.854 265.969 385.658 264.928 385.658H264.733H264.538H264.049C263.008 385.658 262.226 385.528 261.706 385.265C261.249 385.004 260.924 384.252 260.729 383.009V377.22V367.309V357.107V351.417V351.22Z" fill="#202751"/>
<path d="M289.058 386.049C288.532 386.049 288.009 386.377 287.485 387.03C287.485 387.097 287.355 387.816 287.094 389.191V401.453V426.571V451.491V463.755C287.094 464.803 287.289 465.62 287.683 466.208C288.074 466.6 288.532 466.797 289.058 466.797H289.549H289.942H291.709H293.575C296.389 466.797 298.844 466.046 300.94 464.54C303.035 463.299 304.18 460.223 304.377 455.317V445.113V425.001V407.144V395.665C304.377 391.544 303.426 388.928 301.529 387.816C299.891 386.704 297.894 386.049 295.539 385.854H295.146H294.95C294.425 385.854 293.869 385.918 293.282 386.049H291.709C291.184 386.049 290.727 386.116 290.334 386.247H289.058V386.049ZM260.729 351.22C260.729 350.501 260.989 349.783 261.511 349.061C261.965 348.736 262.976 348.473 264.538 348.277H271.471H284.654H297.444H304.67C311.83 348.277 316.712 350.337 319.317 354.459C321.724 358.579 322.929 364.465 322.929 372.119V391.839V426.179V462.773V480.827C322.929 482.2 322.864 483.346 322.736 484.26C322.736 485.896 322.639 487.106 322.445 487.891C322.056 492.142 320.533 495.971 317.879 499.37C315.611 502.509 311.112 504.177 304.377 504.373H296.157H285.098H271.104H263.664C262.816 504.373 262.099 504.177 261.512 503.785C261.121 503.392 260.924 502.641 260.924 501.529V496.134V485.242V474.646V469.053C260.924 467.876 261.316 467.189 262.097 466.992C262.617 466.863 263.089 466.782 263.512 466.748C263.935 466.715 264.406 466.667 264.928 466.6C266.101 466.6 267.011 466.471 267.663 466.208C268.508 466.012 268.931 465.195 268.931 463.755V451.688V426.373V401.061V388.797C268.931 387.489 268.508 386.64 267.663 386.247C266.881 385.854 265.969 385.658 264.928 385.658H264.733H264.538H264.049C263.008 385.658 262.226 385.528 261.706 385.265C261.249 385.004 260.924 384.252 260.729 383.009V377.22V367.309V357.107V351.417V351.22Z" stroke="white" stroke-width="4" stroke-miterlimit="10"/>
<path d="M375.074 424.806L368.922 390.859L362.863 424.806H375.074ZM337.981 466.404L350.617 385.854H345.036V348.081C346.667 348.081 349.148 348.145 352.479 348.277H368.898H374.471H380.236H388.838H392.454V386.049H387.084L399.485 466.404H404.66V504.373H373.51V466.012H382.299L377.905 444.721H360.12L356.299 466.797H364.527V504.373H333.378V466.404H337.981Z" fill="#202751"/>
<path d="M375.074 424.806L368.922 390.859L362.863 424.806H375.074ZM337.981 466.404L350.617 385.854H345.036V348.081C346.667 348.081 349.148 348.145 352.479 348.277H368.898H374.471H380.236H388.838H392.454V386.049H387.084L399.485 466.404H404.66V504.373H373.51V466.012H382.299L377.905 444.721H360.12L356.299 466.797H364.527V504.373H333.378V466.404H337.981Z" stroke="white" stroke-width="4" stroke-miterlimit="10"/>
<path d="M418.428 352.3C418.428 350.992 418.689 349.977 419.212 349.257C419.669 348.801 420.746 348.473 422.443 348.277H426.852H434.296H441.249H445.854C447.355 348.277 448.367 348.604 448.89 349.257C449.347 349.716 449.673 350.796 449.87 352.496V357.892V367.115V376.532V381.83C449.87 383.075 449.543 384.121 448.894 384.972C448.438 385.495 447.363 385.854 445.671 386.049H443.132H442.937V466.6C443.328 466.6 444.043 466.667 445.086 466.797H449.675H453.483H456.12C457.03 466.797 457.747 466.536 458.268 466.012C458.593 465.685 458.853 464.932 459.048 463.755V459.142V450.511V442.072V437.264C459.048 435.958 459.259 435.091 459.683 434.665C460.106 434.24 460.904 434.028 462.075 434.028H464.517H468.325H471.646H474.281C475.518 434.028 476.333 434.223 476.723 434.616C477.113 434.812 477.309 435.696 477.309 437.264V447.96V468.858V489.656V500.352C477.309 501.987 476.983 503.066 476.33 503.588C476.003 503.917 474.992 504.177 473.299 504.373H464.496H447.869H431.046H422.438C421.134 504.373 420.122 504.113 419.406 503.588C418.948 503.328 418.624 502.313 418.428 500.547V494.954V485.242V475.43V469.839C418.428 468.529 418.687 467.713 419.209 467.385C419.6 466.992 420.315 466.797 421.358 466.797H423.408H424.385V386.049V386.247H424.19H422.236C420.869 386.247 419.86 385.918 419.209 385.265C418.883 384.546 418.624 383.468 418.428 382.028V376.827V367.115V357.892V352.496V352.3Z" fill="#202751"/>
<path d="M418.428 352.3C418.428 350.992 418.689 349.977 419.212 349.257C419.669 348.801 420.746 348.473 422.443 348.277H426.852H434.296H441.249H445.854C447.355 348.277 448.367 348.604 448.89 349.257C449.347 349.716 449.673 350.796 449.87 352.496V357.892V367.115V376.532V381.83C449.87 383.075 449.543 384.121 448.894 384.972C448.438 385.495 447.363 385.854 445.671 386.049H443.132H442.937V466.6C443.328 466.6 444.043 466.667 445.086 466.797H449.675H453.483H456.12C457.03 466.797 457.747 466.536 458.268 466.012C458.593 465.685 458.853 464.932 459.048 463.755V459.142V450.511V442.072V437.264C459.048 435.958 459.259 435.091 459.683 434.665C460.106 434.24 460.904 434.028 462.075 434.028H464.517H468.325H471.646H474.281C475.518 434.028 476.333 434.223 476.723 434.616C477.113 434.812 477.309 435.696 477.309 437.264V447.96V468.858V489.656V500.352C477.309 501.987 476.983 503.066 476.33 503.588C476.003 503.917 474.992 504.177 473.299 504.373H464.496H447.869H431.046H422.438C421.134 504.373 420.122 504.113 419.406 503.588C418.948 503.328 418.624 502.313 418.428 500.547V494.954V485.242V475.43V469.839C418.428 468.529 418.687 467.713 419.209 467.385C419.6 466.992 420.315 466.797 421.358 466.797H423.408H424.385V386.049V386.247H424.19H422.236C420.869 386.247 419.86 385.918 419.209 385.265C418.883 384.546 418.624 383.468 418.428 382.028V376.827V367.115V357.892V352.496V352.3Z" stroke="white" stroke-width="4" stroke-miterlimit="10"/>
<path d="M487.073 352.103C487.073 350.925 487.332 349.977 487.855 349.257C488.309 348.801 489.448 348.473 491.272 348.277H500.06H516.66H533.259H542.048C543.545 348.277 544.553 348.539 545.075 349.061C545.53 349.389 545.856 350.108 546.051 351.22V360.54V378.789V396.842V406.36C546.051 407.799 545.725 408.847 545.075 409.499C544.748 410.024 543.74 410.382 542.048 410.579H539.509H537.068H534.236H531.894C530.394 410.579 529.321 410.22 528.67 409.499C528.344 409.041 528.084 407.995 527.889 406.36V402.925V397.725V392.624V389.191C527.889 387.882 527.694 387.03 527.304 386.64C527.109 386.247 526.229 386.049 524.667 386.049H520.273H515.293H514.316H513.438C512.135 386.049 511.29 386.183 510.899 386.442C510.508 386.64 510.313 387.097 510.313 387.816V388.406V389.191V394.095V402.729V410.579V415.583C510.313 417.151 510.443 418.07 510.704 418.329C510.768 418.461 511.353 418.624 512.461 418.818H515.683H521.055H524.667H527.889C529.191 418.818 530.199 419.016 530.917 419.409C531.371 419.737 531.697 420.456 531.894 421.566V424.806V428.435V429.22V430.004C531.894 431.377 531.566 432.394 530.917 433.046C530.656 433.504 529.647 433.83 527.889 434.028H524.667H520.663H516.66H513.438C512.005 434.028 511.094 434.159 510.704 434.418C510.638 434.485 510.508 435.435 510.313 437.264V442.268V450.117V457.967V462.773C510.313 464.28 510.443 465.294 510.704 465.815C510.833 466.273 511.42 466.6 512.461 466.797H515.293H519.297H522.909H525.644C526.62 466.797 527.304 466.6 527.694 466.208C527.824 465.948 527.889 465.391 527.889 464.54V464.147V463.559V463.167V462.579V459.34V453.748V448.744V445.309C527.889 443.872 528.149 442.989 528.67 442.661C528.734 442.596 529.484 442.465 530.917 442.268H533.456H537.459H540.486H543.121C544.49 442.268 545.335 442.53 545.661 443.053L546.051 445.309V454.532V473.076V491.129V500.547C546.051 502.052 545.725 503.066 545.075 503.588C544.748 503.917 543.74 504.177 542.048 504.373H533.259H516.66H499.865H491.272C489.71 504.373 488.57 504.113 487.855 503.588C487.528 503.132 487.268 502.117 487.073 500.547V494.759V484.26V475.037V468.858C487.073 467.68 487.332 466.928 487.855 466.6C488.114 466.34 488.733 466.079 489.71 465.815C490.295 465.815 490.882 465.62 491.467 465.227C491.792 464.9 492.053 464.084 492.248 462.773V449.725V425.394V401.061V388.012C492.248 386.771 491.987 385.985 491.467 385.658C491.337 385.594 490.75 385.363 489.71 384.972C489.058 384.972 488.44 384.775 487.855 384.382C487.528 384.056 487.268 383.204 487.073 381.83V375.944V367.309V357.892V352.3V352.103Z" fill="#202751"/>
<path d="M487.073 352.103C487.073 350.925 487.332 349.977 487.855 349.257C488.309 348.801 489.448 348.473 491.272 348.277H500.06H516.66H533.259H542.048C543.545 348.277 544.553 348.539 545.075 349.061C545.53 349.389 545.856 350.108 546.051 351.22V360.54V378.789V396.842V406.36C546.051 407.799 545.725 408.847 545.075 409.499C544.748 410.024 543.74 410.382 542.048 410.579H539.509H537.068H534.236H531.894C530.394 410.579 529.321 410.22 528.67 409.499C528.344 409.041 528.084 407.995 527.889 406.36V402.925V397.725V392.624V389.191C527.889 387.882 527.694 387.03 527.304 386.64C527.109 386.247 526.229 386.049 524.667 386.049H520.273H515.293H514.316H513.438C512.135 386.049 511.29 386.183 510.899 386.442C510.508 386.64 510.313 387.097 510.313 387.816V388.406V389.191V394.095V402.729V410.579V415.583C510.313 417.151 510.443 418.07 510.704 418.329C510.768 418.461 511.353 418.624 512.461 418.818H515.683H521.055H524.667H527.889C529.191 418.818 530.199 419.016 530.917 419.409C531.371 419.737 531.697 420.456 531.894 421.566V424.806V428.435V429.22V430.004C531.894 431.377 531.566 432.394 530.917 433.046C530.656 433.504 529.647 433.83 527.889 434.028H524.667H520.663H516.66H513.438C512.005 434.028 511.094 434.159 510.704 434.418C510.638 434.485 510.508 435.435 510.313 437.264V442.268V450.117V457.967V462.773C510.313 464.28 510.443 465.294 510.704 465.815C510.833 466.273 511.42 466.6 512.461 466.797H515.293H519.297H522.909H525.644C526.62 466.797 527.304 466.6 527.694 466.208C527.824 465.948 527.889 465.391 527.889 464.54V464.147V463.559V463.167V462.579V459.34V453.748V448.744V445.309C527.889 443.872 528.149 442.989 528.67 442.661C528.734 442.596 529.484 442.465 530.917 442.268H533.456H537.459H540.486H543.121C544.49 442.268 545.335 442.53 545.661 443.053L546.051 445.309V454.532V473.076V491.129V500.547C546.051 502.052 545.725 503.066 545.075 503.588C544.748 503.917 543.74 504.177 542.048 504.373H533.259H516.66H499.865H491.272C489.71 504.373 488.57 504.113 487.855 503.588C487.528 503.132 487.268 502.117 487.073 500.547V494.759V484.26V475.037V468.858C487.073 467.68 487.332 466.928 487.855 466.6C488.114 466.34 488.733 466.079 489.71 465.815C490.295 465.815 490.882 465.62 491.467 465.227C491.792 464.9 492.053 464.084 492.248 462.773V449.725V425.394V401.061V388.012C492.248 386.771 491.987 385.985 491.467 385.658C491.337 385.594 490.75 385.363 489.71 384.972C489.058 384.972 488.44 384.775 487.855 384.382C487.528 384.056 487.268 383.204 487.073 381.83V375.944V367.309V357.892V352.3V352.103Z" stroke="white" stroke-width="4" stroke-miterlimit="10"/>
<path d="M620.654 431.868C620.262 431.868 619.741 432.196 619.09 432.851C618.7 433.242 618.407 433.963 618.212 435.008V440.306V449.332V458.752V463.755C618.212 464.54 618.439 465.294 618.895 466.012C619.154 466.273 619.546 466.536 620.067 466.797H620.457H620.654H620.849H621.824H625.829C629.929 466.797 632.727 465.325 634.226 462.382C635.528 459.7 636.276 454.47 636.473 446.684C636.473 441.777 635.592 438.311 633.835 436.284C632.337 434.321 630.481 433.046 628.269 432.458C627.748 432.458 627.194 432.394 626.609 432.26C626.088 432.26 625.568 432.196 625.047 432.065H624.266H623.484H622.216H620.654V431.868ZM620.654 385.854C619.872 385.854 619.286 386.247 618.895 387.03C618.439 387.556 618.212 388.372 618.212 389.484V389.68V389.876V394.095V400.864V408.125V412.148C618.212 413.196 618.374 414.079 618.7 414.797C619.025 415.255 619.677 415.583 620.654 415.779H621.824H623.484H624.656H626.024C626.739 415.779 627.423 415.648 628.073 415.385C629.115 414.863 629.896 414.306 630.418 413.717C631.785 412.672 633.118 410.939 634.421 408.518C635.657 406.229 636.276 403.22 636.276 399.491C636.276 395.699 635.592 392.885 634.226 391.053C633.053 389.028 631.654 387.62 630.026 386.835C629.246 386.575 628.594 386.377 628.073 386.247C627.553 386.247 627.001 386.183 626.414 386.049H623.679H622.019H621.239H620.654V385.854ZM592.042 351.711C592.042 350.599 592.302 349.783 592.824 349.257C593.214 348.865 594.223 348.539 595.851 348.277H603.273H616.65H629.833H637.252C642.722 348.277 646.92 350.403 649.85 354.653C652.583 358.711 654.049 364.008 654.243 370.548V379.379V390.661V406.556V414.6V414.797C654.243 416.367 653.722 417.708 652.681 418.818C651.834 419.409 650.694 420.129 649.264 420.977C648.351 421.436 647.212 421.895 645.845 422.352C644.87 422.548 644.347 422.712 644.283 422.842C644.544 422.842 645.064 422.975 645.845 423.235C647.082 423.235 648.287 423.563 649.459 424.216C650.435 424.675 651.573 425.525 652.876 426.766C653.722 427.684 654.243 429.089 654.439 430.985V440.895V456.592V474.058V483.084C654.439 490.017 653.17 495.315 650.631 498.977C648.287 502.576 643.762 504.373 637.058 504.373H629.246H617.04H603.858H596.437C595.069 504.373 593.931 504.177 593.019 503.785C592.693 503.459 592.434 502.379 592.239 500.547V494.759V484.849V474.646V469.053C592.239 467.811 592.629 466.992 593.409 466.6C594.059 466.471 594.565 466.389 594.923 466.356C595.28 466.323 595.719 466.273 596.241 466.208H596.437C597.543 466.208 598.421 466.079 599.073 465.815C599.854 465.62 600.245 464.932 600.245 463.755V451.688V426.571V401.453V389.484C600.245 387.784 599.918 386.771 599.268 386.442C598.683 386.049 597.868 385.854 596.828 385.854H596.241H595.851H595.264H594.679C593.702 385.854 593.019 385.724 592.629 385.461C592.239 385.004 592.042 384.187 592.042 383.009V382.812V377.22V367.309V357.499V351.907V351.711Z" fill="#202751"/>
<path d="M620.654 431.868C620.262 431.868 619.741 432.196 619.09 432.851C618.7 433.242 618.407 433.963 618.212 435.008V440.306V449.332V458.752V463.755C618.212 464.54 618.439 465.294 618.895 466.012C619.154 466.273 619.546 466.536 620.067 466.797H620.457H620.654H620.849H621.824H625.829C629.929 466.797 632.727 465.325 634.226 462.382C635.528 459.7 636.276 454.47 636.473 446.684C636.473 441.777 635.592 438.311 633.835 436.284C632.337 434.321 630.481 433.046 628.269 432.458C627.748 432.458 627.194 432.394 626.609 432.26C626.088 432.26 625.568 432.196 625.047 432.065H624.266H623.484H622.216H620.654V431.868ZM620.654 385.854C619.872 385.854 619.286 386.247 618.895 387.03C618.439 387.556 618.212 388.372 618.212 389.484V389.68V389.876V394.095V400.864V408.125V412.148C618.212 413.196 618.374 414.079 618.7 414.797C619.025 415.255 619.677 415.583 620.654 415.779H621.824H623.484H624.656H626.024C626.739 415.779 627.423 415.648 628.073 415.385C629.115 414.863 629.896 414.306 630.418 413.717C631.785 412.672 633.118 410.939 634.421 408.518C635.657 406.229 636.276 403.22 636.276 399.491C636.276 395.699 635.592 392.885 634.226 391.053C633.053 389.028 631.654 387.62 630.026 386.835C629.246 386.575 628.594 386.377 628.073 386.247C627.553 386.247 627.001 386.183 626.414 386.049H623.679H622.019H621.239H620.654V385.854ZM592.042 351.711C592.042 350.599 592.302 349.783 592.824 349.257C593.214 348.865 594.223 348.539 595.851 348.277H603.273H616.65H629.833H637.252C642.722 348.277 646.92 350.403 649.85 354.653C652.583 358.711 654.049 364.008 654.243 370.548V379.379V390.661V406.556V414.6V414.797C654.243 416.367 653.722 417.708 652.681 418.818C651.834 419.409 650.694 420.129 649.264 420.977C648.351 421.436 647.212 421.895 645.845 422.352C644.87 422.548 644.347 422.712 644.283 422.842C644.544 422.842 645.064 422.975 645.845 423.235C647.082 423.235 648.287 423.563 649.459 424.216C650.435 424.675 651.573 425.525 652.876 426.766C653.722 427.684 654.243 429.089 654.439 430.985V440.895V456.592V474.058V483.084C654.439 490.017 653.17 495.315 650.631 498.977C648.287 502.576 643.762 504.373 637.058 504.373H629.246H617.04H603.858H596.437C595.069 504.373 593.931 504.177 593.019 503.785C592.693 503.459 592.434 502.379 592.239 500.547V494.759V484.849V474.646V469.053C592.239 467.811 592.629 466.992 593.409 466.6C594.059 466.471 594.565 466.389 594.923 466.356C595.28 466.323 595.719 466.273 596.241 466.208H596.437C597.543 466.208 598.421 466.079 599.073 465.815C599.854 465.62 600.245 464.932 600.245 463.755V451.688V426.571V401.453V389.484C600.245 387.784 599.918 386.771 599.268 386.442C598.683 386.049 597.868 385.854 596.828 385.854H596.241H595.851H595.264H594.679C593.702 385.854 593.019 385.724 592.629 385.461C592.239 385.004 592.042 384.187 592.042 383.009V382.812V377.22V367.309V357.499V351.907V351.711Z" stroke="white" stroke-width="4" stroke-miterlimit="10"/>
<path d="M709.022 455.317V386.049H704.629C704.106 386.049 703.652 385.985 703.262 385.854C702.872 385.658 702.675 385.036 702.675 383.989V378.593V368.095V358.088V352.496C702.675 351.253 702.872 350.24 703.262 349.455C703.587 348.997 704.043 348.669 704.629 348.473H708.632H716.443H724.255H728.26C728.779 348.473 729.235 348.865 729.626 349.649C729.626 349.716 729.755 350.665 730.017 352.496V358.088V368.095V378.593V383.989C730.017 384.709 729.82 385.265 729.43 385.658C729.235 385.724 729.055 385.772 728.893 385.806C728.729 385.839 728.453 385.918 728.063 386.049H727.673H727.282H727.087H725.622H725.232V466.992C725.232 479.684 722.627 489.135 717.421 495.348C712.211 501.365 706.484 504.373 700.234 504.373H699.648H699.063C693.008 504.177 687.345 500.841 682.072 494.365C676.863 487.827 674.26 478.373 674.26 466.012V452.373V426.179V398.706V386.049H673.479H671.819H670.843H670.062C669.54 386.049 669.085 385.936 668.695 385.706C668.305 385.477 668.108 384.84 668.108 383.794V381.243V375.552V371.921V367.9V357.892V352.3C668.108 351.057 668.305 350.043 668.695 349.257C669.02 348.801 669.477 348.473 670.062 348.277H674.457H682.854H691.446H695.84C696.295 348.277 696.783 348.669 697.305 349.455C697.305 349.52 697.435 350.469 697.695 352.3V357.892V368.095V378.593V383.989C697.695 384.709 697.5 385.265 697.11 385.658C696.523 385.658 696.035 385.724 695.645 385.854H695.253H694.865H694.668H693.106H692.423V455.317C692.423 459.242 693.301 462.185 695.06 464.147C696.557 465.915 698.477 466.797 700.82 466.797H701.112H701.504C703.13 466.797 704.856 465.784 706.679 463.755C708.242 461.794 709.022 459.046 709.022 455.515V455.317Z" fill="#202751"/>
<path d="M709.022 455.317V386.049H704.629C704.106 386.049 703.652 385.985 703.262 385.854C702.872 385.658 702.675 385.036 702.675 383.989V378.593V368.095V358.088V352.496C702.675 351.253 702.872 350.24 703.262 349.455C703.587 348.997 704.043 348.669 704.629 348.473H708.632H716.443H724.255H728.26C728.779 348.473 729.235 348.865 729.626 349.649C729.626 349.716 729.755 350.665 730.017 352.496V358.088V368.095V378.593V383.989C730.017 384.709 729.82 385.265 729.43 385.658C729.235 385.724 729.055 385.772 728.893 385.806C728.729 385.839 728.453 385.918 728.063 386.049H727.673H727.282H727.087H725.622H725.232V466.992C725.232 479.684 722.627 489.135 717.421 495.348C712.211 501.365 706.484 504.373 700.234 504.373H699.648H699.063C693.008 504.177 687.345 500.841 682.072 494.365C676.863 487.827 674.26 478.373 674.26 466.012V452.373V426.179V398.706V386.049H673.479H671.819H670.843H670.062C669.54 386.049 669.085 385.936 668.695 385.706C668.305 385.477 668.108 384.84 668.108 383.794V381.243V375.552V371.921V367.9V357.892V352.3C668.108 351.057 668.305 350.043 668.695 349.257C669.02 348.801 669.477 348.473 670.062 348.277H674.457H682.854H691.446H695.84C696.295 348.277 696.783 348.669 697.305 349.455C697.305 349.52 697.435 350.469 697.695 352.3V357.892V368.095V378.593V383.989C697.695 384.709 697.5 385.265 697.11 385.658C696.523 385.658 696.035 385.724 695.645 385.854H695.253H694.865H694.668H693.106H692.423V455.317C692.423 459.242 693.301 462.185 695.06 464.147C696.557 465.915 698.477 466.797 700.82 466.797H701.112H701.504C703.13 466.797 704.856 465.784 706.679 463.755C708.242 461.794 709.022 459.046 709.022 455.515V455.317Z" stroke="white" stroke-width="4" stroke-miterlimit="10"/>
<path d="M796.025 461.989V463.755C796.025 474.94 795.111 484.392 793.29 492.109C791.663 500.089 785.38 504.177 774.444 504.373C771.189 504.373 768.748 503.917 767.122 503C765.754 502.282 764.42 501.268 763.117 499.959C762.792 499.566 762.369 498.977 761.849 498.194C761.717 497.604 761.458 497.049 761.067 496.525L760.482 497.701C760.155 498.749 759.83 499.566 759.504 500.154L759.31 500.352V500.547C759.179 500.875 759.001 501.201 758.773 501.529C758.544 501.858 758.299 502.282 758.04 502.804C757.909 503.196 757.714 503.525 757.455 503.785H755.501H751.693H748.471H746.323C745.085 503.785 744.076 503.588 743.296 503.196C742.839 502.936 742.516 501.725 742.319 499.566V491.324V476.412V461.204V453.159C742.319 451.785 742.449 450.97 742.709 450.706C743.034 450.38 743.881 450.117 745.248 449.922H747.689H750.913H753.06H755.305C756.608 449.922 757.455 450.313 757.845 451.099C758.235 451.688 758.432 453.356 758.432 456.103C758.432 459.765 759.31 462.382 761.067 463.952C762.889 465.587 764.907 466.404 767.122 466.404H767.512H768.097C770.179 466.208 772.102 465.26 773.859 463.559C775.551 462.121 776.495 459.864 776.691 456.789C776.691 451.884 775.746 448.123 773.859 445.506C772.361 442.825 770.442 440.536 768.097 438.639C767.447 438.182 766.745 437.723 765.998 437.264C765.25 436.808 764.549 436.349 763.899 435.891C761.815 434.453 760.74 433.7 760.677 433.635C755.73 429.58 751.791 425.688 748.861 421.96C746.258 418.23 744.403 414.764 743.296 411.56C742.906 410.056 742.352 406.982 741.636 402.337C741.636 397.889 741.571 394.456 741.441 392.035V389.876V387.423V387.03V386.442V383.204V379.771C741.441 372.184 742.644 364.956 745.054 358.088C747.266 351.745 752.865 348.473 761.849 348.277C765.427 348.277 768.292 348.669 770.442 349.455C772.394 350.175 773.859 350.992 774.836 351.907C775.485 352.496 776.038 353.347 776.495 354.459C776.495 355.243 776.56 355.636 776.691 355.636C776.626 355.636 776.691 355.308 776.886 354.653C776.886 353.868 777.065 353.101 777.422 352.349C777.78 351.597 778.253 350.828 778.839 350.043C779.488 349.257 780.368 348.865 781.475 348.865H784.307H787.627H789.482H791.239C793.127 348.865 794.332 349.128 794.852 349.649C795.177 349.977 795.439 350.992 795.634 352.692V360.737V375.552V390.465V398.511C795.634 399.884 795.439 400.864 795.049 401.453C794.917 401.847 793.779 402.141 791.63 402.337H786.846H783.428H783.038H782.842H782.451H782.06C781.281 402.337 780.628 401.847 780.108 400.864C779.848 400.276 779.555 398.085 779.229 394.292C779.229 391.544 778.383 389.47 776.691 388.061C774.996 386.654 773.044 385.854 770.832 385.658H770.442H770.246C767.837 385.658 765.657 386.442 763.704 388.012C762.01 389.385 761.067 391.676 760.872 394.88C760.872 399.196 762.075 402.96 764.484 406.163C766.892 408.976 769.626 411.692 772.687 414.306L773.077 414.797L773.469 414.994C774.509 416.04 775.323 416.825 775.909 417.348C776.691 417.936 777.535 418.689 778.448 419.604C778.708 419.867 778.903 420.129 779.034 420.389C779.358 420.389 779.651 420.521 779.913 420.782C780.694 421.566 781.41 422.318 782.06 423.039C782.712 423.497 783.46 424.216 784.307 425.196C787.105 427.944 789.84 432.032 792.509 437.461C794.852 442.629 796.025 450.87 796.025 462.185V461.989Z" fill="#202751"/>
<path d="M796.025 461.989V463.755C796.025 474.94 795.111 484.392 793.29 492.109C791.663 500.089 785.38 504.177 774.444 504.373C771.189 504.373 768.748 503.917 767.122 503C765.754 502.282 764.42 501.268 763.117 499.959C762.792 499.566 762.369 498.977 761.849 498.194C761.717 497.604 761.458 497.049 761.067 496.525L760.482 497.701C760.155 498.749 759.83 499.566 759.504 500.154L759.31 500.352V500.547C759.179 500.875 759.001 501.201 758.773 501.529C758.544 501.858 758.299 502.282 758.04 502.804C757.909 503.196 757.714 503.525 757.455 503.785H755.501H751.693H748.471H746.323C745.085 503.785 744.076 503.588 743.296 503.196C742.839 502.936 742.516 501.725 742.319 499.566V491.324V476.412V461.204V453.159C742.319 451.785 742.449 450.97 742.709 450.706C743.034 450.38 743.881 450.117 745.248 449.922H747.689H750.913H753.06H755.305C756.608 449.922 757.455 450.313 757.845 451.099C758.235 451.688 758.432 453.356 758.432 456.103C758.432 459.765 759.31 462.382 761.067 463.952C762.889 465.587 764.907 466.404 767.122 466.404H767.512H768.097C770.179 466.208 772.102 465.26 773.859 463.559C775.551 462.121 776.495 459.864 776.691 456.789C776.691 451.884 775.746 448.123 773.859 445.506C772.361 442.825 770.442 440.536 768.097 438.639C767.447 438.182 766.745 437.723 765.998 437.264C765.25 436.808 764.549 436.349 763.899 435.891C761.815 434.453 760.74 433.7 760.677 433.635C755.73 429.58 751.791 425.688 748.861 421.96C746.258 418.23 744.403 414.764 743.296 411.56C742.906 410.056 742.352 406.982 741.636 402.337C741.636 397.889 741.571 394.456 741.441 392.035V389.876V387.423V387.03V386.442V383.204V379.771C741.441 372.184 742.644 364.956 745.054 358.088C747.266 351.745 752.865 348.473 761.849 348.277C765.427 348.277 768.292 348.669 770.442 349.455C772.394 350.175 773.859 350.992 774.836 351.907C775.485 352.496 776.038 353.347 776.495 354.459C776.495 355.243 776.56 355.636 776.691 355.636C776.626 355.636 776.691 355.308 776.886 354.653C776.886 353.868 777.065 353.101 777.422 352.349C777.78 351.597 778.253 350.828 778.839 350.043C779.488 349.257 780.368 348.865 781.475 348.865H784.307H787.627H789.482H791.239C793.127 348.865 794.332 349.128 794.852 349.649C795.177 349.977 795.439 350.992 795.634 352.692V360.737V375.552V390.465V398.511C795.634 399.884 795.439 400.864 795.049 401.453C794.917 401.847 793.779 402.141 791.63 402.337H786.846H783.428H783.038H782.842H782.451H782.06C781.281 402.337 780.628 401.847 780.108 400.864C779.848 400.276 779.555 398.085 779.229 394.292C779.229 391.544 778.383 389.47 776.691 388.061C774.996 386.654 773.044 385.854 770.832 385.658H770.442H770.246C767.837 385.658 765.657 386.442 763.704 388.012C762.01 389.385 761.067 391.676 760.872 394.88C760.872 399.196 762.075 402.96 764.484 406.163C766.892 408.976 769.626 411.692 772.687 414.306L773.077 414.797L773.469 414.994C774.509 416.04 775.323 416.825 775.909 417.348C776.691 417.936 777.535 418.689 778.448 419.604C778.708 419.867 778.903 420.129 779.034 420.389C779.358 420.389 779.651 420.521 779.913 420.782C780.694 421.566 781.41 422.318 782.06 423.039C782.712 423.497 783.46 424.216 784.307 425.196C787.105 427.944 789.84 432.032 792.509 437.461C794.852 442.629 796.025 450.87 796.025 462.185V461.989Z" stroke="white" stroke-width="4" stroke-miterlimit="10"/>
<path d="M843.383 352.3C843.383 350.992 843.644 349.977 844.167 349.257C844.624 348.801 845.7 348.473 847.399 348.277H851.807H859.25H866.205H870.809C872.31 348.277 873.323 348.604 873.846 349.257C874.302 349.716 874.628 350.796 874.825 352.496V357.892V367.115V376.532V381.83C874.825 383.075 874.498 384.121 873.848 384.972C873.393 385.495 872.318 385.854 870.626 386.049H868.088H867.893V466.6C868.283 466.6 868.998 466.667 870.04 466.797H874.63H878.437H881.075C881.985 466.797 882.701 466.536 883.223 466.012C883.547 465.685 883.809 464.932 884.004 463.755V459.142V450.511V442.072V437.264C884.004 435.958 884.215 435.091 884.638 434.665C885.061 434.24 885.859 434.028 887.031 434.028H889.472H893.281H896.601H899.236C900.473 434.028 901.286 434.223 901.678 434.616C902.068 434.812 902.263 435.696 902.263 437.264V447.96V468.858V489.656V500.352C902.263 501.987 901.937 503.066 901.285 503.588C900.959 503.917 899.948 504.177 898.254 504.373H889.45H872.824H856H847.393C846.087 504.373 845.079 504.113 844.361 503.588C843.903 503.328 843.578 502.313 843.383 500.547V494.954V485.242V475.43V469.839C843.383 468.529 843.643 467.713 844.163 467.385C844.555 466.992 845.27 466.797 846.312 466.797H848.362H849.34V386.049V386.247H849.144H847.192C845.823 386.247 844.815 385.918 844.163 385.265C843.837 384.546 843.578 383.468 843.383 382.028V376.827V367.115V357.892V352.496V352.3Z" fill="#202751"/>
<path d="M843.383 352.3C843.383 350.992 843.644 349.977 844.167 349.257C844.624 348.801 845.7 348.473 847.399 348.277H851.807H859.25H866.205H870.809C872.31 348.277 873.323 348.604 873.846 349.257C874.302 349.716 874.628 350.796 874.825 352.496V357.892V367.115V376.532V381.83C874.825 383.075 874.498 384.121 873.848 384.972C873.393 385.495 872.318 385.854 870.626 386.049H868.088H867.893V466.6C868.283 466.6 868.998 466.667 870.04 466.797H874.63H878.437H881.075C881.985 466.797 882.701 466.536 883.223 466.012C883.547 465.685 883.809 464.932 884.004 463.755V459.142V450.511V442.072V437.264C884.004 435.958 884.215 435.091 884.638 434.665C885.061 434.24 885.859 434.028 887.031 434.028H889.472H893.281H896.601H899.236C900.473 434.028 901.286 434.223 901.678 434.616C902.068 434.812 902.263 435.696 902.263 437.264V447.96V468.858V489.656V500.352C902.263 501.987 901.937 503.066 901.285 503.588C900.959 503.917 899.948 504.177 898.254 504.373H889.45H872.824H856H847.393C846.087 504.373 845.079 504.113 844.361 503.588C843.903 503.328 843.578 502.313 843.383 500.547V494.954V485.242V475.43V469.839C843.383 468.529 843.643 467.713 844.163 467.385C844.555 466.992 845.27 466.797 846.312 466.797H848.362H849.34V386.049V386.247H849.144H847.192C845.823 386.247 844.815 385.918 844.163 385.265C843.837 384.546 843.578 383.468 843.383 382.028V376.827V367.115V357.892V352.496V352.3Z" stroke="white" stroke-width="4" stroke-miterlimit="10"/>
<path d="M936.636 385.854V466.6L936.44 466.797H936.05H937.612C939.37 466.797 940.443 466.928 940.835 467.189C941.29 467.32 941.616 468.204 941.81 469.839V475.627V485.242V494.954V500.547C941.81 502.052 941.484 503.066 940.835 503.588C940.312 503.917 939.175 504.177 937.418 504.373H933.413H927.066H920.427H916.422C915.055 504.373 913.917 504.177 913.005 503.785C912.679 503.459 912.42 502.379 912.224 500.547V494.954V485.242V475.43V469.839C912.224 468.923 912.615 468.171 913.395 467.583C913.982 467.32 914.795 467.059 915.837 466.797H916.032H916.422H917.4V385.854V386.049H917.79H918.279H916.422C914.862 386.049 913.72 385.692 913.005 384.972C912.679 384.515 912.42 383.468 912.224 381.83V376.337V366.919V357.892V352.3C912.224 350.796 912.469 349.797 912.956 349.308C913.444 348.816 914.599 348.473 916.422 348.277H920.427H927.066H933.413H937.612C939.238 348.277 940.312 348.604 940.835 349.257C941.29 349.585 941.616 350.599 941.81 352.3V357.892V366.919V376.337V381.83C941.81 383.141 941.616 384.187 941.225 384.972C941.094 385.495 940.312 385.854 938.882 386.049H936.636V385.854Z" fill="#202751"/>
<path d="M936.636 385.854V466.6L936.44 466.797H936.05H937.612C939.37 466.797 940.443 466.928 940.835 467.189C941.29 467.32 941.616 468.204 941.81 469.839V475.627V485.242V494.954V500.547C941.81 502.052 941.484 503.066 940.835 503.588C940.312 503.917 939.175 504.177 937.418 504.373H933.413H927.066H920.427H916.422C915.055 504.373 913.917 504.177 913.005 503.785C912.679 503.459 912.42 502.379 912.224 500.547V494.954V485.242V475.43V469.839C912.224 468.923 912.615 468.171 913.395 467.583C913.982 467.32 914.795 467.059 915.837 466.797H916.032H916.422H917.4V385.854V386.049H917.79H918.279H916.422C914.862 386.049 913.72 385.692 913.005 384.972C912.679 384.515 912.42 383.468 912.224 381.83V376.337V366.919V357.892V352.3C912.224 350.796 912.469 349.797 912.956 349.308C913.444 348.816 914.599 348.473 916.422 348.277H920.427H927.066H933.413H937.612C939.238 348.277 940.312 348.604 940.835 349.257C941.29 349.585 941.616 350.599 941.81 352.3V357.892V366.919V376.337V381.83C941.81 383.141 941.616 384.187 941.225 384.972C941.094 385.495 940.312 385.854 938.882 386.049H936.636V385.854Z" stroke="white" stroke-width="4" stroke-miterlimit="10"/>
<path d="M1000.69 382.812V352.3C1000.69 350.925 1000.82 349.977 1001.08 349.455C1001.47 348.669 1002.48 348.277 1004.11 348.277H1008.11H1014.26H1020.32H1024.32C1025.75 348.277 1026.79 348.604 1027.45 349.257C1027.97 349.52 1028.33 350.533 1028.52 352.3V357.892V367.507V377.612V383.009C1028.52 384.056 1028.33 384.939 1027.93 385.658C1027.87 385.658 1026.99 385.789 1025.3 386.049H1022.66H1021.88V500.547C1021.88 502.184 1021.62 503.261 1021.1 503.785C1020.71 504.177 1019.76 504.373 1018.27 504.373H1015.73H1012.31H1008.5H1005.87H1005.48C1004.3 504.373 1003.46 504.309 1002.94 504.177C1002.48 504.177 1002.06 503.588 1001.67 502.412L974.523 386.049V466.6C974.652 466.6 974.847 466.667 975.108 466.797H977.452C978.687 466.797 979.566 467.059 980.089 467.583C980.479 467.975 980.674 468.794 980.674 470.034V475.627V485.437V495.151V500.744C980.674 502.184 980.479 503.196 980.089 503.785C979.892 504.177 979.014 504.373 977.452 504.373H973.057H966.515H959.68H955.481C954.568 504.373 953.919 504.244 953.528 503.982C953.463 503.917 953.334 503.459 953.137 502.608V501.332V499.763V494.171V484.458V474.646V469.053V467.975V467.385V466.992L953.528 466.797H954.309H955.287H957.726H958.118V386.049V386.247H958.508H958.704H957.141C955.774 386.247 954.764 385.918 954.114 385.265C953.658 384.612 953.334 383.468 953.137 381.83V376.141V366.721V357.107V351.417C953.137 350.043 953.397 349.195 953.919 348.865C954.506 348.473 955.481 348.277 956.848 348.277H961.925H971.3H971.69H972.277C976.442 348.277 979.502 348.343 981.454 348.473H985.654L1005.48 442.465V385.854C1005.22 385.854 1004.89 385.918 1004.5 386.049C1004.24 386.049 1003.91 385.985 1003.52 385.854C1002.81 385.854 1002.12 385.56 1001.47 384.972C1001.15 384.644 1000.89 383.989 1000.69 383.009V382.812Z" fill="#202751"/>
<path d="M1000.69 382.812V352.3C1000.69 350.925 1000.82 349.977 1001.08 349.455C1001.47 348.669 1002.48 348.277 1004.11 348.277H1008.11H1014.26H1020.32H1024.32C1025.75 348.277 1026.79 348.604 1027.45 349.257C1027.97 349.52 1028.33 350.533 1028.52 352.3V357.892V367.507V377.612V383.009C1028.52 384.056 1028.33 384.939 1027.93 385.658C1027.87 385.658 1026.99 385.789 1025.3 386.049H1022.66H1021.88V500.547C1021.88 502.184 1021.62 503.261 1021.1 503.785C1020.71 504.177 1019.76 504.373 1018.27 504.373H1015.73H1012.31H1008.5H1005.87H1005.48C1004.3 504.373 1003.46 504.309 1002.94 504.177C1002.48 504.177 1002.06 503.588 1001.67 502.412L974.523 386.049V466.6C974.652 466.6 974.847 466.667 975.108 466.797H977.452C978.687 466.797 979.566 467.059 980.089 467.583C980.479 467.975 980.674 468.794 980.674 470.034V475.627V485.437V495.151V500.744C980.674 502.184 980.479 503.196 980.089 503.785C979.892 504.177 979.014 504.373 977.452 504.373H973.057H966.515H959.68H955.481C954.568 504.373 953.919 504.244 953.528 503.982C953.463 503.917 953.334 503.459 953.137 502.608V501.332V499.763V494.171V484.458V474.646V469.053V467.975V467.385V466.992L953.528 466.797H954.309H955.287H957.726H958.118V386.049V386.247H958.508H958.704H957.141C955.774 386.247 954.764 385.918 954.114 385.265C953.658 384.612 953.334 383.468 953.137 381.83V376.141V366.721V357.107V351.417C953.137 350.043 953.397 349.195 953.919 348.865C954.506 348.473 955.481 348.277 956.848 348.277H961.925H971.3H971.69H972.277C976.442 348.277 979.502 348.343 981.454 348.473H985.654L1005.48 442.465V385.854C1005.22 385.854 1004.89 385.918 1004.5 386.049C1004.24 386.049 1003.91 385.985 1003.52 385.854C1002.81 385.854 1002.12 385.56 1001.47 384.972C1001.15 384.644 1000.89 383.989 1000.69 383.009V382.812Z" stroke="white" stroke-width="4" stroke-miterlimit="10"/>
<path d="M1038.48 352.103C1038.48 350.925 1038.74 349.977 1039.26 349.257C1039.72 348.801 1040.86 348.473 1042.68 348.277H1051.47H1068.07H1084.67H1093.46C1094.95 348.277 1095.96 348.539 1096.48 349.061C1096.94 349.389 1097.26 350.108 1097.46 351.22V360.54V378.789V396.842V406.36C1097.46 407.799 1097.13 408.847 1096.48 409.499C1096.16 410.024 1095.15 410.382 1093.46 410.579H1090.92H1088.47H1085.64H1083.3C1081.8 410.579 1080.73 410.22 1080.08 409.499C1079.75 409.041 1079.49 407.995 1079.3 406.36V402.925V397.725V392.624V389.191C1079.3 387.882 1079.1 387.03 1078.71 386.64C1078.51 386.247 1077.64 386.049 1076.07 386.049H1071.68H1066.7H1065.72H1064.84C1063.54 386.049 1062.7 386.183 1062.31 386.442C1061.92 386.64 1061.72 387.097 1061.72 387.816V388.406V389.191V394.095V402.729V410.579V415.583C1061.72 417.151 1061.85 418.07 1062.11 418.329C1062.17 418.461 1062.76 418.624 1063.87 418.818H1067.09H1072.46H1076.07H1079.3C1080.6 418.818 1081.61 419.016 1082.32 419.409C1082.78 419.737 1083.1 420.456 1083.3 421.566V424.806V428.435V429.22V430.004C1083.3 431.377 1082.97 432.394 1082.32 433.046C1082.06 433.504 1081.05 433.83 1079.3 434.028H1076.07H1072.07H1068.07H1064.84C1063.41 434.028 1062.5 434.159 1062.11 434.418C1062.05 434.485 1061.92 435.435 1061.72 437.264V442.268V450.117V457.967V462.773C1061.72 464.28 1061.85 465.294 1062.11 465.815C1062.24 466.273 1062.83 466.6 1063.87 466.797H1066.7H1070.7H1074.32H1077.05C1078.03 466.797 1078.71 466.6 1079.1 466.208C1079.23 465.948 1079.3 465.391 1079.3 464.54V464.147V463.559V463.167V462.579V459.34V453.748V448.744V445.309C1079.3 443.872 1079.55 442.989 1080.08 442.661C1080.14 442.596 1080.89 442.465 1082.32 442.268H1084.86H1088.86H1091.89H1094.53C1095.9 442.268 1096.74 442.53 1097.07 443.053L1097.46 445.309V454.532V473.076V491.129V500.547C1097.46 502.052 1097.13 503.066 1096.48 503.588C1096.16 503.917 1095.15 504.177 1093.46 504.373H1084.67H1068.07H1051.27H1042.68C1041.12 504.373 1039.98 504.113 1039.26 503.588C1038.93 503.132 1038.67 502.117 1038.48 500.547V494.759V484.26V475.037V468.858C1038.48 467.68 1038.74 466.928 1039.26 466.6C1039.52 466.34 1040.14 466.079 1041.12 465.815C1041.7 465.815 1042.29 465.62 1042.87 465.227C1043.2 464.9 1043.46 464.084 1043.65 462.773V449.725V425.394V401.061V388.012C1043.65 386.771 1043.39 385.985 1042.87 385.658C1042.74 385.594 1042.16 385.363 1041.12 384.972C1040.46 384.972 1039.85 384.775 1039.26 384.382C1038.93 384.056 1038.67 383.204 1038.48 381.83V375.944V367.309V357.892V352.3V352.103Z" fill="#202751"/>
<path d="M1038.48 352.103C1038.48 350.925 1038.74 349.977 1039.26 349.257C1039.72 348.801 1040.86 348.473 1042.68 348.277H1051.47H1068.07H1084.67H1093.46C1094.95 348.277 1095.96 348.539 1096.48 349.061C1096.94 349.389 1097.26 350.108 1097.46 351.22V360.54V378.789V396.842V406.36C1097.46 407.799 1097.13 408.847 1096.48 409.499C1096.16 410.024 1095.15 410.382 1093.46 410.579H1090.92H1088.47H1085.64H1083.3C1081.8 410.579 1080.73 410.22 1080.08 409.499C1079.75 409.041 1079.49 407.995 1079.3 406.36V402.925V397.725V392.624V389.191C1079.3 387.882 1079.1 387.03 1078.71 386.64C1078.51 386.247 1077.64 386.049 1076.07 386.049H1071.68H1066.7H1065.72H1064.84C1063.54 386.049 1062.7 386.183 1062.31 386.442C1061.92 386.64 1061.72 387.097 1061.72 387.816V388.406V389.191V394.095V402.729V410.579V415.583C1061.72 417.151 1061.85 418.07 1062.11 418.329C1062.17 418.461 1062.76 418.624 1063.87 418.818H1067.09H1072.46H1076.07H1079.3C1080.6 418.818 1081.61 419.016 1082.32 419.409C1082.78 419.737 1083.1 420.456 1083.3 421.566V424.806V428.435V429.22V430.004C1083.3 431.377 1082.97 432.394 1082.32 433.046C1082.06 433.504 1081.05 433.83 1079.3 434.028H1076.07H1072.07H1068.07H1064.84C1063.41 434.028 1062.5 434.159 1062.11 434.418C1062.05 434.485 1061.92 435.435 1061.72 437.264V442.268V450.117V457.967V462.773C1061.72 464.28 1061.85 465.294 1062.11 465.815C1062.24 466.273 1062.83 466.6 1063.87 466.797H1066.7H1070.7H1074.32H1077.05C1078.03 466.797 1078.71 466.6 1079.1 466.208C1079.23 465.948 1079.3 465.391 1079.3 464.54V464.147V463.559V463.167V462.579V459.34V453.748V448.744V445.309C1079.3 443.872 1079.55 442.989 1080.08 442.661C1080.14 442.596 1080.89 442.465 1082.32 442.268H1084.86H1088.86H1091.89H1094.53C1095.9 442.268 1096.74 442.53 1097.07 443.053L1097.46 445.309V454.532V473.076V491.129V500.547C1097.46 502.052 1097.13 503.066 1096.48 503.588C1096.16 503.917 1095.15 504.177 1093.46 504.373H1084.67H1068.07H1051.27H1042.68C1041.12 504.373 1039.98 504.113 1039.26 503.588C1038.93 503.132 1038.67 502.117 1038.48 500.547V494.759V484.26V475.037V468.858C1038.48 467.68 1038.74 466.928 1039.26 466.6C1039.52 466.34 1040.14 466.079 1041.12 465.815C1041.7 465.815 1042.29 465.62 1042.87 465.227C1043.2 464.9 1043.46 464.084 1043.65 462.773V449.725V425.394V401.061V388.012C1043.65 386.771 1043.39 385.985 1042.87 385.658C1042.74 385.594 1042.16 385.363 1041.12 384.972C1040.46 384.972 1039.85 384.775 1039.26 384.382C1038.93 384.056 1038.67 383.204 1038.48 381.83V375.944V367.309V357.892V352.3V352.103Z" stroke="white" stroke-width="4" stroke-miterlimit="10"/>
<path d="M1163.66 461.989V463.755C1163.66 474.94 1162.75 484.392 1160.93 492.109C1159.3 500.089 1153.02 504.177 1142.08 504.373C1138.83 504.373 1136.39 503.917 1134.76 503C1133.39 502.282 1132.06 501.268 1130.76 499.959C1130.43 499.566 1130.01 498.977 1129.49 498.194C1129.36 497.604 1129.1 497.049 1128.71 496.525L1128.12 497.701C1127.79 498.749 1127.47 499.566 1127.14 500.154L1126.95 500.352V500.547C1126.82 500.875 1126.64 501.201 1126.41 501.529C1126.18 501.858 1125.94 502.282 1125.68 502.804C1125.55 503.196 1125.35 503.525 1125.09 503.785H1123.14H1119.33H1116.11H1113.96C1112.72 503.785 1111.71 503.588 1110.93 503.196C1110.48 502.936 1110.15 501.725 1109.96 499.566V491.324V476.412V461.204V453.159C1109.96 451.785 1110.09 450.97 1110.35 450.706C1110.67 450.38 1111.52 450.117 1112.89 449.922H1115.33H1118.55H1120.7H1122.94C1124.25 449.922 1125.09 450.313 1125.48 451.099C1125.87 451.688 1126.07 453.356 1126.07 456.103C1126.07 459.765 1126.95 462.382 1128.71 463.952C1130.53 465.587 1132.55 466.404 1134.76 466.404H1135.15H1135.74C1137.82 466.208 1139.74 465.26 1141.5 463.559C1143.19 462.121 1144.13 459.864 1144.33 456.789C1144.33 451.884 1143.38 448.123 1141.5 445.506C1140 442.825 1138.08 440.536 1135.74 438.639C1135.09 438.182 1134.38 437.723 1133.64 437.264C1132.89 436.808 1132.19 436.349 1131.54 435.891C1129.45 434.453 1128.38 433.7 1128.32 433.635C1123.37 429.58 1119.43 425.688 1116.5 421.96C1113.9 418.23 1112.04 414.764 1110.93 411.56C1110.54 410.056 1109.99 406.982 1109.27 402.337C1109.27 397.889 1109.21 394.456 1109.08 392.035V389.876V387.423V387.03V386.442V383.204V379.771C1109.08 372.184 1110.28 364.956 1112.69 358.088C1114.9 351.745 1120.5 348.473 1129.49 348.277C1133.07 348.277 1135.93 348.669 1138.08 349.455C1140.03 350.175 1141.5 350.992 1142.47 351.907C1143.12 352.496 1143.68 353.347 1144.13 354.459C1144.13 355.243 1144.2 355.636 1144.33 355.636C1144.26 355.636 1144.33 355.308 1144.52 354.653C1144.52 353.868 1144.7 353.101 1145.06 352.349C1145.42 351.597 1145.89 350.828 1146.48 350.043C1147.13 349.257 1148.01 348.865 1149.11 348.865H1151.95H1155.27H1157.12H1158.88C1160.77 348.865 1161.97 349.128 1162.49 349.649C1162.82 349.977 1163.08 350.992 1163.27 352.692V360.737V375.552V390.465V398.511C1163.27 399.884 1163.08 400.864 1162.69 401.453C1162.56 401.847 1161.42 402.141 1159.27 402.337H1154.48H1151.07H1150.68H1150.48H1150.09H1149.7C1148.92 402.337 1148.27 401.847 1147.75 400.864C1147.48 400.276 1147.19 398.085 1146.87 394.292C1146.87 391.544 1146.02 389.47 1144.33 388.061C1142.63 386.654 1140.68 385.854 1138.47 385.658H1138.08H1137.88C1135.48 385.658 1133.3 386.442 1131.34 388.012C1129.65 389.385 1128.71 391.676 1128.51 394.88C1128.51 399.196 1129.71 402.96 1132.12 406.163C1134.53 408.976 1137.26 411.692 1140.33 414.306L1140.72 414.797L1141.11 414.994C1142.15 416.04 1142.96 416.825 1143.55 417.348C1144.33 417.936 1145.17 418.689 1146.09 419.604C1146.35 419.867 1146.54 420.129 1146.67 420.389C1147 420.389 1147.29 420.521 1147.55 420.782C1148.33 421.566 1149.05 422.318 1149.7 423.039C1150.35 423.497 1151.1 424.216 1151.95 425.196C1154.74 427.944 1157.48 432.032 1160.15 437.461C1162.49 442.629 1163.66 450.87 1163.66 462.185V461.989Z" fill="#202751"/>
<path d="M1163.66 461.989V463.755C1163.66 474.94 1162.75 484.392 1160.93 492.109C1159.3 500.089 1153.02 504.177 1142.08 504.373C1138.83 504.373 1136.39 503.917 1134.76 503C1133.39 502.282 1132.06 501.268 1130.76 499.959C1130.43 499.566 1130.01 498.977 1129.49 498.194C1129.36 497.604 1129.1 497.049 1128.71 496.525L1128.12 497.701C1127.79 498.749 1127.47 499.566 1127.14 500.154L1126.95 500.352V500.547C1126.82 500.875 1126.64 501.201 1126.41 501.529C1126.18 501.858 1125.94 502.282 1125.68 502.804C1125.55 503.196 1125.35 503.525 1125.09 503.785H1123.14H1119.33H1116.11H1113.96C1112.72 503.785 1111.71 503.588 1110.93 503.196C1110.48 502.936 1110.15 501.725 1109.96 499.566V491.324V476.412V461.204V453.159C1109.96 451.785 1110.09 450.97 1110.35 450.706C1110.67 450.38 1111.52 450.117 1112.89 449.922H1115.33H1118.55H1120.7H1122.94C1124.25 449.922 1125.09 450.313 1125.48 451.099C1125.87 451.688 1126.07 453.356 1126.07 456.103C1126.07 459.765 1126.95 462.382 1128.71 463.952C1130.53 465.587 1132.55 466.404 1134.76 466.404H1135.15H1135.74C1137.82 466.208 1139.74 465.26 1141.5 463.559C1143.19 462.121 1144.13 459.864 1144.33 456.789C1144.33 451.884 1143.38 448.123 1141.5 445.506C1140 442.825 1138.08 440.536 1135.74 438.639C1135.09 438.182 1134.38 437.723 1133.64 437.264C1132.89 436.808 1132.19 436.349 1131.54 435.891C1129.45 434.453 1128.38 433.7 1128.32 433.635C1123.37 429.58 1119.43 425.688 1116.5 421.96C1113.9 418.23 1112.04 414.764 1110.93 411.56C1110.54 410.056 1109.99 406.982 1109.27 402.337C1109.27 397.889 1109.21 394.456 1109.08 392.035V389.876V387.423V387.03V386.442V383.204V379.771C1109.08 372.184 1110.28 364.956 1112.69 358.088C1114.9 351.745 1120.5 348.473 1129.49 348.277C1133.07 348.277 1135.93 348.669 1138.08 349.455C1140.03 350.175 1141.5 350.992 1142.47 351.907C1143.12 352.496 1143.68 353.347 1144.13 354.459C1144.13 355.243 1144.2 355.636 1144.33 355.636C1144.26 355.636 1144.33 355.308 1144.52 354.653C1144.52 353.868 1144.7 353.101 1145.06 352.349C1145.42 351.597 1145.89 350.828 1146.48 350.043C1147.13 349.257 1148.01 348.865 1149.11 348.865H1151.95H1155.27H1157.12H1158.88C1160.77 348.865 1161.97 349.128 1162.49 349.649C1162.82 349.977 1163.08 350.992 1163.27 352.692V360.737V375.552V390.465V398.511C1163.27 399.884 1163.08 400.864 1162.69 401.453C1162.56 401.847 1161.42 402.141 1159.27 402.337H1154.48H1151.07H1150.68H1150.48H1150.09H1149.7C1148.92 402.337 1148.27 401.847 1147.75 400.864C1147.48 400.276 1147.19 398.085 1146.87 394.292C1146.87 391.544 1146.02 389.47 1144.33 388.061C1142.63 386.654 1140.68 385.854 1138.47 385.658H1138.08H1137.88C1135.48 385.658 1133.3 386.442 1131.34 388.012C1129.65 389.385 1128.71 391.676 1128.51 394.88C1128.51 399.196 1129.71 402.96 1132.12 406.163C1134.53 408.976 1137.26 411.692 1140.33 414.306L1140.72 414.797L1141.11 414.994C1142.15 416.04 1142.96 416.825 1143.55 417.348C1144.33 417.936 1145.17 418.689 1146.09 419.604C1146.35 419.867 1146.54 420.129 1146.67 420.389C1147 420.389 1147.29 420.521 1147.55 420.782C1148.33 421.566 1149.05 422.318 1149.7 423.039C1150.35 423.497 1151.1 424.216 1151.95 425.196C1154.74 427.944 1157.48 432.032 1160.15 437.461C1162.49 442.629 1163.66 450.87 1163.66 462.185V461.989Z" stroke="white" stroke-width="4" stroke-miterlimit="10"/>
</g>
<rect x="0.5" y="0.5" width="1255" height="514" stroke="white"/>
<defs>
<clipPath id="clip0_2_55">
<rect width="1256" height="515" fill="white"/>
</clipPath>
</defs>
</svg>
